SplineFontDB: 3.2
FontName: NKL-MEGWarriors-Modern
FullName: NKL MEG Warriors Modern
FamilyName: NKL MEG Warriors Modern
Weight: Medium
Copyright: Copyright 2021 Khaled Mogahed\nModified by Niskala5570@github for Jawi Malay version at 30.12.2021
Version: 2.727 Jawi
ItalicAngle: 0
UnderlinePosition: -100
UnderlineWidth: 50
Ascent: 800
Descent: 200
InvalidEm: 0
LayerCount: 2
Layer: 0 1 "Back" 1
Layer: 1 1 "Fore" 0
XUID: [1021 382 1457897002 30855]
StyleMap: 0x0000
FSType: 0
OS2Version: 4
OS2_WeightWidthSlopeOnly: 0
OS2_UseTypoMetrics: 0
CreationTime: 1638237294
ModificationTime: 1640971500
PfmFamily: 81
TTFWeight: 500
TTFWidth: 5
LineGap: 0
VLineGap: 0
Panose: 0 0 1 0 0 0 0 0 0 0
OS2TypoAscent: 1303
OS2TypoAOffset: 0
OS2TypoDescent: -571
OS2TypoDOffset: 0
OS2TypoLinegap: 0
OS2WinAscent: 1303
OS2WinAOffset: 0
OS2WinDescent: 571
OS2WinDOffset: 0
HheadAscent: 1303
HheadAOffset: 0
HheadDescent: -571
HheadDOffset: 0
OS2SubXSize: 650
OS2SubYSize: 600
OS2SubXOff: 0
OS2SubYOff: 75
OS2SupXSize: 650
OS2SupYSize: 600
OS2SupXOff: 0
OS2SupYOff: 350
OS2StrikeYSize: 50
OS2StrikeYPos: 300
OS2CapHeight: 692
OS2XHeight: 500
OS2Vendor: '1KTF'
OS2CodePages: 20000041.00000000
OS2UnicodeRanges: 00002003.10000001.00000008.00000000
Lookup: 1 0 0 "'aalt' Access All Alternates lookup 0" { "'aalt' Access All Alternates lookup 0 subtable"  "'aalt' Access All Alternates lookup 0-1 "  } ['aalt' ('DFLT' <'dflt' > 'arab' <'dflt' > 'latn' <'dflt' > ) ]
Lookup: 3 0 0 "'aalt' Access All Alternates lookup 1" { "'aalt' Access All Alternates lookup 1 subtable"  } ['aalt' ('DFLT' <'dflt' > 'arab' <'dflt' > 'latn' <'dflt' > ) ]
Lookup: 4 0 0 "'ccmp' Glyph Composition/Decomposition in Arabic lookup 2" { "'ccmp' Glyph Composition/Decomposition in Arabic lookup 2 subtable"  } ['ccmp' ('arab' <'dflt' > ) ]
Lookup: 1 0 0 "'subs' Subscript lookup 3" { "'subs' Subscript lookup 3 subtable" ("inferior") } ['subs' ('DFLT' <'dflt' > 'arab' <'dflt' > 'latn' <'dflt' > ) ]

StartChar: exclam
Encoding: 2 33 2
Width: 247
Flags: W
LayerCount: 2
Fore
SplineSet
84 692 m 1,0,-1
 163 692 l 1,1,-1
 158 228 l 1,2,-1
 89 228 l 1,3,-1
 84 692 l 1,0,-1
83 112 m 1,4,-1
 165 112 l 1,5,-1
 165 0 l 1,6,-1
 83 0 l 1,7,-1
 83 112 l 1,4,-1
EndSplineSet
Validated: 1
EndChar

StartChar: quotedbl
Encoding: 3 34 3
Width: 373
Flags: W
LayerCount: 2
Fore
SplineSet
67 692 m 1,0,-1
 142 692 l 1,1,-1
 137 470 l 1,2,-1
 70 470 l 1,3,-1
 67 692 l 1,0,-1
232 692 m 1,4,-1
 307 692 l 1,5,-1
 302 470 l 1,6,-1
 235 470 l 1,7,-1
 232 692 l 1,4,-1
EndSplineSet
Validated: 1
EndChar

StartChar: numbersign
Encoding: 4 35 4
Width: 636
Flags: W
LayerCount: 2
Fore
SplineSet
216 0 m 1,0,-1
 60 0 l 1,1,-1
 85.0495049505 69 l 1,2,-1
 0 69 l 1,3,-1
 57 225 l 1,4,-1
 141.683168317 225 l 1,5,-1
 170 303 l 1,6,-1
 171.539772727 303 l 1,7,-1
 171.897727273 304 l 1,8,-1
 81 304 l 1,9,-1
 98 353 l 1,10,-1
 189.4375 353 l 1,11,-1
 217 430 l 1,12,-1
 373 430 l 1,13,-1
 345.4375 353 l 1,14,-1
 401.4375 353 l 1,15,-1
 429 430 l 1,16,-1
 585 430 l 1,17,-1
 557.4375 353 l 1,18,-1
 636 353 l 1,19,-1
 619 304 l 1,20,-1
 539.897727273 304 l 1,21,-1
 522 254 l 1,22,-1
 521.211221122 254 l 1,23,-1
 510.683168317 225 l 1,24,-1
 599 225 l 1,25,-1
 543 69 l 1,26,-1
 454.04950495 69 l 1,27,-1
 429 0 l 1,28,-1
 273 0 l 1,29,-1
 298.04950495 69 l 1,30,-1
 241.04950495 69 l 1,31,-1
 216 0 l 1,0,-1
383.897727273 304 m 1,32,-1
 327.897727273 304 l 1,33,-1
 310 254 l 1,34,-1
 308.211221122 254 l 1,35,-1
 297.683168317 225 l 1,36,-1
 354.683168317 225 l 1,37,-1
 383 303 l 1,38,-1
 383.539772727 303 l 1,39,-1
 383.897727273 304 l 1,32,-1
EndSplineSet
Validated: 1
EndChar

StartChar: dollar
Encoding: 5 36 5
Width: 560
Flags: W
LayerCount: 2
Fore
SplineSet
203 -117 m 2,1,-1
 217 -6 l 1,2,3
 172 -2 172 -2 90 10 c 2,4,-1
 74 12 l 1,5,-1
 82 73 l 1,6,7
 158 63 158 63 225 58 c 1,8,-1
 258 308 l 1,9,10
 186 325 186 325 146 346 c 128,-1,11
 106 367 106 367 87.5 401.5 c 128,-1,12
 69 436 69 436 69 493 c 0,13,14
 69 590 69 590 120.5 630 c 128,-1,15
 172 670 172 670 281 670 c 1,16,-1
 304 669 l 1,17,-1
 321 798 l 1,18,-1
 372 798 l 1,19,-1
 355 666 l 1,20,21
 420 660 420 660 459 654 c 2,22,-1
 480 651 l 1,23,-1
 474 589 l 1,24,-1
 446 592 l 2,25,26
 373 600 373 600 347 602 c 1,27,-1
 317 369 l 1,28,29
 385 353 385 353 422.5 333.5 c 128,-1,30
 460 314 460 314 477 281.5 c 128,-1,31
 494 249 494 249 494 194 c 0,32,33
 494 -9 494 -9 283 -9 c 2,34,-1
 268 -9 l 1,35,-1
 254 -124 l 1,36,0
 203 -121 203 -121 203 -117 c 2,1,-1
296 605 m 1,37,38
 212 605 212 605 177.5 582 c 128,-1,39
 143 559 143 559 143 497 c 0,40,41
 143 461 143 461 154.5 440 c 128,-1,42
 166 419 166 419 192 405.5 c 128,-1,43
 218 392 218 392 267 380 c 1,44,-1
 296 605 l 1,37,38
385 89 m 128,-1,46
 420 122 420 122 420 189 c 0,47,48
 420 224 420 224 409.5 244 c 128,-1,49
 399 264 399 264 375.5 275.5 c 128,-1,50
 352 287 352 287 308 298 c 1,51,-1
 277 56 l 1,52,45
 350 56 350 56 385 89 c 128,-1,46
EndSplineSet
Validated: 1
EndChar

StartChar: percent
Encoding: 6 37 6
Width: 560
Flags: W
LayerCount: 2
Fore
SplineSet
155 -4 m 1,0,-1
 360 681 l 1,1,-1
 408 665 l 1,2,-1
 203 -18 l 1,3,-1
 155 -4 l 1,0,-1
56.5 426.5 m 128,-1,5
 28 462 28 462 28 533 c 0,6,7
 28 670 28 670 138 670 c 256,8,9
 248 670 248 670 248 533 c 0,10,11
 248 462 248 462 219.5 426.5 c 128,-1,12
 191 391 191 391 138 391 c 256,13,4
 85 391 85 391 56.5 426.5 c 128,-1,5
176 464.5 m 128,-1,15
 188 487 188 487 188 534 c 0,16,17
 188 578 188 578 176.5 598.5 c 128,-1,18
 165 619 165 619 139 619 c 256,19,20
 113 619 113 619 101 598.5 c 128,-1,21
 89 578 89 578 89 534 c 0,22,23
 89 442 89 442 139 442 c 0,24,14
 164 442 164 442 176 464.5 c 128,-1,15
341.5 26 m 128,-1,26
 313 62 313 62 313 132 c 0,27,28
 313 269 313 269 423 269 c 0,29,30
 532 269 532 269 532 133 c 0,31,32
 532 62 532 62 503.5 26 c 128,-1,33
 475 -10 475 -10 422 -10 c 0,34,25
 370 -10 370 -10 341.5 26 c 128,-1,26
460.5 63 m 128,-1,36
 472 85 472 85 472 131 c 256,37,38
 472 177 472 177 461 197.5 c 128,-1,39
 450 218 450 218 423 218 c 256,40,41
 396 218 396 218 384.5 198 c 128,-1,42
 373 178 373 178 373 133 c 0,43,44
 373 85 373 85 385 63 c 128,-1,45
 397 41 397 41 423 41 c 256,46,35
 449 41 449 41 460.5 63 c 128,-1,36
EndSplineSet
Validated: 1
EndChar

StartChar: ampersand
Encoding: 7 38 7
Width: 688
Flags: W
LayerCount: 2
Fore
SplineSet
98.5 44 m 128,-1,1
 42 98 42 98 42 202 c 0,2,3
 42 288 42 288 79 333.5 c 128,-1,4
 116 379 116 379 197 405 c 1,5,6
 167 438 167 438 153.5 470 c 128,-1,7
 140 502 140 502 140 543 c 0,8,9
 140 621 140 621 185.5 661 c 128,-1,10
 231 701 231 701 315 701 c 0,11,12
 400 701 400 701 443.5 662 c 128,-1,13
 487 623 487 623 487 547 c 0,14,15
 487 482 487 482 452 440 c 128,-1,16
 417 398 417 398 333 360 c 1,17,-1
 485 210 l 1,18,19
 507 273 507 273 513 372 c 1,20,-1
 586 371 l 1,21,22
 572 243 572 243 540 163 c 1,23,-1
 669 41 l 1,24,-1
 624 -9 l 1,25,-1
 503 104 l 1,26,27
 463 40 463 40 410.5 15 c 128,-1,28
 358 -10 358 -10 280 -10 c 0,29,0
 155 -10 155 -10 98.5 44 c 128,-1,1
384.5 463.5 m 128,-1,31
 412 493 412 493 412 541 c 0,32,33
 412 636 412 636 314 636 c 0,34,35
 215 636 215 636 215 543 c 0,36,37
 215 481 215 481 260 433 c 2,38,-1
 289 405 l 1,39,30
 357 434 357 434 384.5 463.5 c 128,-1,31
385.5 80.5 m 128,-1,41
 428 103 428 103 451 148 c 1,42,-1
 240 358 l 1,43,44
 175 338 175 338 146.5 304.5 c 128,-1,45
 118 271 118 271 118 208 c 0,46,47
 118 132 118 132 158 95 c 128,-1,48
 198 58 198 58 279 58 c 0,49,40
 343 58 343 58 385.5 80.5 c 128,-1,41
EndSplineSet
Validated: 1
EndChar

StartChar: quotesingle
Encoding: 8 39 8
Width: 208
Flags: W
LayerCount: 2
Fore
SplineSet
67 692 m 1,0,-1
 142 692 l 1,1,-1
 137 470 l 1,2,-1
 70 470 l 1,3,-1
 67 692 l 1,0,-1
EndSplineSet
Validated: 1
EndChar

StartChar: parenleft
Encoding: 9 40 9
Width: 264
Flags: W
LayerCount: 2
Fore
SplineSet
51 303 m 0,1,2
 51 497 51 497 155 750 c 1,3,-1
 227 750 l 1,4,5
 190 651 190 651 161 518 c 128,-1,6
 132 385 132 385 132 295 c 0,7,8
 132 212 132 212 157.5 102.5 c 128,-1,9
 183 -7 183 -7 227 -125 c 1,10,-1
 155 -125 l 1,11,0
 51 110 51 110 51 303 c 0,1,2
EndSplineSet
Validated: 1
EndChar

StartChar: parenright
Encoding: 10 41 10
Width: 264
Flags: W
LayerCount: 2
Fore
SplineSet
37 -125 m 1,0,1
 85 6 85 6 108 107 c 128,-1,2
 131 208 131 208 131 294 c 0,3,4
 131 396 131 396 103 521.5 c 128,-1,5
 75 647 75 647 37 750 c 1,6,-1
 109 750 l 1,7,8
 213 496 213 496 213 303 c 256,9,10
 213 110 213 110 109 -125 c 1,11,-1
 37 -125 l 1,0,1
EndSplineSet
Validated: 1
EndChar

StartChar: asterisk
Encoding: 11 42 11
Width: 420
Flags: W
LayerCount: 2
Fore
SplineSet
192 497 m 1,0,-1
 85 418 l 1,1,-1
 54 458 l 1,2,-1
 162 537 l 1,3,-1
 56 614 l 1,4,-1
 87 656 l 1,5,-1
 193 578 l 1,6,-1
 234 704 l 1,7,-1
 283 688 l 1,8,-1
 243 561 l 1,9,-1
 373 561 l 1,10,-1
 373 511 l 1,11,-1
 241 511 l 1,12,-1
 282 386 l 1,13,-1
 233 371 l 1,14,-1
 192 497 l 1,0,-1
EndSplineSet
Validated: 1
EndChar

StartChar: plus
Encoding: 12 43 12
Width: 560
Flags: W
LayerCount: 2
Fore
SplineSet
244 217 m 1,0,-1
 55 217 l 1,1,-1
 55 285 l 1,2,-1
 244 285 l 1,3,-1
 244 480 l 1,4,-1
 314 480 l 1,5,-1
 314 285 l 1,6,-1
 505 285 l 1,7,-1
 505 217 l 1,8,-1
 314 217 l 1,9,-1
 314 20 l 1,10,-1
 244 20 l 1,11,-1
 244 217 l 1,0,-1
EndSplineSet
Validated: 1
EndChar

StartChar: comma
Encoding: 13 44 13
Width: 223
Flags: W
LayerCount: 2
Fore
SplineSet
80 107 m 1,0,-1
 163 107 l 1,1,-1
 96 -123 l 1,2,-1
 34 -123 l 1,3,-1
 80 107 l 1,0,-1
EndSplineSet
Validated: 1
EndChar

StartChar: hyphen
Encoding: 14 45 14
Width: 438
Flags: W
LayerCount: 2
Fore
SplineSet
68 310 m 1,0,-1
 371 310 l 1,1,-1
 371 240 l 1,2,-1
 68 240 l 1,3,-1
 68 310 l 1,0,-1
EndSplineSet
Validated: 1
EndChar

StartChar: period
Encoding: 15 46 15
Width: 216
Flags: W
LayerCount: 2
Fore
SplineSet
67 114 m 1,0,-1
 149 114 l 1,1,-1
 149 0 l 1,2,-1
 67 0 l 1,3,-1
 67 114 l 1,0,-1
EndSplineSet
Validated: 1
EndChar

StartChar: slash
Encoding: 16 47 16
Width: 412
Flags: W
LayerCount: 2
Fore
SplineSet
32 10 m 1,0,-1
 314 708 l 1,1,-1
 381 683 l 1,2,-1
 99 -14 l 1,3,-1
 32 10 l 1,0,-1
EndSplineSet
Validated: 1
Substitution2: "'frac' Diagonal Fractions lookup 7 subtable" fraction
Substitution2: "'aalt' Access All Alternates lookup 0 subtable" fraction
EndChar

StartChar: zero
Encoding: 17 48 17
Width: 420
Flags: W
LayerCount: 2
Fore
SplineSet
524.653061224 430 m 1,0,-1
 525 430 l 1,1,-1
 513.726315789 398.505263158 l 1,2,-1
 508 382 l 1,3,-1
 507.818181818 382 l 1,4,-1
 462 254 l 1,5,-1
 461 254 l 1,6,-1
 425.503937008 156 l 1,7,-1
 426 156 l 1,8,-1
 370 0 l 1,9,-1
 369 0 l 1,10,-1
 213 0 l 1,11,-1
 156 0 l 1,12,-1
 0 0 l 1,13,-1
 110 303 l 1,14,-1
 111.539772727 303 l 1,15,-1
 145.726315789 398.505263158 l 1,16,-1
 157 431 l 1,17,-1
 525 431 l 1,18,-1
 524.653061224 430 l 1,0,-1
351.992125984 382 m 1,19,-1
 295.818181818 382 l 1,20,-1
 250 254 l 1,21,-1
 248.211221122 254 l 1,22,-1
 212.633663366 156 l 1,23,-1
 269.633663366 156 l 1,24,-1
 323 303 l 1,25,-1
 324 303 l 1,26,-1
 351.992125984 382 l 1,19,-1
EndSplineSet
Validated: 1
Substitution2: "'frac' Diagonal Fractions lookup 8 subtable" zero.numr
Substitution2: "'dnom' Denominators lookup 6 subtable" zero.dnom
Substitution2: "'numr' Numerators lookup 5 subtable" zero.numr
Substitution2: "'sups' Superscript lookup 4 subtable" uni2070
Substitution2: "'subs' Subscript lookup 3 subtable" uni2080
AlternateSubs2: "'aalt' Access All Alternates lookup 1 subtable" uni2080 uni2070 zero.numr zero.dnom
EndChar

StartChar: one
Encoding: 18 49 18
Width: 261
Flags: W
LayerCount: 2
Fore
SplineSet
191.223255814 381 m 1,0,-1
 141 381 l 1,1,-1
 141 430 l 1,2,-1
 209 430 l 1,3,-1
 279 430 l 1,4,-1
 366 430 l 1,5,-1
 209 0 l 1,6,-1
 53 0 l 1,7,-1
 191.223255814 381 l 1,0,-1
EndSplineSet
Validated: 1
Substitution2: "'frac' Diagonal Fractions lookup 8 subtable" one.numr
Substitution2: "'dnom' Denominators lookup 6 subtable" one.dnom
Substitution2: "'numr' Numerators lookup 5 subtable" one.numr
Substitution2: "'sups' Superscript lookup 4 subtable" uni00B9
Substitution2: "'subs' Subscript lookup 3 subtable" uni2081
AlternateSubs2: "'aalt' Access All Alternates lookup 1 subtable" uni2081 uni00B9 one.numr one.dnom
EndChar

StartChar: two
Encoding: 19 50 19
Width: 420
Flags: W
LayerCount: 2
Fore
SplineSet
462 254 m 1,0,-1
 306 254 l 1,1,-1
 351.818181818 382 l 1,2,-1
 140 382 l 1,3,-1
 157 431 l 1,4,-1
 525 431 l 1,5,-1
 524.653061224 430 l 1,6,-1
 525 430 l 1,7,-1
 513.726315789 398.505263158 l 1,8,-1
 508 382 l 1,9,-1
 507.818181818 382 l 1,10,-1
 462 254 l 1,0,-1
248.211221122 254 m 1,11,-1
 212.633663366 156 l 1,12,-1
 426 156 l 1,13,-1
 370 0 l 1,14,-1
 156 0 l 1,15,-1
 0 0 l 1,16,-1
 110 303 l 1,17,-1
 111 303 l 1,18,-1
 266 303 l 1,19,-1
 322 303 l 1,20,-1
 305 254 l 1,21,-1
 248.211221122 254 l 1,11,-1
EndSplineSet
Validated: 1
Substitution2: "'frac' Diagonal Fractions lookup 8 subtable" two.numr
Substitution2: "'dnom' Denominators lookup 6 subtable" two.dnom
Substitution2: "'numr' Numerators lookup 5 subtable" two.numr
Substitution2: "'sups' Superscript lookup 4 subtable" uni00B2
Substitution2: "'subs' Subscript lookup 3 subtable" uni2082
AlternateSubs2: "'aalt' Access All Alternates lookup 1 subtable" uni2082 uni00B2 two.numr two.dnom
EndChar

StartChar: three
Encoding: 20 51 20
Width: 420
Flags: W
LayerCount: 2
Fore
SplineSet
0 0 m 1,0,-1
 57 156 l 1,1,-1
 269.633663366 156 l 1,2,-1
 323 303 l 1,3,-1
 323.539772727 303 l 1,4,-1
 351.818181818 382 l 1,5,-1
 140 382 l 1,6,-1
 157 431 l 1,7,-1
 525 431 l 1,8,-1
 524.653061224 430 l 1,9,-1
 525 430 l 1,10,-1
 513.726315789 398.505263158 l 1,11,-1
 508 382 l 1,12,-1
 507.818181818 382 l 1,13,-1
 462 254 l 1,14,-1
 461.211221122 254 l 1,15,-1
 425.633663366 156 l 1,16,-1
 426 156 l 1,17,-1
 370 0 l 1,18,-1
 369 0 l 1,19,-1
 213 0 l 1,20,-1
 0 0 l 1,0,-1
305 254 m 1,21,-1
 94 254 l 1,22,-1
 111 303 l 1,23,-1
 322 303 l 1,24,-1
 305 254 l 1,21,-1
EndSplineSet
Validated: 1
Substitution2: "'frac' Diagonal Fractions lookup 8 subtable" three.numr
Substitution2: "'dnom' Denominators lookup 6 subtable" three.dnom
Substitution2: "'numr' Numerators lookup 5 subtable" three.numr
Substitution2: "'sups' Superscript lookup 4 subtable" uni00B3
Substitution2: "'subs' Subscript lookup 3 subtable" uni2083
AlternateSubs2: "'aalt' Access All Alternates lookup 1 subtable" uni2083 uni00B3 three.numr three.dnom
EndChar

StartChar: four
Encoding: 21 52 21
Width: 432
Flags: W
LayerCount: 2
Fore
SplineSet
381 0 m 1,0,-1
 224 0 l 1,1,-1
 317.04950495 254 l 1,2,-1
 317 254 l 1,3,-1
 381 430 l 1,4,-1
 537 430 l 1,5,-1
 490.818181818 303 l 1,6,-1
 491 303 l 1,7,-1
 381 0 l 1,0,-1
278.818181818 303 m 1,8,-1
 334 303 l 1,9,-1
 316 254 l 1,10,-1
 261 254 l 1,11,-1
 105 254 l 1,12,-1
 169 430 l 1,13,-1
 325 430 l 1,14,-1
 278.818181818 303 l 1,8,-1
EndSplineSet
Validated: 1
Substitution2: "'frac' Diagonal Fractions lookup 8 subtable" four.numr
Substitution2: "'dnom' Denominators lookup 6 subtable" four.dnom
Substitution2: "'numr' Numerators lookup 5 subtable" four.numr
Substitution2: "'sups' Superscript lookup 4 subtable" uni2074
Substitution2: "'subs' Subscript lookup 3 subtable" uni2084
AlternateSubs2: "'aalt' Access All Alternates lookup 1 subtable" uni2084 uni2074 four.numr four.dnom
EndChar

StartChar: five
Encoding: 22 53 22
Width: 420
Flags: W
LayerCount: 2
Fore
SplineSet
0 0 m 1,0,-1
 57 156 l 1,1,-1
 269.633663366 156 l 1,2,-1
 323 303 l 1,3,-1
 479 303 l 1,4,-1
 425.633663366 156 l 1,5,-1
 426 156 l 1,6,-1
 370 0 l 1,7,-1
 369 0 l 1,8,-1
 213 0 l 1,9,-1
 0 0 l 1,0,-1
267.539772727 303 m 1,10,-1
 322 303 l 1,11,-1
 305 254 l 1,12,-1
 250 254 l 1,13,-1
 94 254 l 1,14,-1
 111 303 l 1,15,-1
 111.539772727 303 l 1,16,-1
 145.726315789 398.505263158 l 1,17,-1
 157 431 l 1,18,-1
 525 431 l 1,19,-1
 508 382 l 1,20,-1
 295.818181818 382 l 1,21,-1
 267.539772727 303 l 1,10,-1
EndSplineSet
Validated: 1
Substitution2: "'frac' Diagonal Fractions lookup 8 subtable" five.numr
Substitution2: "'dnom' Denominators lookup 6 subtable" five.dnom
Substitution2: "'numr' Numerators lookup 5 subtable" five.numr
Substitution2: "'sups' Superscript lookup 4 subtable" uni2075
Substitution2: "'subs' Subscript lookup 3 subtable" uni2085
AlternateSubs2: "'aalt' Access All Alternates lookup 1 subtable" uni2085 uni2075 five.numr five.dnom
EndChar

StartChar: six
Encoding: 23 54 23
Width: 419
Flags: W
LayerCount: 2
Fore
SplineSet
212.454545455 156 m 1,0,-1
 267.633663366 156 l 1,1,-1
 321 303 l 1,2,-1
 303 254 l 1,3,-1
 248.090909091 254 l 1,4,-1
 212.454545455 156 l 1,0,-1
35.4423076923 97 m 1,5,-1
 35 97 l 1,6,-1
 98 273 l 1,7,-1
 98.8011363636 273 l 1,8,-1
 155 430 l 1,9,-1
 155.632653061 430 l 1,10,-1
 156 431 l 1,11,-1
 524 431 l 1,12,-1
 506 382 l 1,13,-1
 294.545454545 382 l 1,14,-1
 265.818181818 303 l 1,15,-1
 321 303 l 1,16,-1
 478 303 l 1,17,-1
 424.148514851 156 l 1,18,-1
 425 156 l 1,19,-1
 368 0 l 1,20,-1
 367 0 l 1,21,-1
 211 0 l 1,22,-1
 0 0 l 1,23,-1
 35.4423076923 97 l 1,5,-1
EndSplineSet
Validated: 5
Substitution2: "'frac' Diagonal Fractions lookup 8 subtable" six.numr
Substitution2: "'dnom' Denominators lookup 6 subtable" six.dnom
Substitution2: "'numr' Numerators lookup 5 subtable" six.numr
Substitution2: "'sups' Superscript lookup 4 subtable" uni2076
Substitution2: "'subs' Subscript lookup 3 subtable" uni2086
AlternateSubs2: "'aalt' Access All Alternates lookup 1 subtable" uni2086 uni2076 six.numr six.dnom
EndChar

StartChar: seven
Encoding: 24 55 24
Width: 386
Flags: W
LayerCount: 2
Fore
SplineSet
317.474418605 382 m 1,0,-1
 105 382 l 1,1,-1
 123 431 l 1,2,-1
 491 431 l 1,3,-1
 490.632653061 430 l 1,4,-1
 491 430 l 1,5,-1
 334 0 l 1,6,-1
 178 0 l 1,7,-1
 317.474418605 382 l 1,0,-1
EndSplineSet
Validated: 1
Substitution2: "'frac' Diagonal Fractions lookup 8 subtable" seven.numr
Substitution2: "'dnom' Denominators lookup 6 subtable" seven.dnom
Substitution2: "'numr' Numerators lookup 5 subtable" seven.numr
Substitution2: "'sups' Superscript lookup 4 subtable" uni2077
Substitution2: "'subs' Subscript lookup 3 subtable" uni2087
AlternateSubs2: "'aalt' Access All Alternates lookup 1 subtable" uni2087 uni2077 seven.numr seven.dnom
EndChar

StartChar: eight
Encoding: 25 56 25
Width: 420
Flags: W
LayerCount: 2
Fore
SplineSet
524.653061224 430 m 1,0,-1
 525 430 l 1,1,-1
 513.726315789 398.505263158 l 1,2,-1
 508 382 l 1,3,-1
 507.818181818 382 l 1,4,-1
 462 254 l 1,5,-1
 461.211221122 254 l 1,6,-1
 425.633663366 156 l 1,7,-1
 426 156 l 1,8,-1
 370 0 l 1,9,-1
 369 0 l 1,10,-1
 213 0 l 1,11,-1
 156 0 l 1,12,-1
 0 0 l 1,13,-1
 110 303 l 1,14,-1
 111 303 l 1,15,-1
 111.539772727 303 l 1,16,-1
 145.726315789 398.505263158 l 1,17,-1
 157 431 l 1,18,-1
 525 431 l 1,19,-1
 524.653061224 430 l 1,0,-1
351.818181818 382 m 1,20,-1
 295.818181818 382 l 1,21,-1
 267.539772727 303 l 1,22,-1
 322 303 l 1,23,-1
 305 254 l 1,24,-1
 250 254 l 1,25,-1
 248.211221122 254 l 1,26,-1
 212.633663366 156 l 1,27,-1
 269.633663366 156 l 1,28,-1
 323 303 l 1,29,-1
 323.539772727 303 l 1,30,-1
 351.818181818 382 l 1,20,-1
EndSplineSet
Validated: 1
Substitution2: "'frac' Diagonal Fractions lookup 8 subtable" eight.numr
Substitution2: "'dnom' Denominators lookup 6 subtable" eight.dnom
Substitution2: "'numr' Numerators lookup 5 subtable" eight.numr
Substitution2: "'sups' Superscript lookup 4 subtable" uni2078
Substitution2: "'subs' Subscript lookup 3 subtable" uni2088
AlternateSubs2: "'aalt' Access All Alternates lookup 1 subtable" uni2088 uni2078 eight.numr eight.dnom
EndChar

StartChar: nine
Encoding: 26 57 26
Width: 420
Flags: W
LayerCount: 2
Fore
SplineSet
0 0 m 1,0,-1
 57 156 l 1,1,-1
 269.633663366 156 l 1,2,-1
 323 303 l 1,3,-1
 323.539772727 303 l 1,4,-1
 351.818181818 382 l 1,5,-1
 295.818181818 382 l 1,6,-1
 267.539772727 303 l 1,7,-1
 322 303 l 1,8,-1
 305 254 l 1,9,-1
 250 254 l 1,10,-1
 94 254 l 1,11,-1
 111 303 l 1,12,-1
 111.539772727 303 l 1,13,-1
 145.726315789 398.505263158 l 1,14,-1
 157 431 l 1,15,-1
 525 431 l 1,16,-1
 524.653061224 430 l 1,17,-1
 525 430 l 1,18,-1
 513.726315789 398.505263158 l 1,19,-1
 508 382 l 1,20,-1
 507.818181818 382 l 1,21,-1
 462 254 l 1,22,-1
 461.211221122 254 l 1,23,-1
 425.633663366 156 l 1,24,-1
 426 156 l 1,25,-1
 370 0 l 1,26,-1
 369 0 l 1,27,-1
 213 0 l 1,28,-1
 0 0 l 1,0,-1
EndSplineSet
Validated: 1
Substitution2: "'frac' Diagonal Fractions lookup 8 subtable" nine.numr
Substitution2: "'dnom' Denominators lookup 6 subtable" nine.dnom
Substitution2: "'numr' Numerators lookup 5 subtable" nine.numr
Substitution2: "'sups' Superscript lookup 4 subtable" uni2079
Substitution2: "'subs' Subscript lookup 3 subtable" uni2089
AlternateSubs2: "'aalt' Access All Alternates lookup 1 subtable" uni2089 uni2079 nine.numr nine.dnom
EndChar

StartChar: colon
Encoding: 27 58 27
Width: 217
Flags: W
LayerCount: 2
Fore
SplineSet
67 436 m 1,0,-1
 149 436 l 1,1,-1
 149 322 l 1,2,-1
 67 322 l 1,3,-1
 67 436 l 1,0,-1
67 114 m 1,4,-1
 149 114 l 1,5,-1
 149 0 l 1,6,-1
 67 0 l 1,7,-1
 67 114 l 1,4,-1
EndSplineSet
Validated: 1
EndChar

StartChar: semicolon
Encoding: 28 59 28
Width: 248
Flags: W
LayerCount: 2
Fore
SplineSet
87 436 m 1,0,-1
 169 436 l 1,1,-1
 169 322 l 1,2,-1
 87 322 l 1,3,-1
 87 436 l 1,0,-1
94 107 m 1,4,-1
 177 107 l 1,5,-1
 110 -123 l 1,6,-1
 48 -123 l 1,7,-1
 94 107 l 1,4,-1
EndSplineSet
Validated: 1
EndChar

StartChar: less
Encoding: 29 60 29
Width: 560
Flags: W
LayerCount: 2
Fore
SplineSet
61 218 m 1,0,-1
 61 284 l 1,1,-1
 477 487 l 1,2,-1
 477 409 l 1,3,-1
 138 252 l 1,4,-1
 477 92 l 1,5,-1
 477 13 l 1,6,-1
 61 218 l 1,0,-1
EndSplineSet
Validated: 1
EndChar

StartChar: equal
Encoding: 30 61 30
Width: 560
Flags: W
LayerCount: 2
Fore
SplineSet
64 378 m 1,0,-1
 496 378 l 1,1,-1
 496 309 l 1,2,-1
 64 309 l 1,3,-1
 64 378 l 1,0,-1
64 193 m 1,4,-1
 496 193 l 1,5,-1
 496 124 l 1,6,-1
 64 124 l 1,7,-1
 64 193 l 1,4,-1
EndSplineSet
Validated: 1
EndChar

StartChar: greater
Encoding: 31 62 31
Width: 560
Flags: W
LayerCount: 2
Fore
SplineSet
82 92 m 1,0,-1
 421 252 l 1,1,-1
 82 409 l 1,2,-1
 82 487 l 1,3,-1
 498 284 l 1,4,-1
 498 218 l 1,5,-1
 82 13 l 1,6,-1
 82 92 l 1,0,-1
EndSplineSet
Validated: 1
EndChar

StartChar: question
Encoding: 32 63 32
Width: 447
Flags: W
LayerCount: 2
Fore
SplineSet
152 262 m 0,1,2
 152 294 152 294 173.5 323 c 128,-1,3
 195 352 195 352 249 399 c 0,4,5
 286 431 286 431 303 450.5 c 128,-1,6
 320 470 320 470 327 490.5 c 128,-1,7
 334 511 334 511 334 542 c 0,8,9
 334 589 334 589 302 611.5 c 128,-1,10
 270 634 270 634 201 634 c 0,11,12
 158 634 158 634 46 611 c 1,13,-1
 41 672 l 1,14,15
 141 702 141 702 208 702 c 0,16,17
 312 702 312 702 361 664 c 128,-1,18
 410 626 410 626 410 542 c 0,19,20
 410 497 410 497 403 470 c 128,-1,21
 396 443 396 443 377.5 420 c 128,-1,22
 359 397 359 397 322 366 c 0,23,24
 267 320 267 320 247.5 294 c 128,-1,25
 228 268 228 268 228 236 c 2,26,-1
 228 201 l 1,27,-1
 165 201 l 1,28,0
 152 227 152 227 152 262 c 0,1,2
154 113 m 1,29,-1
 236 113 l 1,30,-1
 236 1 l 1,31,-1
 154 1 l 1,32,-1
 154 113 l 1,29,-1
EndSplineSet
Validated: 1
EndChar

StartChar: at
Encoding: 33 64 33
Width: 977
Flags: W
LayerCount: 2
Fore
SplineSet
305.5 -180.5 m 128,-1,1
 226 -158 226 -158 168 -106 c 0,2,3
 51 -4 51 -4 51 261 c 0,4,5
 51 498 51 498 164.5 610.5 c 128,-1,6
 278 723 278 723 504 723 c 0,7,8
 726 723 726 723 829.5 621 c 128,-1,9
 933 519 933 519 933 305 c 2,10,-1
 933 292 l 2,11,12
 933 174 933 174 914 109.5 c 128,-1,13
 895 45 895 45 858.5 19.5 c 128,-1,14
 822 -6 822 -6 762 -6 c 0,15,16
 666 -6 666 -6 640 54 c 1,17,18
 542 -5 542 -5 466 -5 c 0,19,20
 382 -5 382 -5 336 46.5 c 128,-1,21
 290 98 290 98 290 233 c 0,22,23
 290 331 290 331 310 390.5 c 128,-1,24
 330 450 330 450 374 477.5 c 128,-1,25
 418 505 418 505 493 505 c 0,26,27
 537 505 537 505 590 486 c 2,28,-1
 608 479 l 1,29,-1
 608 495 l 1,30,-1
 683 495 l 1,31,-1
 683 304 l 2,32,33
 683 131 683 131 694 96 c 0,34,35
 702 76 702 76 712 68 c 128,-1,36
 722 60 722 60 732.5 58.5 c 128,-1,37
 743 57 743 57 767 57 c 0,38,39
 808 57 808 57 827.5 90 c 128,-1,40
 847 123 847 123 852 171 c 128,-1,41
 857 219 857 219 857 292 c 2,42,-1
 857 306 l 2,43,44
 857 431 857 431 821 507.5 c 128,-1,45
 785 584 785 584 708 620.5 c 128,-1,46
 631 657 631 657 503 657 c 0,47,48
 310 657 310 657 218.5 561.5 c 128,-1,49
 127 466 127 466 127 256 c 0,50,51
 127 113 127 113 165.5 27.5 c 128,-1,52
 204 -58 204 -58 286 -97.5 c 128,-1,53
 368 -137 368 -137 504 -137 c 1,54,-1
 647 -127 l 1,55,-1
 650 -194 l 1,56,57
 556 -203 556 -203 504 -203 c 0,58,0
 385 -203 385 -203 305.5 -180.5 c 128,-1,1
617 107 m 1,60,61
 608 161 608 161 608 280 c 2,62,-1
 608 419 l 1,63,64
 546 439 546 439 505 439 c 0,65,66
 451 439 451 439 421 419 c 128,-1,67
 391 399 391 399 378.5 357 c 128,-1,68
 366 315 366 315 366 244 c 0,69,70
 366 61 366 61 471 61 c 0,71,59
 515 61 515 61 617 107 c 1,60,61
EndSplineSet
Validated: 1
EndChar

StartChar: A
Encoding: 34 65 34
Width: 596
Flags: W
LayerCount: 2
Fore
SplineSet
446 178 m 1,0,-1
 150 178 l 1,1,-1
 100 0 l 1,2,-1
 24 0 l 1,3,-1
 214 692 l 1,4,-1
 382 692 l 1,5,-1
 572 0 l 1,6,-1
 496 0 l 1,7,-1
 446 178 l 1,0,-1
167 247 m 1,8,-1
 429 247 l 1,9,-1
 324 626 l 1,10,-1
 272 626 l 1,11,-1
 167 247 l 1,8,-1
EndSplineSet
Validated: 1
Substitution2: "Single Substitution lookup 16 subtable" ordfeminine
Substitution2: "'aalt' Access All Alternates lookup 0 subtable" ordfeminine
EndChar

StartChar: B
Encoding: 35 66 35
Width: 616
Flags: W
LayerCount: 2
Fore
SplineSet
85 692 m 1,0,-1
 336 692 l 2,1,2
 441 692 441 692 491.5 648.5 c 128,-1,3
 542 605 542 605 542 513 c 0,4,5
 542 452 542 452 520 415.5 c 128,-1,6
 498 379 498 379 453 357 c 1,7,8
 509 337 509 337 536 297 c 128,-1,9
 563 257 563 257 563 189 c 0,10,11
 563 91 563 91 508.5 45.5 c 128,-1,12
 454 0 454 0 349 0 c 2,13,-1
 85 0 l 1,14,-1
 85 692 l 1,0,-1
340 385 m 2,15,16
 403 385 403 385 433 415.5 c 128,-1,17
 463 446 463 446 463 507 c 0,18,19
 463 569 463 569 432 596.5 c 128,-1,20
 401 624 401 624 333 624 c 2,21,-1
 162 624 l 1,22,-1
 162 385 l 1,23,-1
 340 385 l 2,15,16
346 68 m 2,24,25
 414 68 414 68 449.5 97 c 128,-1,26
 485 126 485 126 485 191 c 0,27,28
 485 261 485 261 446 289.5 c 128,-1,29
 407 318 407 318 341 318 c 2,30,-1
 162 318 l 1,31,-1
 162 68 l 1,32,-1
 346 68 l 2,24,25
EndSplineSet
Validated: 1
EndChar

StartChar: C
Encoding: 36 67 36
Width: 544
Flags: W
LayerCount: 2
Fore
SplineSet
158 29.5 m 128,-1,1
 101 69 101 69 80 145 c 128,-1,2
 59 221 59 221 59 346 c 0,3,4
 59 470 59 470 80 546.5 c 128,-1,5
 101 623 101 623 156.5 662.5 c 128,-1,6
 212 702 212 702 316 702 c 0,7,8
 397 702 397 702 503 680 c 1,9,-1
 500 615 l 1,10,11
 399 633 399 633 326 633 c 0,12,13
 248 633 248 633 208 605 c 128,-1,14
 168 577 168 577 153.5 515 c 128,-1,15
 139 453 139 453 139 335 c 0,16,17
 139 233 139 233 152.5 175.5 c 128,-1,18
 166 118 166 118 208 88.5 c 128,-1,19
 250 59 250 59 335 59 c 0,20,21
 404 59 404 59 500 77 c 1,22,-1
 503 11 l 1,23,24
 400 -10 400 -10 321 -10 c 0,25,0
 215 -10 215 -10 158 29.5 c 128,-1,1
EndSplineSet
Validated: 1
EndChar

StartChar: D
Encoding: 37 68 37
Width: 645
Flags: W
LayerCount: 2
Fore
SplineSet
493.5 646 m 128,-1,1
 550 600 550 600 569 529 c 128,-1,2
 588 458 588 458 588 363 c 0,3,4
 588 173 588 173 525.5 86.5 c 128,-1,5
 463 0 463 0 332 0 c 2,6,-1
 85 0 l 1,7,-1
 85 692 l 1,8,-1
 332 692 l 2,9,0
 437 692 437 692 493.5 646 c 128,-1,1
509 356 m 0,11,12
 509 496 509 496 466 560 c 128,-1,13
 423 624 423 624 332 624 c 2,14,-1
 162 624 l 1,15,-1
 162 68 l 1,16,-1
 332 68 l 2,17,10
 509 68 509 68 509 356 c 0,11,12
EndSplineSet
Validated: 1
EndChar

StartChar: E
Encoding: 38 69 38
Width: 553
Flags: W
LayerCount: 2
Fore
SplineSet
162 624 m 1,0,-1
 162 385 l 1,1,-1
 446 385 l 1,2,-1
 446 318 l 1,3,-1
 162 318 l 1,4,-1
 162 68 l 1,5,-1
 506 68 l 1,6,-1
 506 0 l 1,7,-1
 85 0 l 1,8,-1
 85 692 l 1,9,-1
 506 692 l 1,10,-1
 506 624 l 1,11,-1
 162 624 l 1,0,-1
EndSplineSet
Validated: 1
EndChar

StartChar: F
Encoding: 39 70 39
Width: 526
Flags: W
LayerCount: 2
Fore
SplineSet
162 624 m 1,0,-1
 162 354 l 1,1,-1
 447 354 l 1,2,-1
 447 286 l 1,3,-1
 162 286 l 1,4,-1
 162 0 l 1,5,-1
 85 0 l 1,6,-1
 85 692 l 1,7,-1
 499 692 l 1,8,-1
 499 624 l 1,9,-1
 162 624 l 1,0,-1
EndSplineSet
Validated: 1
EndChar

StartChar: G
Encoding: 40 71 40
Width: 616
Flags: W
LayerCount: 2
Fore
SplineSet
166.5 28 m 128,-1,1
 108 66 108 66 82.5 143.5 c 128,-1,2
 57 221 57 221 57 346 c 0,3,4
 57 470 57 470 82.5 548 c 128,-1,5
 108 626 108 626 166 664 c 128,-1,6
 224 702 224 702 323 702 c 0,7,8
 413 702 413 702 516 682 c 2,9,-1
 550 676 l 1,10,-1
 547 612 l 1,11,12
 423 633 423 633 332 633 c 0,13,14
 256 633 256 633 213.5 604.5 c 128,-1,15
 171 576 171 576 154 514.5 c 128,-1,16
 137 453 137 453 137 346 c 256,17,18
 137 239 137 239 154 177.5 c 128,-1,19
 171 116 171 116 213 87 c 128,-1,20
 255 58 255 58 331 58 c 0,21,22
 398 58 398 58 474 72 c 1,23,-1
 474 285 l 1,24,-1
 359 285 l 1,25,-1
 359 354 l 1,26,-1
 550 354 l 1,27,-1
 550 14 l 1,28,29
 424 -10 424 -10 325 -10 c 0,30,0
 225 -10 225 -10 166.5 28 c 128,-1,1
EndSplineSet
Validated: 1
EndChar

StartChar: H
Encoding: 41 72 41
Width: 675
Flags: W
LayerCount: 2
Fore
SplineSet
590 692 m 1,0,-1
 590 0 l 1,1,-1
 514 0 l 1,2,-1
 514 313 l 1,3,-1
 162 313 l 1,4,-1
 162 0 l 1,5,-1
 85 0 l 1,6,-1
 85 692 l 1,7,-1
 162 692 l 1,8,-1
 162 382 l 1,9,-1
 514 382 l 1,10,-1
 514 692 l 1,11,-1
 590 692 l 1,0,-1
EndSplineSet
Validated: 1
EndChar

StartChar: I
Encoding: 42 73 42
Width: 246
Flags: W
LayerCount: 2
Fore
SplineSet
85 692 m 1,0,-1
 162 692 l 1,1,-1
 162 0 l 1,2,-1
 85 0 l 1,3,-1
 85 692 l 1,0,-1
EndSplineSet
Validated: 1
EndChar

StartChar: J
Encoding: 43 74 43
Width: 289
Flags: W
LayerCount: 2
Fore
SplineSet
18 -3 m 1,0,1
 70 -3 70 -3 92 4 c 128,-1,2
 114 11 114 11 122.5 33 c 128,-1,3
 131 55 131 55 131 106 c 2,4,-1
 131 692 l 1,5,-1
 207 692 l 1,6,-1
 208 95 l 2,7,8
 208 19 208 19 186.5 -17 c 128,-1,9
 165 -53 165 -53 127 -62.5 c 128,-1,10
 89 -72 89 -72 18 -72 c 1,11,-1
 18 -3 l 1,0,1
EndSplineSet
Validated: 1
EndChar

StartChar: K
Encoding: 44 75 44
Width: 569
Flags: W
LayerCount: 2
Fore
SplineSet
277 306 m 1,0,-1
 162 302 l 1,1,-1
 162 0 l 1,2,-1
 85 0 l 1,3,-1
 85 692 l 1,4,-1
 162 692 l 1,5,-1
 162 370 l 1,6,-1
 276 374 l 1,7,-1
 453 692 l 1,8,-1
 541 692 l 1,9,-1
 343 344 l 1,10,-1
 552 0 l 1,11,-1
 461 0 l 1,12,-1
 277 306 l 1,0,-1
EndSplineSet
Validated: 1
EndChar

StartChar: L
Encoding: 45 76 45
Width: 479
Flags: W
LayerCount: 2
Fore
SplineSet
466 69 m 1,0,-1
 466 0 l 1,1,-1
 85 0 l 1,2,-1
 85 692 l 1,3,-1
 162 692 l 1,4,-1
 162 69 l 1,5,-1
 466 69 l 1,0,-1
EndSplineSet
Validated: 1
EndChar

StartChar: M
Encoding: 46 77 46
Width: 840
Flags: W
LayerCount: 2
Fore
SplineSet
755 692 m 1,0,-1
 755 0 l 1,1,-1
 678 0 l 1,2,-1
 678 610 l 1,3,-1
 664 610 l 1,4,-1
 463 25 l 1,5,-1
 377 25 l 1,6,-1
 176 610 l 1,7,-1
 162 610 l 1,8,-1
 162 0 l 1,9,-1
 85 0 l 1,10,-1
 85 692 l 1,11,-1
 224 692 l 1,12,-1
 420 106 l 1,13,-1
 616 692 l 1,14,-1
 755 692 l 1,0,-1
EndSplineSet
Validated: 1
EndChar

StartChar: N
Encoding: 47 78 47
Width: 676
Flags: W
LayerCount: 2
Fore
SplineSet
591 692 m 1,0,-1
 591 0 l 1,1,-1
 450 0 l 1,2,-1
 181 624 l 1,3,-1
 162 624 l 1,4,-1
 162 0 l 1,5,-1
 85 0 l 1,6,-1
 85 692 l 1,7,-1
 229 692 l 1,8,-1
 495 68 l 1,9,-1
 515 68 l 1,10,-1
 515 692 l 1,11,-1
 591 692 l 1,0,-1
EndSplineSet
Validated: 1
EndChar

StartChar: O
Encoding: 48 79 48
Width: 660
Flags: W
LayerCount: 2
Fore
SplineSet
168 27 m 128,-1,1
 108 64 108 64 82.5 140.5 c 128,-1,2
 57 217 57 217 57 343 c 0,3,4
 57 468 57 468 83 546.5 c 128,-1,5
 109 625 109 625 169 663.5 c 128,-1,6
 229 702 229 702 330 702 c 256,7,8
 431 702 431 702 491 663.5 c 128,-1,9
 551 625 551 625 577.5 546.5 c 128,-1,10
 604 468 604 468 604 341 c 256,11,12
 604 214 604 214 578.5 138 c 128,-1,13
 553 62 553 62 493.5 26 c 128,-1,14
 434 -10 434 -10 331 -10 c 256,15,0
 228 -10 228 -10 168 27 c 128,-1,1
448.5 86 m 128,-1,17
 490 114 490 114 507 174.5 c 128,-1,18
 524 235 524 235 524 341 c 256,19,20
 524 447 524 447 506.5 510 c 128,-1,21
 489 573 489 573 447 603.5 c 128,-1,22
 405 634 405 634 330 634 c 256,23,24
 255 634 255 634 213 604 c 128,-1,25
 171 574 171 574 153.5 511 c 128,-1,26
 136 448 136 448 136 343 c 256,27,28
 136 238 136 238 153 176.5 c 128,-1,29
 170 115 170 115 212.5 86.5 c 128,-1,30
 255 58 255 58 331 58 c 256,31,16
 407 58 407 58 448.5 86 c 128,-1,17
EndSplineSet
Validated: 1
Substitution2: "Single Substitution lookup 16 subtable" ordmasculine
Substitution2: "'aalt' Access All Alternates lookup 0 subtable" ordmasculine
EndChar

StartChar: P
Encoding: 49 80 49
Width: 593
Flags: W
LayerCount: 2
Fore
SplineSet
85 692 m 1,0,-1
 338 692 l 2,1,2
 451 692 451 692 505 637.5 c 128,-1,3
 559 583 559 583 559 469 c 0,4,5
 559 233 559 233 338 233 c 2,6,-1
 162 233 l 1,7,-1
 162 0 l 1,8,-1
 85 0 l 1,9,-1
 85 692 l 1,0,-1
337 301 m 2,10,11
 480 301 480 301 480 469 c 0,12,13
 480 550 480 550 446 587 c 128,-1,14
 412 624 412 624 337 624 c 2,15,-1
 162 624 l 1,16,-1
 162 301 l 1,17,-1
 337 301 l 2,10,11
EndSplineSet
Validated: 1
EndChar

StartChar: Q
Encoding: 50 81 50
Width: 660
Flags: W
LayerCount: 2
Fore
SplineSet
414 -1 m 1,0,1
 381 -10 381 -10 330 -10 c 0,2,3
 227 -10 227 -10 167.5 27 c 128,-1,4
 108 64 108 64 82.5 140.5 c 128,-1,5
 57 217 57 217 57 343 c 0,6,7
 57 468 57 468 83 546.5 c 128,-1,8
 109 625 109 625 169 663.5 c 128,-1,9
 229 702 229 702 330 702 c 256,10,11
 431 702 431 702 491 663.5 c 128,-1,12
 551 625 551 625 577.5 546.5 c 128,-1,13
 604 468 604 468 604 343 c 0,14,15
 604 214 604 214 577.5 138 c 128,-1,16
 551 62 551 62 489 26 c 1,17,-1
 574 -111 l 1,18,-1
 502 -145 l 1,19,-1
 414 -1 l 1,0,1
448.5 86 m 128,-1,21
 490 114 490 114 507 174.5 c 128,-1,22
 524 235 524 235 524 341 c 256,23,24
 524 447 524 447 506.5 510 c 128,-1,25
 489 573 489 573 447 603.5 c 128,-1,26
 405 634 405 634 330 634 c 256,27,28
 255 634 255 634 213 604 c 128,-1,29
 171 574 171 574 153.5 511 c 128,-1,30
 136 448 136 448 136 343 c 256,31,32
 136 238 136 238 153 176.5 c 128,-1,33
 170 115 170 115 212.5 86.5 c 128,-1,34
 255 58 255 58 331 58 c 256,35,20
 407 58 407 58 448.5 86 c 128,-1,21
EndSplineSet
Validated: 1
EndChar

StartChar: R
Encoding: 51 82 51
Width: 616
Flags: W
LayerCount: 2
Fore
SplineSet
85 692 m 1,0,-1
 341 692 l 2,1,2
 452 692 452 692 507 640.5 c 128,-1,3
 562 589 562 589 562 482 c 0,4,5
 562 321 562 321 435 281 c 1,6,-1
 568 0 l 1,7,-1
 483 0 l 1,8,-1
 358 265 l 1,9,-1
 162 265 l 1,10,-1
 162 0 l 1,11,-1
 85 0 l 1,12,-1
 85 692 l 1,0,-1
342 333 m 2,13,14
 483 333 483 333 483 479 c 0,15,16
 483 624 483 624 341 624 c 2,17,-1
 162 624 l 1,18,-1
 162 333 l 1,19,-1
 342 333 l 2,13,14
EndSplineSet
Validated: 1
EndChar

StartChar: S
Encoding: 52 83 52
Width: 542
Flags: W
LayerCount: 2
Fore
SplineSet
90 8 m 2,1,-1
 54 13 l 1,2,-1
 62 77 l 1,3,4
 199 59 199 59 269 59 c 0,5,6
 417 59 417 59 417 198 c 0,7,8
 417 236 417 236 403.5 258 c 128,-1,9
 390 280 390 280 357.5 294 c 128,-1,10
 325 308 325 308 263 320 c 0,11,12
 181 337 181 337 135.5 359 c 128,-1,13
 90 381 90 381 69 418 c 128,-1,14
 48 455 48 455 48 517 c 0,15,16
 48 703 48 703 271 703 c 0,17,18
 348 703 348 703 480 683 c 1,19,-1
 473 618 l 1,20,21
 329 635 329 635 276 635 c 0,22,23
 126 635 126 635 126 522 c 0,24,25
 126 479 126 479 140.5 456.5 c 128,-1,26
 155 434 155 434 190 420 c 128,-1,27
 225 406 225 406 301 389 c 0,28,29
 375 372 375 372 415.5 351 c 128,-1,30
 456 330 456 330 475 295.5 c 128,-1,31
 494 261 494 261 494 204 c 0,32,33
 494 -9 494 -9 273 -9 c 0,34,0
 203 -9 203 -9 90 8 c 2,1,-1
EndSplineSet
Validated: 1
EndChar

StartChar: T
Encoding: 53 84 53
Width: 526
Flags: W
LayerCount: 2
Fore
SplineSet
226 623 m 1,0,-1
 13 623 l 1,1,-1
 13 692 l 1,2,-1
 513 692 l 1,3,-1
 513 623 l 1,4,-1
 302 623 l 1,5,-1
 302 0 l 1,6,-1
 226 0 l 1,7,-1
 226 623 l 1,0,-1
EndSplineSet
Validated: 1
EndChar

StartChar: U
Encoding: 54 85 54
Width: 644
Flags: W
LayerCount: 2
Fore
SplineSet
139.5 42.5 m 128,-1,1
 80 95 80 95 80 210 c 2,2,-1
 80 692 l 1,3,-1
 157 692 l 1,4,-1
 157 208 l 2,5,6
 157 58 157 58 319 58 c 0,7,8
 404 58 404 58 446 94 c 128,-1,9
 488 130 488 130 488 208 c 2,10,-1
 488 692 l 1,11,-1
 564 692 l 1,12,-1
 564 210 l 2,13,14
 564 96 564 96 503.5 43 c 128,-1,15
 443 -10 443 -10 321 -10 c 256,16,0
 199 -10 199 -10 139.5 42.5 c 128,-1,1
EndSplineSet
Validated: 1
EndChar

StartChar: V
Encoding: 55 86 55
Width: 582
Flags: W
LayerCount: 2
Fore
SplineSet
24 692 m 1,0,-1
 104 692 l 1,1,-1
 263 68 l 1,2,-1
 319 68 l 1,3,-1
 478 692 l 1,4,-1
 558 692 l 1,5,-1
 377 0 l 1,6,-1
 205 0 l 1,7,-1
 24 692 l 1,0,-1
EndSplineSet
Validated: 1
EndChar

StartChar: W
Encoding: 56 87 56
Width: 886
Flags: W
LayerCount: 2
Fore
SplineSet
30 692 m 1,0,-1
 110 692 l 1,1,-1
 228 68 l 1,2,-1
 257 68 l 1,3,-1
 398 686 l 1,4,-1
 488 686 l 1,5,-1
 629 68 l 1,6,-1
 658 68 l 1,7,-1
 776 692 l 1,8,-1
 855 692 l 1,9,-1
 715 0 l 1,10,-1
 574 0 l 1,11,-1
 443 591 l 1,12,-1
 312 0 l 1,13,-1
 171 0 l 1,14,-1
 30 692 l 1,0,-1
EndSplineSet
Validated: 1
EndChar

StartChar: X
Encoding: 57 88 57
Width: 558
Flags: W
LayerCount: 2
Fore
SplineSet
233 339 m 1,0,-1
 19 692 l 1,1,-1
 106 692 l 1,2,-1
 281 396 l 1,3,-1
 457 692 l 1,4,-1
 540 692 l 1,5,-1
 327 341 l 1,6,-1
 540 0 l 1,7,-1
 453 0 l 1,8,-1
 279 287 l 1,9,-1
 102 0 l 1,10,-1
 19 0 l 1,11,-1
 233 339 l 1,0,-1
EndSplineSet
Validated: 1
EndChar

StartChar: Y
Encoding: 58 89 58
Width: 538
Flags: W
LayerCount: 2
Fore
SplineSet
231 291 m 1,0,-1
 10 692 l 1,1,-1
 97 692 l 1,2,-1
 269 368 l 1,3,-1
 441 692 l 1,4,-1
 528 692 l 1,5,-1
 308 291 l 1,6,-1
 308 0 l 1,7,-1
 231 0 l 1,8,-1
 231 291 l 1,0,-1
EndSplineSet
Validated: 1
EndChar

StartChar: Z
Encoding: 59 90 59
Width: 536
Flags: W
LayerCount: 2
Fore
SplineSet
43 88 m 1,0,-1
 404 602 l 1,1,-1
 404 624 l 1,2,-1
 43 624 l 1,3,-1
 43 692 l 1,4,-1
 493 692 l 1,5,-1
 493 602 l 1,6,-1
 131 88 l 1,7,-1
 131 68 l 1,8,-1
 493 68 l 1,9,-1
 493 -1 l 1,10,-1
 43 -1 l 1,11,-1
 43 88 l 1,0,-1
EndSplineSet
Validated: 1
EndChar

StartChar: bracketleft
Encoding: 60 91 60
Width: 329
Flags: W
LayerCount: 2
Fore
SplineSet
79 749 m 1,0,-1
 289 749 l 1,1,-1
 289 682 l 1,2,-1
 155 682 l 1,3,-1
 155 -56 l 1,4,-1
 289 -56 l 1,5,-1
 289 -123 l 1,6,-1
 79 -123 l 1,7,-1
 79 749 l 1,0,-1
EndSplineSet
Validated: 1
EndChar

StartChar: backslash
Encoding: 61 92 61
Width: 436
Flags: W
LayerCount: 2
Fore
SplineSet
30 678 m 1,0,-1
 97 707 l 1,1,-1
 405 14 l 1,2,-1
 338 -14 l 1,3,-1
 30 678 l 1,0,-1
EndSplineSet
Validated: 1
EndChar

StartChar: bracketright
Encoding: 62 93 62
Width: 329
Flags: W
LayerCount: 2
Fore
SplineSet
40 -123 m 1,0,-1
 40 -56 l 1,1,-1
 174 -56 l 1,2,-1
 174 682 l 1,3,-1
 40 682 l 1,4,-1
 40 749 l 1,5,-1
 250 749 l 1,6,-1
 250 -123 l 1,7,-1
 40 -123 l 1,0,-1
EndSplineSet
Validated: 1
EndChar

StartChar: asciicircum
Encoding: 63 94 63
Width: 560
Flags: W
LayerCount: 2
Fore
SplineSet
243 660 m 1,0,-1
 310 660 l 1,1,-1
 501 319 l 1,2,-1
 421 319 l 1,3,-1
 278 586 l 1,4,-1
 138 319 l 1,5,-1
 58 319 l 1,6,-1
 243 660 l 1,0,-1
EndSplineSet
Validated: 1
EndChar

StartChar: underscore
Encoding: 64 95 64
Width: 632
Flags: W
LayerCount: 2
Fore
SplineSet
102 -92 m 1,0,-1
 530 -92 l 1,1,-1
 530 -158 l 1,2,-1
 102 -158 l 1,3,-1
 102 -92 l 1,0,-1
EndSplineSet
Validated: 1
EndChar

StartChar: grave
Encoding: 65 96 65
Width: 236
Flags: W
LayerCount: 2
Fore
SplineSet
-1 676 m 1,0,-1
 25 740 l 1,1,-1
 241 642 l 1,2,-1
 220 591 l 1,3,-1
 -1 676 l 1,0,-1
EndSplineSet
Validated: 1
EndChar

StartChar: a
Encoding: 66 97 66
Width: 501
Flags: W
LayerCount: 2
Fore
SplineSet
76 29 m 128,-1,1
 40 68 40 68 40 141 c 0,2,3
 40 213 40 213 76.5 248 c 128,-1,4
 113 283 113 283 193 291 c 2,5,-1
 350 306 l 1,6,-1
 350 349 l 2,7,8
 350 444 350 444 268 444 c 0,9,10
 187 444 187 444 71 431 c 1,11,-1
 68 488 l 1,12,13
 175 510 175 510 263 510 c 0,14,15
 348 510 348 510 386.5 471.5 c 128,-1,16
 425 433 425 433 425 349 c 2,17,-1
 425 93 l 2,18,19
 428 56 428 56 483 49 c 1,20,-1
 480 -10 l 1,21,22
 401 -10 401 -10 361 30 c 1,23,24
 272 -10 272 -10 181 -10 c 0,25,0
 112 -10 112 -10 76 29 c 128,-1,1
327 76 m 2,27,-1
 350 84 l 1,28,-1
 350 249 l 1,29,-1
 202 235 l 2,30,31
 157 231 157 231 137 209 c 128,-1,32
 117 187 117 187 117 145 c 0,33,34
 117 53 117 53 193 53 c 0,35,26
 260 53 260 53 327 76 c 2,27,-1
EndSplineSet
Validated: 1
Substitution2: "Single Substitution lookup 16 subtable" ordfeminine
Substitution2: "'aalt' Access All Alternates lookup 0 subtable" ordfeminine
EndChar

StartChar: b
Encoding: 67 98 67
Width: 526
Flags: W
LayerCount: 2
Fore
SplineSet
100 -2 m 2,1,-1
 72 1 l 1,2,-1
 72 718 l 1,3,-1
 146 718 l 1,4,-1
 146 475 l 1,5,6
 224 510 224 510 298 510 c 0,7,8
 364 510 364 510 402 484.5 c 128,-1,9
 440 459 440 459 457.5 403 c 128,-1,10
 475 347 475 347 475 253 c 0,11,12
 475 150 475 150 453 94 c 128,-1,13
 431 38 431 38 379.5 14.5 c 128,-1,14
 328 -9 328 -9 234 -9 c 0,15,0
 168 -9 168 -9 100 -2 c 2,1,-1
339 76.5 m 128,-1,17
 373 96 373 96 386 138 c 128,-1,18
 399 180 399 180 399 255 c 0,19,20
 399 326 399 326 388 366.5 c 128,-1,21
 377 407 377 407 351.5 425 c 128,-1,22
 326 443 326 443 281 443 c 0,23,24
 226 443 226 443 146 414 c 1,25,-1
 146 62 l 1,26,27
 218 57 218 57 242 57 c 0,28,16
 305 57 305 57 339 76.5 c 128,-1,17
EndSplineSet
Validated: 1
EndChar

StartChar: c
Encoding: 68 99 68
Width: 436
Flags: W
LayerCount: 2
Fore
SplineSet
133 16.5 m 128,-1,1
 89 43 89 43 70 99.5 c 128,-1,2
 51 156 51 156 51 250 c 0,3,4
 51 369 51 369 91 440 c 128,-1,5
 131 511 131 511 246 511 c 0,6,7
 276 511 276 511 308 508 c 128,-1,8
 340 505 340 505 395 495 c 1,9,-1
 392 434 l 1,10,11
 313 443 313 443 271 443 c 0,12,13
 214 443 214 443 183.5 425.5 c 128,-1,14
 153 408 153 408 140.5 366.5 c 128,-1,15
 128 325 128 325 128 248 c 0,16,17
 128 175 128 175 140 134.5 c 128,-1,18
 152 94 152 94 183.5 75.5 c 128,-1,19
 215 57 215 57 275 57 c 1,20,-1
 393 66 l 1,21,-1
 396 4 l 1,22,23
 300 -10 300 -10 252 -10 c 0,24,0
 177 -10 177 -10 133 16.5 c 128,-1,1
EndSplineSet
Validated: 1
EndChar

StartChar: d
Encoding: 69 100 69
Width: 529
Flags: W
LayerCount: 2
Fore
SplineSet
91 51.5 m 128,-1,1
 50 113 50 113 50 241 c 0,2,3
 50 384 50 384 99.5 447 c 128,-1,4
 149 510 149 510 263 510 c 0,5,6
 320 510 320 510 382 497 c 1,7,-1
 382 718 l 1,8,-1
 456 718 l 1,9,-1
 456 0 l 1,10,-1
 382 0 l 1,11,-1
 382 34 l 1,12,13
 305 -10 305 -10 227 -10 c 0,14,0
 132 -10 132 -10 91 51.5 c 128,-1,1
304 65.5 m 128,-1,16
 338 74 338 74 362 85 c 2,17,-1
 382 94 l 1,18,-1
 382 433 l 1,19,20
 317 445 317 445 269 445 c 0,21,22
 190 445 190 445 158.5 399 c 128,-1,23
 127 353 127 353 127 247 c 0,24,25
 127 150 127 150 152.5 103.5 c 128,-1,26
 178 57 178 57 241 57 c 0,27,15
 270 57 270 57 304 65.5 c 128,-1,16
EndSplineSet
Validated: 1
EndChar

StartChar: e
Encoding: 70 101 70
Width: 505
Flags: W
LayerCount: 2
Fore
SplineSet
97.5 49.5 m 128,-1,1
 50 109 50 109 50 237 c 0,2,3
 50 376 50 376 101 443 c 128,-1,4
 152 510 152 510 261 510 c 0,5,6
 361 510 361 510 410.5 452.5 c 128,-1,7
 460 395 460 395 460 276 c 1,8,-1
 456 219 l 1,9,-1
 126 219 l 1,10,11
 126 157 126 157 139.5 122 c 128,-1,12
 153 87 153 87 185.5 71.5 c 128,-1,13
 218 56 218 56 276 56 c 0,14,15
 305 56 305 56 343 57.5 c 128,-1,16
 381 59 381 59 412 62 c 2,17,-1
 441 65 l 1,18,-1
 443 6 l 1,19,20
 332 -10 332 -10 259 -10 c 0,21,0
 145 -10 145 -10 97.5 49.5 c 128,-1,1
385 279 m 1,22,23
 385 370 385 370 356 408.5 c 128,-1,24
 327 447 327 447 261 447 c 0,25,26
 192 447 192 447 159 406.5 c 128,-1,27
 126 366 126 366 125 279 c 1,28,-1
 385 279 l 1,22,23
EndSplineSet
Validated: 1
EndChar

StartChar: f
Encoding: 71 102 71
Width: 331
Flags: W
LayerCount: 2
Fore
SplineSet
93 435 m 1,0,-1
 30 435 l 1,1,-1
 30 500 l 1,2,-1
 93 500 l 1,3,-1
 93 545 l 2,4,5
 93 616 93 616 106 655.5 c 128,-1,6
 119 695 119 695 148 711.5 c 128,-1,7
 177 728 177 728 228 728 c 2,8,-1
 329 721 l 1,9,-1
 328 659 l 1,10,11
 265 661 265 661 250.5 661.5 c 128,-1,12
 236 662 236 662 232 662 c 0,13,14
 195 662 195 662 181.5 632 c 128,-1,15
 168 602 168 602 168 544 c 2,16,-1
 168 500 l 1,17,-1
 313 500 l 1,18,-1
 313 435 l 1,19,-1
 168 435 l 1,20,-1
 168 0 l 1,21,-1
 93 0 l 1,22,-1
 93 435 l 1,0,-1
EndSplineSet
Validated: 1
EndChar

StartChar: g
Encoding: 72 103 72
Width: 514
Flags: W
LayerCount: 2
Fore
SplineSet
96.5 -201.5 m 128,-1,1
 50 -168 50 -168 50 -90 c 0,2,3
 50 -58 50 -58 57.5 -37.5 c 128,-1,4
 65 -17 65 -17 81 -1 c 128,-1,5
 97 15 97 15 129 40 c 1,6,7
 115 49 115 49 108 67 c 128,-1,8
 101 85 101 85 101 105 c 0,9,10
 101 118 101 118 107 133.5 c 128,-1,11
 113 149 113 149 135 188 c 1,12,13
 56 223 56 223 56 338 c 0,14,15
 56 425 56 425 103 467.5 c 128,-1,16
 150 510 150 510 245 510 c 0,17,18
 291 510 291 510 347 497 c 1,19,-1
 495 501 l 1,20,-1
 495 437 l 1,21,-1
 400 439 l 1,22,23
 417 422 417 422 425 397.5 c 128,-1,24
 433 373 433 373 433 335 c 0,25,26
 433 246 433 246 387 208 c 128,-1,27
 341 170 341 170 242 170 c 0,28,29
 211 170 211 170 191 174 c 1,30,31
 183 154 183 154 178 139 c 128,-1,32
 173 124 173 124 173 113 c 0,33,34
 173 87 173 87 193.5 79 c 128,-1,35
 214 71 214 71 257 71 c 2,36,-1
 296 71 l 2,37,38
 362 71 362 71 402.5 61 c 128,-1,39
 443 51 443 51 465 20.5 c 128,-1,40
 487 -10 487 -10 487 -68 c 0,41,42
 487 -155 487 -155 433 -195 c 128,-1,43
 379 -235 379 -235 255 -235 c 0,44,0
 143 -235 143 -235 96.5 -201.5 c 128,-1,1
332 255 m 128,-1,46
 358 280 358 280 358 340 c 0,47,48
 358 399 358 399 332 424 c 128,-1,49
 306 449 306 449 246 449 c 0,50,51
 184 449 184 449 157.5 423.5 c 128,-1,52
 131 398 131 398 131 339 c 256,53,54
 131 280 131 280 157.5 255 c 128,-1,55
 184 230 184 230 245 230 c 256,56,45
 306 230 306 230 332 255 c 128,-1,46
378 -149.5 m 128,-1,58
 411 -127 411 -127 411 -72 c 0,59,60
 411 -40 411 -40 400 -23.5 c 128,-1,61
 389 -7 389 -7 363 -1 c 128,-1,62
 337 5 337 5 288 5 c 2,63,-1
 180 10 l 1,64,65
 147 -14 147 -14 135.5 -32 c 128,-1,66
 124 -50 124 -50 124 -80 c 0,67,68
 124 -132 124 -132 154.5 -152 c 128,-1,69
 185 -172 185 -172 262 -172 c 0,70,57
 345 -172 345 -172 378 -149.5 c 128,-1,58
EndSplineSet
Validated: 1
EndChar

StartChar: h
Encoding: 73 104 73
Width: 537
Flags: W
LayerCount: 2
Fore
SplineSet
72 718 m 1,0,-1
 147 718 l 1,1,-1
 147 472 l 1,2,3
 191 492 191 492 228.5 501 c 128,-1,4
 266 510 266 510 305 510 c 0,5,6
 370 510 370 510 405.5 486.5 c 128,-1,7
 441 463 441 463 455.5 410 c 128,-1,8
 470 357 470 357 470 264 c 2,9,-1
 470 0 l 1,10,-1
 395 0 l 1,11,-1
 395 262 l 2,12,13
 395 336 395 336 386.5 373.5 c 128,-1,14
 378 411 378 411 354.5 427 c 128,-1,15
 331 443 331 443 285 443 c 0,16,17
 228 443 228 443 166 420 c 2,18,-1
 147 413 l 1,19,-1
 147 0 l 1,20,-1
 72 0 l 1,21,-1
 72 718 l 1,0,-1
EndSplineSet
Validated: 1
EndChar

StartChar: i
Encoding: 74 105 74
Width: 218
Flags: W
LayerCount: 2
Fore
SplineSet
72 0 m 1024,0,-1
72 500 m 1,1,-1
 146 500 l 1,2,-1
 146 0 l 1,3,-1
 72 0 l 1,4,-1
 72 500 l 1,1,-1
72 700 m 1,5,-1
 146 700 l 1,6,-1
 146 613 l 1,7,-1
 72 613 l 1,8,-1
 72 700 l 1,5,-1
EndSplineSet
Validated: 1
EndChar

StartChar: j
Encoding: 75 106 75
Width: 219
Flags: W
LayerCount: 2
Fore
SplineSet
0 0 m 1024,0,-1
-49 -165 m 1,1,2
 5 -134 5 -134 30 -111.5 c 128,-1,3
 55 -89 55 -89 64 -62 c 128,-1,4
 73 -35 73 -35 73 13 c 2,5,-1
 73 500 l 1,6,-1
 147 500 l 1,7,-1
 147 12 l 2,8,9
 147 -51 147 -51 133 -89.5 c 128,-1,10
 119 -128 119 -128 84.5 -158 c 128,-1,11
 50 -188 50 -188 -19 -223 c 1,12,-1
 -49 -165 l 1,1,2
73 700 m 1,13,-1
 147 700 l 1,14,-1
 147 613 l 1,15,-1
 73 613 l 1,16,-1
 73 700 l 1,13,-1
EndSplineSet
Validated: 1
EndChar

StartChar: k
Encoding: 76 107 76
Width: 479
Flags: W
LayerCount: 2
Fore
SplineSet
72 718 m 1,0,-1
 147 718 l 1,1,-1
 147 294 l 1,2,-1
 225 298 l 1,3,-1
 368 500 l 1,4,-1
 453 500 l 1,5,-1
 290 270 l 1,6,-1
 460 0 l 1,7,-1
 375 0 l 1,8,-1
 226 232 l 1,9,-1
 147 229 l 1,10,-1
 147 0 l 1,11,-1
 72 0 l 1,12,-1
 72 718 l 1,0,-1
EndSplineSet
Validated: 1
EndChar

StartChar: l
Encoding: 77 108 77
Width: 231
Flags: W
LayerCount: 2
Fore
SplineSet
78 718 m 1,0,-1
 153 718 l 1,1,-1
 153 0 l 1,2,-1
 78 0 l 1,3,-1
 78 718 l 1,0,-1
EndSplineSet
Validated: 1
EndChar

StartChar: m
Encoding: 78 109 78
Width: 836
Flags: W
LayerCount: 2
Fore
SplineSet
72 500 m 1,0,-1
 146 500 l 1,1,-1
 146 465 l 1,2,3
 221 510 221 510 296 510 c 0,4,5
 337 510 337 510 370 497.5 c 128,-1,6
 403 485 403 485 422 459 c 1,7,8
 459 481 459 481 509 495.5 c 128,-1,9
 559 510 559 510 611 510 c 0,10,11
 672 510 672 510 706 485.5 c 128,-1,12
 740 461 740 461 754.5 408 c 128,-1,13
 769 355 769 355 769 264 c 2,14,-1
 769 0 l 1,15,-1
 694 0 l 1,16,-1
 694 262 l 2,17,18
 694 333 694 333 686 371 c 128,-1,19
 678 409 678 409 656.5 426 c 128,-1,20
 635 443 635 443 593 443 c 0,21,22
 559 443 559 443 524 434.5 c 128,-1,23
 489 426 489 426 467 415 c 2,24,-1
 448 406 l 1,25,26
 461 374 461 374 461 260 c 2,27,-1
 461 0 l 1,28,-1
 386 0 l 1,29,-1
 386 258 l 2,30,31
 386 332 386 332 378 370.5 c 128,-1,32
 370 409 370 409 349 426 c 128,-1,33
 328 443 328 443 286 443 c 0,34,35
 253 443 253 443 219 434.5 c 128,-1,36
 185 426 185 426 164 415 c 2,37,-1
 147 406 l 1,38,-1
 147 0 l 1,39,-1
 72 0 l 1,40,-1
 72 500 l 1,0,-1
EndSplineSet
Validated: 1
EndChar

StartChar: n
Encoding: 79 110 79
Width: 537
Flags: W
LayerCount: 2
Fore
SplineSet
72 500 m 1,0,-1
 146 500 l 1,1,-1
 146 465 l 1,2,3
 191 490 191 490 228.5 500 c 128,-1,4
 266 510 266 510 307 510 c 0,5,6
 371 510 371 510 406 486 c 128,-1,7
 441 462 441 462 455.5 409.5 c 128,-1,8
 470 357 470 357 470 264 c 2,9,-1
 470 0 l 1,10,-1
 396 0 l 1,11,-1
 396 262 l 2,12,13
 396 333 396 333 387.5 371 c 128,-1,14
 379 409 379 409 357 426 c 128,-1,15
 335 443 335 443 293 443 c 0,16,17
 259 443 259 443 223.5 434.5 c 128,-1,18
 188 426 188 426 166 415 c 2,19,-1
 147 406 l 1,20,-1
 147 0 l 1,21,-1
 72 0 l 1,22,-1
 72 500 l 1,0,-1
EndSplineSet
Validated: 1
EndChar

StartChar: o
Encoding: 80 111 80
Width: 528
Flags: W
LayerCount: 2
Fore
SplineSet
137 16.5 m 128,-1,1
 90 43 90 43 70 99 c 128,-1,2
 50 155 50 155 50 247 c 0,3,4
 50 342 50 342 71 399.5 c 128,-1,5
 92 457 92 457 139 483.5 c 128,-1,6
 186 510 186 510 264 510 c 0,7,8
 343 510 343 510 389.5 483 c 128,-1,9
 436 456 436 456 457 399 c 128,-1,10
 478 342 478 342 478 247 c 0,11,12
 478 155 478 155 458 99 c 128,-1,13
 438 43 438 43 391.5 16.5 c 128,-1,14
 345 -10 345 -10 264 -10 c 0,15,0
 184 -10 184 -10 137 16.5 c 128,-1,1
349 73.5 m 128,-1,17
 378 92 378 92 389.5 132.5 c 128,-1,18
 401 173 401 173 401 247 c 0,19,20
 401 325 401 325 389 367 c 128,-1,21
 377 409 377 409 348 427 c 128,-1,22
 319 445 319 445 265 445 c 256,23,24
 211 445 211 445 181.5 427 c 128,-1,25
 152 409 152 409 139.5 367 c 128,-1,26
 127 325 127 325 127 247 c 0,27,28
 127 174 127 174 138.5 133 c 128,-1,29
 150 92 150 92 179.5 73.5 c 128,-1,30
 209 55 209 55 265 55 c 0,31,16
 320 55 320 55 349 73.5 c 128,-1,17
EndSplineSet
Validated: 1
Substitution2: "Single Substitution lookup 16 subtable" ordmasculine
Substitution2: "'aalt' Access All Alternates lookup 0 subtable" ordmasculine
EndChar

StartChar: p
Encoding: 81 112 81
Width: 527
Flags: W
LayerCount: 2
Fore
SplineSet
72 500 m 1,0,-1
 146 500 l 1,1,-1
 146 464 l 1,2,3
 185 487 185 487 221.5 498.5 c 128,-1,4
 258 510 258 510 299 510 c 0,5,6
 392 510 392 510 434.5 448.5 c 128,-1,7
 477 387 477 387 477 253 c 0,8,9
 477 158 477 158 455 100.5 c 128,-1,10
 433 43 433 43 385 16.5 c 128,-1,11
 337 -10 337 -10 256 -10 c 0,12,13
 200 -10 200 -10 147 1 c 1,14,-1
 147 -222 l 1,15,-1
 72 -222 l 1,16,-1
 72 500 l 1,0,-1
368 101 m 128,-1,18
 401 147 401 147 401 250 c 0,19,20
 401 352 401 352 372.5 397.5 c 128,-1,21
 344 443 344 443 286 443 c 0,22,23
 257 443 257 443 223.5 433.5 c 128,-1,24
 190 424 190 424 166 413 c 2,25,-1
 147 403 l 1,26,-1
 147 66 l 1,27,28
 221 55 221 55 257 55 c 0,29,17
 335 55 335 55 368 101 c 128,-1,18
EndSplineSet
Validated: 1
EndChar

StartChar: q
Encoding: 82 113 82
Width: 526
Flags: W
LayerCount: 2
Fore
SplineSet
379 23 m 1,0,1
 309 -10 309 -10 235 -10 c 0,2,3
 137 -10 137 -10 93.5 49.5 c 128,-1,4
 50 109 50 109 50 246 c 0,5,6
 50 343 50 343 72.5 400.5 c 128,-1,7
 95 458 95 458 146 484 c 128,-1,8
 197 510 197 510 286 510 c 1,9,-1
 453 500 l 1,10,-1
 453 -222 l 1,11,-1
 379 -222 l 1,12,-1
 379 23 l 1,0,1
361 79 m 2,14,-1
 379 86 l 1,15,-1
 379 439 l 1,16,17
 318 445 318 445 285 445 c 0,18,19
 223 445 223 445 188.5 424 c 128,-1,20
 154 403 154 403 140 360 c 128,-1,21
 126 317 126 317 126 245 c 0,22,23
 126 143 126 143 154 100 c 128,-1,24
 182 57 182 57 250 57 c 0,25,13
 305 57 305 57 361 79 c 2,14,-1
EndSplineSet
Validated: 1
EndChar

StartChar: r
Encoding: 83 114 83
Width: 346
Flags: W
LayerCount: 2
Fore
SplineSet
72 500 m 1,0,-1
 146 500 l 1,1,-1
 146 432 l 1,2,3
 232 491 232 491 329 511 c 1,4,-1
 329 435 l 1,5,6
 290 427 290 427 244.5 410.5 c 128,-1,7
 199 394 199 394 172 380 c 2,8,-1
 147 367 l 1,9,-1
 147 0 l 1,10,-1
 72 0 l 1,11,-1
 72 500 l 1,0,-1
EndSplineSet
Validated: 1
EndChar

StartChar: s
Encoding: 84 115 84
Width: 465
Flags: W
LayerCount: 2
Fore
SplineSet
82 4 m 2,1,-1
 52 9 l 1,2,-1
 56 74 l 1,3,4
 173 57 173 57 228 57 c 0,5,6
 288 57 288 57 317.5 76.5 c 128,-1,7
 347 96 347 96 347 139 c 0,8,9
 347 170 347 170 332.5 186 c 128,-1,10
 318 202 318 202 295.5 209 c 128,-1,11
 273 216 273 216 232 222 c 2,12,-1
 207 226 l 2,13,14
 147 236 147 236 113 250 c 128,-1,15
 79 264 79 264 62 289.5 c 128,-1,16
 45 315 45 315 45 360 c 0,17,18
 45 441 45 441 94 475 c 128,-1,19
 143 509 143 509 233 509 c 0,20,21
 304 509 304 509 378 496 c 2,22,-1
 406 491 l 1,23,-1
 404 427 l 1,24,25
 296 443 296 443 235 443 c 0,26,27
 177 443 177 443 148.5 425 c 128,-1,28
 120 407 120 407 120 369 c 0,29,30
 120 342 120 342 134 327.5 c 128,-1,31
 148 313 148 313 170.5 306.5 c 128,-1,32
 193 300 193 300 234 293 c 2,33,-1
 259 288 l 2,34,35
 321 277 321 277 355 262.5 c 128,-1,36
 389 248 389 248 405.5 221 c 128,-1,37
 422 194 422 194 422 146 c 0,38,39
 422 65 422 65 374.5 27.5 c 128,-1,40
 327 -10 327 -10 229 -10 c 0,41,0
 169 -10 169 -10 82 4 c 2,1,-1
EndSplineSet
Validated: 1
EndChar

StartChar: t
Encoding: 85 116 85
Width: 351
Flags: W
LayerCount: 2
Fore
SplineSet
151.5 5.5 m 128,-1,1
 123 22 123 22 110.5 61.5 c 128,-1,2
 98 101 98 101 98 172 c 2,3,-1
 98 435 l 1,4,-1
 27 435 l 1,5,-1
 27 500 l 1,6,-1
 98 500 l 1,7,-1
 98 653 l 1,8,-1
 172 653 l 1,9,-1
 172 500 l 1,10,-1
 331 500 l 1,11,-1
 331 435 l 1,12,-1
 172 435 l 1,13,-1
 172 196 l 2,14,15
 172 140 172 140 176 112.5 c 128,-1,16
 180 85 180 85 195.5 70.5 c 128,-1,17
 211 56 211 56 244 56 c 2,18,-1
 333 62 l 1,19,-1
 338 0 l 1,20,21
 267 -11 267 -11 231 -11 c 0,22,0
 180 -11 180 -11 151.5 5.5 c 128,-1,1
EndSplineSet
Validated: 1
EndChar

StartChar: u
Encoding: 86 117 86
Width: 531
Flags: W
LayerCount: 2
Fore
SplineSet
129.5 13.5 m 128,-1,1
 95 37 95 37 81 90 c 128,-1,2
 67 143 67 143 67 239 c 2,3,-1
 67 500 l 1,4,-1
 142 500 l 1,5,-1
 142 240 l 2,6,7
 142 165 142 165 150 127 c 128,-1,8
 158 89 158 89 179 73 c 128,-1,9
 200 57 200 57 244 57 c 0,10,11
 312 57 312 57 384 94 c 1,12,-1
 384 500 l 1,13,-1
 459 500 l 1,14,-1
 459 0 l 1,15,-1
 384 0 l 1,16,-1
 384 35 l 1,17,18
 343 11 343 11 308 0.5 c 128,-1,19
 273 -10 273 -10 228 -10 c 0,20,0
 164 -10 164 -10 129.5 13.5 c 128,-1,1
EndSplineSet
Validated: 1
EndChar

StartChar: v
Encoding: 87 118 87
Width: 481
Flags: W
LayerCount: 2
Fore
SplineSet
25 500 m 1,0,-1
 105 500 l 1,1,-1
 222 65 l 1,2,-1
 259 65 l 1,3,-1
 380 500 l 1,4,-1
 457 500 l 1,5,-1
 316 0 l 1,6,-1
 166 0 l 1,7,-1
 25 500 l 1,0,-1
EndSplineSet
Validated: 1
EndChar

StartChar: w
Encoding: 88 119 88
Width: 762
Flags: W
LayerCount: 2
Fore
SplineSet
31 500 m 1,0,-1
 106 500 l 1,1,-1
 207 65 l 1,2,-1
 223 65 l 1,3,-1
 342 490 l 1,4,-1
 420 490 l 1,5,-1
 539 65 l 1,6,-1
 556 65 l 1,7,-1
 656 500 l 1,8,-1
 731 500 l 1,9,-1
 612 0 l 1,10,-1
 487 0 l 1,11,-1
 381 391 l 1,12,-1
 275 0 l 1,13,-1
 150 0 l 1,14,-1
 31 500 l 1,0,-1
EndSplineSet
Validated: 1
EndChar

StartChar: x
Encoding: 89 120 89
Width: 452
Flags: W
LayerCount: 2
Fore
SplineSet
179 250 m 1,0,-1
 22 500 l 1,1,-1
 104 500 l 1,2,-1
 226 304 l 1,3,-1
 348 500 l 1,4,-1
 430 500 l 1,5,-1
 271 252 l 1,6,-1
 429 0 l 1,7,-1
 347 0 l 1,8,-1
 226 195 l 1,9,-1
 104 0 l 1,10,-1
 22 0 l 1,11,-1
 179 250 l 1,0,-1
EndSplineSet
Validated: 1
EndChar

StartChar: y
Encoding: 90 121 90
Width: 483
Flags: W
LayerCount: 2
Fore
SplineSet
241 0 m 1,0,-1
 167 0 l 1,1,-1
 25 500 l 1,2,-1
 100 500 l 1,3,-1
 225 65 l 1,4,-1
 258 65 l 1,5,-1
 384 500 l 1,6,-1
 459 500 l 1,7,-1
 251 -222 l 1,8,-1
 176 -222 l 1,9,-1
 241 0 l 1,0,-1
EndSplineSet
Validated: 1
EndChar

StartChar: z
Encoding: 91 122 91
Width: 455
Flags: W
LayerCount: 2
Fore
SplineSet
42 67 m 1,0,-1
 322 433 l 1,1,-1
 42 433 l 1,2,-1
 42 500 l 1,3,-1
 413 500 l 1,4,-1
 413 433 l 1,5,-1
 133 67 l 1,6,-1
 413 67 l 1,7,-1
 413 0 l 1,8,-1
 42 0 l 1,9,-1
 42 67 l 1,0,-1
EndSplineSet
Validated: 1
EndChar

StartChar: braceleft
Encoding: 92 123 92
Width: 352
Flags: W
LayerCount: 2
Fore
SplineSet
166.5 -83.5 m 128,-1,1
 124 -43 124 -43 124 47 c 1,2,-1
 131 169 l 2,3,4
 131 212 131 212 106 238.5 c 128,-1,5
 81 265 81 265 24 281 c 1,6,-1
 24 342 l 1,7,8
 80 355 80 355 105.5 381.5 c 128,-1,9
 131 408 131 408 131 451 c 2,10,-1
 124 579 l 1,11,12
 124 671 124 671 166.5 711 c 128,-1,13
 209 751 209 751 311 755 c 1,14,-1
 312 690 l 1,15,16
 248 686 248 686 222.5 659.5 c 128,-1,17
 197 633 197 633 197 575 c 2,18,-1
 204 452 l 2,19,20
 204 408 204 408 195 382.5 c 128,-1,21
 186 357 186 357 163.5 340.5 c 128,-1,22
 141 324 141 324 99 312 c 1,23,24
 159 294 159 294 181.5 263.5 c 128,-1,25
 204 233 204 233 204 170 c 2,26,-1
 197 54 l 2,27,28
 197 -4 197 -4 222.5 -31.5 c 128,-1,29
 248 -59 248 -59 312 -63 c 1,30,-1
 310 -128 l 1,31,0
 209 -124 209 -124 166.5 -83.5 c 128,-1,1
EndSplineSet
Validated: 1
EndChar

StartChar: bar
Encoding: 93 124 93
Width: 230
Flags: W
LayerCount: 2
Fore
SplineSet
78 718 m 1,0,-1
 152 718 l 1,1,-1
 152 -222 l 1,2,-1
 78 -222 l 1,3,-1
 78 718 l 1,0,-1
EndSplineSet
Validated: 1
EndChar

StartChar: braceright
Encoding: 94 125 94
Width: 352
Flags: W
LayerCount: 2
Fore
SplineSet
40 -63 m 1,0,1
 104 -59 104 -59 129.5 -31.5 c 128,-1,2
 155 -4 155 -4 155 54 c 2,3,-1
 148 170 l 2,4,5
 148 233 148 233 170.5 263.5 c 128,-1,6
 193 294 193 294 253 312 c 1,7,8
 211 324 211 324 188.5 340.5 c 128,-1,9
 166 357 166 357 157 382.5 c 128,-1,10
 148 408 148 408 148 452 c 2,11,-1
 155 575 l 2,12,13
 155 633 155 633 129.5 659.5 c 128,-1,14
 104 686 104 686 40 690 c 1,15,-1
 41 755 l 1,16,17
 143 751 143 751 185.5 711 c 128,-1,18
 228 671 228 671 228 579 c 1,19,-1
 221 451 l 2,20,21
 221 408 221 408 246.5 381.5 c 128,-1,22
 272 355 272 355 328 342 c 1,23,-1
 328 281 l 1,24,25
 271 265 271 265 246 238.5 c 128,-1,26
 221 212 221 212 221 169 c 2,27,-1
 228 47 l 1,28,29
 228 -43 228 -43 185.5 -83.5 c 128,-1,30
 143 -124 143 -124 42 -128 c 1,31,-1
 40 -63 l 1,0,1
EndSplineSet
Validated: 1
EndChar

StartChar: asciitilde
Encoding: 95 126 95
Width: 560
Flags: W
LayerCount: 2
Fore
SplineSet
277 226 m 0,1,2
 202 257 202 257 183 257 c 0,3,4
 166 257 166 257 140 246 c 128,-1,5
 114 235 114 235 95 222 c 2,6,-1
 78 210 l 1,7,-1
 67 272 l 1,8,9
 129 325 129 325 183 325 c 0,10,11
 212 325 212 325 287 295 c 0,12,13
 359 264 359 264 380 264 c 0,14,15
 416 264 416 264 468 298 c 2,16,-1
 485 310 l 1,17,-1
 495 249 l 1,18,19
 432 195 432 195 379 195 c 0,20,0
 351 195 351 195 277 226 c 0,1,2
EndSplineSet
Validated: 1
EndChar

StartChar: exclamdown
Encoding: 97 161 97
Width: 228
Flags: W
LayerCount: 2
Fore
SplineSet
154 500 m 1,0,-1
 154 388 l 1,1,-1
 72 388 l 1,2,-1
 72 500 l 1,3,-1
 154 500 l 1,0,-1
147 272 m 1,4,-1
 152 -192 l 1,5,-1
 73 -192 l 1,6,-1
 78 272 l 1,7,-1
 147 272 l 1,4,-1
EndSplineSet
Validated: 1
EndChar

StartChar: cent
Encoding: 98 162 98
Width: 560
Flags: W
LayerCount: 2
Fore
SplineSet
278 36 m 1,0,1
 184 41 184 41 142.5 89 c 128,-1,2
 101 137 101 137 101 246 c 0,3,4
 101 356 101 356 144 408 c 128,-1,5
 187 460 187 460 278 465 c 1,6,-1
 278 583 l 1,7,-1
 343 583 l 1,8,-1
 343 462 l 1,9,-1
 444 450 l 1,10,-1
 441 390 l 1,11,12
 367 397 367 397 312 397 c 0,13,14
 238 397 238 397 208.5 363.5 c 128,-1,15
 179 330 179 330 179 248 c 0,16,17
 179 192 179 192 191.5 161 c 128,-1,18
 204 130 204 130 234 116.5 c 128,-1,19
 264 103 264 103 318 103 c 2,20,-1
 442 110 l 1,21,-1
 445 49 l 1,22,23
 381 39 381 39 343 38 c 1,24,-1
 343 -81 l 1,25,-1
 278 -81 l 1,26,-1
 278 36 l 1,0,1
EndSplineSet
Validated: 1
EndChar

StartChar: sterling
Encoding: 99 163 99
Width: 560
Flags: W
LayerCount: 2
Fore
SplineSet
80 66 m 1,0,-1
 165 66 l 1,1,-1
 165 352 l 1,2,-1
 98 352 l 1,3,-1
 98 417 l 1,4,-1
 165 417 l 1,5,-1
 165 472 l 2,6,7
 165 550 165 550 179.5 592.5 c 128,-1,8
 194 635 194 635 225.5 652.5 c 128,-1,9
 257 670 257 670 313 670 c 0,10,11
 366 670 366 670 424 658 c 2,12,-1
 446 653 l 1,13,-1
 445 592 l 1,14,15
 362 603 362 603 319 603 c 0,16,17
 287 603 287 603 270 591 c 128,-1,18
 253 579 253 579 245.5 550 c 128,-1,19
 238 521 238 521 238 467 c 2,20,-1
 238 417 l 1,21,-1
 409 417 l 1,22,-1
 409 352 l 1,23,-1
 238 352 l 1,24,-1
 238 66 l 1,25,-1
 392 66 l 1,26,-1
 469 82 l 1,27,-1
 482 18 l 1,28,-1
 400 0 l 1,29,-1
 80 0 l 1,30,-1
 80 66 l 1,0,-1
EndSplineSet
Validated: 1
EndChar

StartChar: currency
Encoding: 100 164 100
Width: 560
Flags: W
LayerCount: 2
Fore
SplineSet
58 83 m 1,0,-1
 128 153 l 1,1,2
 99 199 99 199 99 251 c 0,3,4
 99 304 99 304 128 351 c 1,5,-1
 58 421 l 1,6,-1
 111 474 l 1,7,-1
 181 403 l 1,8,9
 225 433 225 433 279 433 c 256,10,11
 333 433 333 433 379 403 c 1,12,-1
 449 474 l 1,13,-1
 502 421 l 1,14,-1
 431 351 l 1,15,16
 461 305 461 305 461 251 c 256,17,18
 461 197 461 197 431 153 c 1,19,-1
 502 83 l 1,20,-1
 449 30 l 1,21,-1
 379 101 l 1,22,23
 333 71 333 71 279 71 c 256,24,25
 225 71 225 71 181 101 c 1,26,-1
 111 30 l 1,27,-1
 58 83 l 1,0,-1
361 171 m 128,-1,29
 395 205 395 205 395 252 c 256,30,31
 395 299 395 299 361 333 c 128,-1,32
 327 367 327 367 280 367 c 256,33,34
 233 367 233 367 199 333 c 128,-1,35
 165 299 165 299 165 252 c 256,36,37
 165 205 165 205 199 171 c 256,38,39
 233 137 233 137 280 137 c 256,40,28
 327 137 327 137 361 171 c 128,-1,29
EndSplineSet
Validated: 1
EndChar

StartChar: yen
Encoding: 101 165 101
Width: 560
Flags: W
LayerCount: 2
Fore
SplineSet
243 163 m 1,0,-1
 58 163 l 1,1,-1
 58 228 l 1,2,-1
 243 228 l 1,3,-1
 243 315 l 1,4,-1
 57 315 l 1,5,-1
 57 380 l 1,6,-1
 197 380 l 1,7,-1
 23 660 l 1,8,-1
 109 660 l 1,9,-1
 281 390 l 1,10,-1
 451 660 l 1,11,-1
 537 660 l 1,12,-1
 366 380 l 1,13,-1
 502 380 l 1,14,-1
 502 315 l 1,15,-1
 320 315 l 1,16,-1
 320 228 l 1,17,-1
 503 228 l 1,18,-1
 503 163 l 1,19,-1
 320 163 l 1,20,-1
 320 0 l 1,21,-1
 243 0 l 1,22,-1
 243 163 l 1,0,-1
EndSplineSet
Validated: 1
EndChar

StartChar: brokenbar
Encoding: 102 166 102
Width: 234
Flags: W
LayerCount: 2
Fore
SplineSet
80 718 m 1,0,-1
 154 718 l 1,1,-1
 154 344 l 1,2,-1
 80 344 l 1,3,-1
 80 718 l 1,0,-1
80 156 m 1,4,-1
 154 156 l 1,5,-1
 154 -222 l 1,6,-1
 80 -222 l 1,7,-1
 80 156 l 1,4,-1
EndSplineSet
Validated: 1
EndChar

StartChar: section
Encoding: 103 167 103
Width: 499
Flags: W
LayerCount: 2
Fore
SplineSet
100 -138 m 2,1,-1
 70 -133 l 1,2,-1
 77 -70 l 1,3,4
 187 -85 187 -85 241 -85 c 0,5,6
 364 -85 364 -85 364 14 c 0,7,8
 364 58 364 58 335 75 c 0,9,10
 305 91 305 91 218 107 c 0,11,12
 157 118 157 118 121.5 135 c 128,-1,13
 86 152 86 152 69 180.5 c 128,-1,14
 52 209 52 209 52 255 c 0,15,16
 52 290 52 290 71.5 328 c 128,-1,17
 91 366 91 366 110 381 c 1,18,19
 66 413 66 413 66 492 c 0,20,21
 66 651 66 651 258 651 c 0,22,23
 312 651 312 651 396 638 c 2,24,-1
 422 634 l 1,25,-1
 418 571 l 1,26,27
 308 586 308 586 253 586 c 0,28,29
 196 586 196 586 167.5 563.5 c 128,-1,30
 139 541 139 541 139 494 c 0,31,32
 139 462 139 462 152 444 c 128,-1,33
 165 426 165 426 195 415 c 128,-1,34
 225 404 225 404 285 393 c 0,35,36
 344 382 344 382 377.5 366.5 c 128,-1,37
 411 351 411 351 427 323.5 c 128,-1,38
 443 296 443 296 443 251 c 0,39,40
 443 183 443 183 399 118 c 1,41,42
 436 87 436 87 436 18 c 0,43,44
 436 -150 436 -150 245 -150 c 0,45,0
 181 -150 181 -150 100 -138 c 2,1,-1
358 185.5 m 128,-1,47
 367 216 367 216 367 248 c 0,48,49
 367 284 367 284 342 302 c 128,-1,50
 317 320 317 320 252 332 c 0,51,52
 191 342 191 342 160 354 c 1,53,54
 127 299 127 299 127 261 c 0,55,56
 127 222 127 222 152 203 c 128,-1,57
 177 184 177 184 245 172 c 0,58,59
 316 158 316 158 342 146 c 1,60,46
 349 155 349 155 358 185.5 c 128,-1,47
EndSplineSet
Validated: 1
EndChar

StartChar: dieresis
Encoding: 104 168 104
Width: 236
Flags: W
LayerCount: 2
Fore
SplineSet
-12 711 m 1,0,-1
 60 711 l 1,1,-1
 60 621 l 1,2,-1
 -12 621 l 1,3,-1
 -12 711 l 1,0,-1
188 711 m 1,4,-1
 261 711 l 1,5,-1
 261 621 l 1,6,-1
 188 621 l 1,7,-1
 188 711 l 1,4,-1
EndSplineSet
Validated: 1
EndChar

StartChar: copyright
Encoding: 105 169 105
Width: 645
Flags: W
LayerCount: 2
Fore
SplineSet
188.5 197 m 128,-1,1
 128 233 128 233 93.5 296 c 128,-1,2
 59 359 59 359 59 435 c 256,3,4
 59 511 59 511 93.5 573 c 128,-1,5
 128 635 128 635 188 671 c 128,-1,6
 248 707 248 707 323 707 c 256,7,8
 398 707 398 707 458 670.5 c 128,-1,9
 518 634 518 634 552 571.5 c 128,-1,10
 586 509 586 509 586 433 c 256,11,12
 586 357 586 357 552 295 c 128,-1,13
 518 233 518 233 458.5 197 c 128,-1,14
 399 161 399 161 324 161 c 256,15,0
 249 161 249 161 188.5 197 c 128,-1,1
433.5 235.5 m 128,-1,17
 484 266 484 266 513 318.5 c 128,-1,18
 542 371 542 371 542 434 c 256,19,20
 542 497 542 497 513 550 c 128,-1,21
 484 603 484 603 434 633.5 c 128,-1,22
 384 664 384 664 323 664 c 0,23,24
 229 664 229 664 166 597 c 256,25,26
 103 530 103 530 103 434 c 0,27,28
 103 371 103 371 131.5 318.5 c 128,-1,29
 160 266 160 266 210.5 235.5 c 128,-1,30
 261 205 261 205 322 205 c 256,31,16
 383 205 383 205 433.5 235.5 c 128,-1,17
235.5 313 m 128,-1,33
 209 350 209 350 209 434 c 256,34,35
 209 518 209 518 236 554.5 c 128,-1,36
 263 591 263 591 327 591 c 0,37,38
 366 591 366 591 394 584 c 2,39,-1
 404 581 l 1,40,-1
 400 528 l 1,41,42
 363 534 363 534 328 534 c 0,43,44
 294 534 294 534 282 512.5 c 128,-1,45
 270 491 270 491 270 436 c 0,46,47
 270 380 270 380 283 356.5 c 128,-1,48
 296 333 296 333 330 333 c 2,49,-1
 400 340 l 1,50,-1
 404 288 l 1,51,52
 367 276 367 276 326 276 c 0,53,32
 262 276 262 276 235.5 313 c 128,-1,33
EndSplineSet
Validated: 1
EndChar

StartChar: ordfeminine
Encoding: 106 170 106
Width: 386
GlyphClass: 2
Flags: W
LayerCount: 2
Fore
SplineSet
77.5 381.5 m 128,-1,1
 54 406 54 406 54 449 c 0,2,3
 54 529 54 529 150 535 c 2,4,-1
 238 541 l 1,5,-1
 238 563 l 2,6,7
 238 584 238 584 226 593.5 c 128,-1,8
 214 603 214 603 189 603 c 2,9,-1
 74 596 l 1,10,-1
 72 644 l 1,11,12
 141 659 141 659 195 659 c 0,13,14
 250 659 250 659 276 636.5 c 128,-1,15
 302 614 302 614 302 560 c 2,16,-1
 302 423 l 1,17,18
 312 412 312 412 332 406 c 1,19,-1
 330 357 l 1,20,21
 293 357 293 357 276.5 362.5 c 128,-1,22
 260 368 260 368 247 383 c 1,23,24
 190 357 190 357 146 357 c 0,25,0
 101 357 101 357 77.5 381.5 c 128,-1,1
238 428 m 1,27,-1
 238 495 l 1,28,-1
 161 490 l 2,29,30
 139 488 139 488 129.5 479 c 128,-1,31
 120 470 120 470 120 450 c 0,32,33
 120 411 120 411 156 411 c 0,34,26
 187 411 187 411 238 428 c 1,27,-1
EndSplineSet
Validated: 1
EndChar

StartChar: guillemotleft
Encoding: 107 171 107
Width: 539
Flags: W
LayerCount: 2
Fore
SplineSet
45 218 m 1,0,-1
 45 278 l 1,1,-1
 234 421 l 1,2,-1
 234 344 l 1,3,-1
 110 250 l 1,4,-1
 234 145 l 1,5,-1
 234 67 l 1,6,-1
 45 218 l 1,0,-1
283 218 m 1,7,-1
 283 278 l 1,8,-1
 472 421 l 1,9,-1
 472 344 l 1,10,-1
 348 250 l 1,11,-1
 472 145 l 1,12,-1
 472 67 l 1,13,-1
 283 218 l 1,7,-1
EndSplineSet
Validated: 1
EndChar

StartChar: logicalnot
Encoding: 108 172 108
Width: 560
Flags: W
LayerCount: 2
Fore
SplineSet
423 274 m 1,0,-1
 65 274 l 1,1,-1
 65 342 l 1,2,-1
 493 342 l 1,3,-1
 493 117 l 1,4,-1
 423 117 l 1,5,-1
 423 274 l 1,0,-1
EndSplineSet
Validated: 1
EndChar

StartChar: registered
Encoding: 109 174 109
Width: 645
Flags: W
LayerCount: 2
Fore
SplineSet
188.5 197 m 128,-1,1
 128 233 128 233 93.5 296 c 128,-1,2
 59 359 59 359 59 435 c 256,3,4
 59 511 59 511 93.5 573 c 128,-1,5
 128 635 128 635 188 671 c 128,-1,6
 248 707 248 707 323 707 c 256,7,8
 398 707 398 707 458 671 c 128,-1,9
 518 635 518 635 552 572.5 c 128,-1,10
 586 510 586 510 586 434 c 256,11,12
 586 358 586 358 552 295.5 c 128,-1,13
 518 233 518 233 458.5 197 c 128,-1,14
 399 161 399 161 324 161 c 256,15,0
 249 161 249 161 188.5 197 c 128,-1,1
434 235.5 m 128,-1,17
 484 266 484 266 513 318.5 c 128,-1,18
 542 371 542 371 542 434 c 256,19,20
 542 497 542 497 513 550 c 128,-1,21
 484 603 484 603 434 633.5 c 128,-1,22
 384 664 384 664 323 664 c 256,23,24
 262 664 262 664 211.5 633.5 c 128,-1,25
 161 603 161 603 132 550.5 c 128,-1,26
 103 498 103 498 103 435 c 256,27,28
 103 372 103 372 132 319 c 128,-1,29
 161 266 161 266 211.5 235.5 c 128,-1,30
 262 205 262 205 323 205 c 256,31,16
 384 205 384 205 434 235.5 c 128,-1,17
213 585 m 1,32,-1
 323 585 l 2,33,34
 437 585 437 585 437 497 c 0,35,36
 437 453 437 453 425.5 431.5 c 128,-1,37
 414 410 414 410 386 397 c 1,38,-1
 441 282 l 1,39,-1
 380 282 l 1,40,-1
 330 389 l 1,41,-1
 271 389 l 1,42,-1
 271 282 l 1,43,-1
 213 282 l 1,44,-1
 213 585 l 1,32,-1
329 436 m 2,45,46
 356 436 356 436 368 448 c 128,-1,47
 380 460 380 460 380 487 c 0,48,49
 380 538 380 538 318 538 c 2,50,-1
 270 538 l 1,51,-1
 270 436 l 1,52,-1
 329 436 l 2,45,46
EndSplineSet
Validated: 1
EndChar

StartChar: macron
Encoding: 110 175 110
Width: 236
Flags: W
LayerCount: 2
Fore
SplineSet
-14 683 m 1,0,-1
 261 683 l 1,1,-1
 261 624 l 1,2,-1
 -14 624 l 1,3,-1
 -14 683 l 1,0,-1
EndSplineSet
Validated: 1
EndChar

StartChar: degree
Encoding: 111 176 111
Width: 560
Flags: W
LayerCount: 2
Fore
SplineSet
177.5 459 m 128,-1,1
 138 498 138 498 138 561 c 256,2,3
 138 624 138 624 177.5 663 c 128,-1,4
 217 702 217 702 280 702 c 256,5,6
 343 702 343 702 382.5 663 c 128,-1,7
 422 624 422 624 422 561 c 256,8,9
 422 498 422 498 382.5 459 c 128,-1,10
 343 420 343 420 280 420 c 256,11,0
 217 420 217 420 177.5 459 c 128,-1,1
347 493.5 m 128,-1,13
 373 519 373 519 373 561 c 0,14,15
 373 602 373 602 347 628 c 128,-1,16
 321 654 321 654 280 654 c 256,17,18
 239 654 239 654 214 628 c 128,-1,19
 189 602 189 602 189 561 c 0,20,21
 189 519 189 519 214 493.5 c 128,-1,22
 239 468 239 468 280 468 c 256,23,12
 321 468 321 468 347 493.5 c 128,-1,13
EndSplineSet
Validated: 1
EndChar

StartChar: plusminus
Encoding: 112 177 112
Width: 560
Flags: W
LayerCount: 2
Fore
SplineSet
244 293 m 1,0,-1
 55 293 l 1,1,-1
 55 361 l 1,2,-1
 244 361 l 1,3,-1
 244 487 l 1,4,-1
 314 487 l 1,5,-1
 314 361 l 1,6,-1
 505 361 l 1,7,-1
 505 293 l 1,8,-1
 314 293 l 1,9,-1
 314 166 l 1,10,-1
 244 166 l 1,11,-1
 244 293 l 1,0,-1
55 106 m 1,12,-1
 505 106 l 1,13,-1
 505 38 l 1,14,-1
 55 38 l 1,15,-1
 55 106 l 1,12,-1
EndSplineSet
Validated: 1
EndChar

StartChar: uni00B2
Encoding: 113 178 113
Width: 280
GlyphClass: 2
Flags: W
LayerCount: 2
Fore
SplineSet
30 533 m 1,0,-1
 118 620 l 2,1,2
 169 670 169 670 169 703 c 0,3,4
 169 740 169 740 120 740 c 1,5,-1
 35 731 l 1,6,-1
 33 788 l 1,7,8
 91 800 91 800 140 800 c 0,9,10
 235 800 235 800 235 709 c 0,11,12
 235 677 235 677 221.5 652.5 c 128,-1,13
 208 628 208 628 174 597 c 2,14,-1
 111 536 l 1,15,-1
 239 536 l 1,16,-1
 239 478 l 1,17,-1
 30 478 l 1,18,-1
 30 533 l 1,0,-1
EndSplineSet
Validated: 1
EndChar

StartChar: uni00B3
Encoding: 114 179 114
Width: 280
GlyphClass: 2
Flags: W
LayerCount: 2
Fore
SplineSet
30 478 m 1,0,-1
 34 534 l 1,1,2
 95 526 95 526 138 526 c 0,3,4
 184 526 184 526 184 569 c 0,5,6
 184 611 184 611 137 611 c 2,7,-1
 72 611 l 1,8,-1
 72 664 l 1,9,-1
 137 664 l 2,10,11
 152 664 152 664 163.5 677 c 128,-1,12
 175 690 175 690 175 708 c 0,13,14
 175 742 175 742 130 742 c 2,15,-1
 38 735 l 1,16,-1
 34 790 l 1,17,18
 90 800 90 800 136 800 c 0,19,20
 241 800 241 800 241 716 c 0,21,22
 241 666 241 666 202 643 c 1,23,24
 227 634 227 634 238 617 c 128,-1,25
 249 600 249 600 249 565 c 0,26,27
 249 468 249 468 143 468 c 1,28,-1
 30 478 l 1,0,-1
EndSplineSet
Validated: 1
EndChar

StartChar: acute
Encoding: 115 180 115
Width: 268
Flags: W
LayerCount: 2
Fore
SplineSet
26 642 m 1,0,-1
 242 740 l 1,1,-1
 268 676 l 1,2,-1
 47 591 l 1,3,-1
 26 642 l 1,0,-1
EndSplineSet
Validated: 1
EndChar

StartChar: mu
Encoding: 116 181 116
Width: 560
Flags: W
LayerCount: 2
Fore
SplineSet
84 500 m 1,0,-1
 159 500 l 1,1,-1
 159 240 l 2,2,3
 159 164 159 164 167 126 c 128,-1,4
 175 88 175 88 197 72.5 c 128,-1,5
 219 57 219 57 264 57 c 0,6,7
 294 57 294 57 328 66 c 128,-1,8
 362 75 362 75 383 85 c 2,9,-1
 401 94 l 1,10,-1
 401 500 l 1,11,-1
 476 500 l 1,12,-1
 476 0 l 1,13,-1
 401 0 l 1,14,-1
 401 35 l 1,15,16
 326 -10 326 -10 261 -10 c 256,17,18
 196 -10 196 -10 159 7 c 1,19,-1
 159 -222 l 1,20,-1
 84 -222 l 1,21,-1
 84 500 l 1,0,-1
EndSplineSet
Validated: 1
EndChar

StartChar: paragraph
Encoding: 117 182 117
Width: 593
Flags: W
LayerCount: 2
Fore
SplineSet
228 324 m 1,0,-1
 221 324 l 2,1,2
 168 324 168 324 125.5 347 c 128,-1,3
 83 370 83 370 59 412 c 128,-1,4
 35 454 35 454 35 507 c 256,5,6
 35 560 35 560 59 602.5 c 128,-1,7
 83 645 83 645 126 668.5 c 128,-1,8
 169 692 169 692 222 692 c 2,9,-1
 551 692 l 1,10,-1
 551 627 l 1,11,-1
 479 627 l 1,12,-1
 479 0 l 1,13,-1
 411 0 l 1,14,-1
 411 627 l 1,15,-1
 295 627 l 1,16,-1
 295 0 l 1,17,-1
 228 0 l 1,18,-1
 228 324 l 1,0,-1
EndSplineSet
Validated: 1
EndChar

StartChar: periodcentered
Encoding: 118 183 118
Width: 217
Flags: W
LayerCount: 2
Fore
SplineSet
67 343 m 1,0,-1
 149 343 l 1,1,-1
 149 229 l 1,2,-1
 67 229 l 1,3,-1
 67 343 l 1,0,-1
EndSplineSet
Validated: 1
EndChar

StartChar: cedilla
Encoding: 119 184 119
Width: 263
Flags: W
LayerCount: 2
Fore
SplineSet
54 -212 m 2,1,-1
 42 -210 l 1,2,-1
 45 -162 l 1,3,4
 84 -165 84 -165 111 -165 c 0,5,6
 155 -165 155 -165 155 -127 c 0,7,8
 155 -93 155 -93 111 -93 c 2,9,-1
 69 -93 l 1,10,-1
 69 1 l 1,11,-1
 110 1 l 1,12,-1
 110 -49 l 1,13,14
 171 -49 171 -49 196 -65.5 c 128,-1,15
 221 -82 221 -82 221 -127 c 0,16,17
 221 -217 221 -217 128 -217 c 0,18,0
 86 -217 86 -217 54 -212 c 2,1,-1
EndSplineSet
Validated: 1
EndChar

StartChar: uni00B9
Encoding: 120 185 120
Width: 280
GlyphClass: 2
Flags: W
LayerCount: 2
Fore
SplineSet
129 720 m 1,0,-1
 61 673 l 1,1,-1
 32 720 l 1,2,-1
 133 790 l 1,3,-1
 193 790 l 1,4,-1
 193 478 l 1,5,-1
 129 478 l 1,6,-1
 129 720 l 1,0,-1
EndSplineSet
Validated: 1
EndChar

StartChar: ordmasculine
Encoding: 121 186 121
Width: 380
GlyphClass: 2
Flags: W
LayerCount: 2
Fore
SplineSet
53 510 m 0,1,2
 53 587 53 587 87 623 c 128,-1,3
 121 659 121 659 191 659 c 0,4,5
 260 659 260 659 293 623 c 128,-1,6
 326 587 326 587 326 510 c 0,7,8
 326 357 326 357 191 357 c 0,9,0
 53 357 53 357 53 510 c 0,1,2
242.5 439 m 128,-1,11
 257 460 257 460 257 510 c 0,12,13
 257 559 257 559 242.5 578.5 c 128,-1,14
 228 598 228 598 191 598 c 0,15,16
 153 598 153 598 137.5 578 c 128,-1,17
 122 558 122 558 122 510 c 0,18,19
 122 461 122 461 138 439.5 c 128,-1,20
 154 418 154 418 191 418 c 256,21,10
 228 418 228 418 242.5 439 c 128,-1,11
EndSplineSet
Validated: 1
EndChar

StartChar: guillemotright
Encoding: 122 187 122
Width: 539
Flags: W
LayerCount: 2
Fore
SplineSet
67 145 m 1,0,-1
 191 250 l 1,1,-1
 67 344 l 1,2,-1
 67 421 l 1,3,-1
 256 278 l 1,4,-1
 256 218 l 1,5,-1
 67 67 l 1,6,-1
 67 145 l 1,0,-1
305 145 m 1,7,-1
 429 250 l 1,8,-1
 305 344 l 1,9,-1
 305 421 l 1,10,-1
 494 278 l 1,11,-1
 494 218 l 1,12,-1
 305 67 l 1,13,-1
 305 145 l 1,7,-1
EndSplineSet
Validated: 1
EndChar

StartChar: onequarter
Encoding: 123 188 123
Width: 560
Flags: W
LayerCount: 2
Fore
SplineSet
208 634 m 1,0,-1
 193 610 l 1,1,-1
 193 478 l 1,2,-1
 129 478 l 1,3,-1
 129 507 l 1,4,-1
 -185 3 l 1,5,-1
 -224 28 l 1,6,-1
 129 597 l 1,7,-1
 129 720 l 1,8,-1
 61 673 l 1,9,-1
 32 720 l 1,10,-1
 133 790 l 1,11,-1
 193 790 l 1,12,-1
 193 644 l 1,13,-1
 208 634 l 1,0,-1
535 6 m 1,14,-1
 535 -52 l 1,15,-1
 508 -52 l 1,16,-1
 508 -100 l 1,17,-1
 445 -100 l 1,18,-1
 445 -52 l 1,19,-1
 304 -52 l 1,20,-1
 304 2 l 1,21,-1
 373 212 l 1,22,-1
 443 212 l 1,23,-1
 370 6 l 1,24,-1
 445 6 l 1,25,-1
 450 95 l 1,26,-1
 508 95 l 1,27,-1
 508 6 l 1,28,-1
 535 6 l 1,14,-1
EndSplineSet
Validated: 1
EndChar

StartChar: onehalf
Encoding: 124 189 124
Width: 560
Flags: W
LayerCount: 2
Fore
SplineSet
208 634 m 1,0,-1
 193 610 l 1,1,-1
 193 478 l 1,2,-1
 129 478 l 1,3,-1
 129 507 l 1,4,-1
 -185 3 l 1,5,-1
 -224 28 l 1,6,-1
 129 597 l 1,7,-1
 129 720 l 1,8,-1
 61 673 l 1,9,-1
 32 720 l 1,10,-1
 133 790 l 1,11,-1
 193 790 l 1,12,-1
 193 644 l 1,13,-1
 208 634 l 1,0,-1
519 -42 m 1,14,-1
 519 -100 l 1,15,-1
 310 -100 l 1,16,-1
 310 -45 l 1,17,-1
 398 42 l 2,18,19
 449 92 449 92 449 125 c 0,20,21
 449 162 449 162 400 162 c 1,22,-1
 315 153 l 1,23,-1
 313 210 l 1,24,25
 372 222 372 222 420 222 c 0,26,27
 515 222 515 222 515 131 c 0,28,29
 515 99 515 99 501.5 74.5 c 128,-1,30
 488 50 488 50 454 19 c 2,31,-1
 391 -42 l 1,32,-1
 519 -42 l 1,14,-1
EndSplineSet
Validated: 1
EndChar

StartChar: threequarters
Encoding: 125 190 125
Width: 560
Flags: W
LayerCount: 2
Fore
SplineSet
0 0 m 1024,0,-1
-224 28 m 1,1,-1
 168 660 l 1,2,-1
 208 634 l 1,3,-1
 -185 3 l 1,4,-1
 -224 28 l 1,1,-1
165 -52 m 1,5,-1
 24 -52 l 1,6,-1
 24 2 l 1,7,-1
 93 212 l 1,8,-1
 163 212 l 1,9,-1
 90 6 l 1,10,-1
 165 6 l 1,11,-1
 170 95 l 1,12,-1
 228 95 l 1,13,-1
 228 6 l 1,14,-1
 255 6 l 1,15,-1
 255 -52 l 1,16,-1
 228 -52 l 1,17,-1
 228 -100 l 1,18,-1
 165 -100 l 1,19,-1
 165 -52 l 1,5,-1
310 478 m 1,20,-1
 314 534 l 1,21,22
 375 526 375 526 418 526 c 0,23,24
 464 526 464 526 464 569 c 0,25,26
 464 611 464 611 417 611 c 2,27,-1
 352 611 l 1,28,-1
 352 664 l 1,29,-1
 417 664 l 2,30,31
 432 664 432 664 443.5 677 c 128,-1,32
 455 690 455 690 455 708 c 0,33,34
 455 742 455 742 410 742 c 2,35,-1
 318 735 l 1,36,-1
 314 790 l 1,37,38
 370 800 370 800 416 800 c 0,39,40
 521 800 521 800 521 716 c 0,41,42
 521 666 521 666 482 643 c 1,43,44
 507 634 507 634 518 617 c 128,-1,45
 529 600 529 600 529 565 c 0,46,47
 529 468 529 468 423 468 c 1,48,-1
 310 478 l 1,20,-1
EndSplineSet
Validated: 1
EndChar

StartChar: questiondown
Encoding: 126 191 126
Width: 441
Flags: W
LayerCount: 2
Fore
SplineSet
294 388 m 1,0,-1
 212 388 l 1,1,-1
 212 500 l 1,2,-1
 294 500 l 1,3,-1
 294 388 l 1,0,-1
296 239 m 0,5,6
 296 207 296 207 274.5 178 c 128,-1,7
 253 149 253 149 199 102 c 0,8,9
 162 70 162 70 145 50.5 c 128,-1,10
 128 31 128 31 121 10.5 c 128,-1,11
 114 -10 114 -10 114 -41 c 0,12,13
 114 -88 114 -88 146 -110.5 c 128,-1,14
 178 -133 178 -133 247 -133 c 0,15,16
 290 -133 290 -133 402 -110 c 1,17,-1
 407 -171 l 1,18,19
 307 -201 307 -201 240 -201 c 0,20,21
 136 -201 136 -201 87 -163 c 128,-1,22
 38 -125 38 -125 38 -41 c 0,23,24
 38 4 38 4 45 31 c 128,-1,25
 52 58 52 58 70.5 81 c 128,-1,26
 89 104 89 104 126 135 c 0,27,28
 181 181 181 181 200.5 207 c 128,-1,29
 220 233 220 233 220 265 c 2,30,-1
 220 300 l 1,31,-1
 283 300 l 1,32,4
 296 274 296 274 296 239 c 0,5,6
EndSplineSet
Validated: 1
EndChar

StartChar: circumflex
Encoding: 127 710 127
Width: 236
Flags: W
LayerCount: 2
Fore
SplineSet
104 732 m 1,0,-1
 155 732 l 1,1,-1
 279 592 l 1,2,-1
 204 592 l 1,3,-1
 131 679 l 1,4,-1
 56 592 l 1,5,-1
 -19 592 l 1,6,-1
 104 732 l 1,0,-1
EndSplineSet
Validated: 1
EndChar

StartChar: caron
Encoding: 128 711 128
Width: 236
Flags: W
LayerCount: 2
Fore
SplineSet
58 732 m 1,0,-1
 133 645 l 1,1,-1
 206 732 l 1,2,-1
 281 732 l 1,3,-1
 157 592 l 1,4,-1
 106 592 l 1,5,-1
 -17 732 l 1,6,-1
 58 732 l 1,0,-1
EndSplineSet
Validated: 1
EndChar

StartChar: breve
Encoding: 129 728 129
Width: 236
Flags: W
LayerCount: 2
Fore
SplineSet
26.5 625.5 m 128,-1,1
 -14 665 -14 665 -17 726 c 1,2,-1
 44 726 l 1,3,4
 46 687 46 687 69.5 664.5 c 128,-1,5
 93 642 93 642 132 642 c 256,6,7
 171 642 171 642 194 665 c 128,-1,8
 217 688 217 688 218 726 c 1,9,-1
 280 726 l 1,10,11
 277 665 277 665 236.5 625.5 c 128,-1,12
 196 586 196 586 132 586 c 0,13,0
 67 586 67 586 26.5 625.5 c 128,-1,1
EndSplineSet
Validated: 1
EndChar

StartChar: dotaccent
Encoding: 130 729 130
Width: 236
Flags: W
LayerCount: 2
Fore
SplineSet
81 696 m 1,0,-1
 155 696 l 1,1,-1
 155 609 l 1,2,-1
 81 609 l 1,3,-1
 81 696 l 1,0,-1
EndSplineSet
Validated: 1
EndChar

StartChar: ring
Encoding: 131 730 131
Width: 236
Flags: W
LayerCount: 2
Fore
SplineSet
50 571.5 m 128,-1,1
 21 602 21 602 21 646 c 0,2,3
 21 689 21 689 50 719 c 128,-1,4
 79 749 79 749 122 749 c 256,5,6
 165 749 165 749 194 719 c 128,-1,7
 223 689 223 689 223 646 c 0,8,9
 223 602 223 602 194 571.5 c 128,-1,10
 165 541 165 541 122 541 c 256,11,0
 79 541 79 541 50 571.5 c 128,-1,1
161 605.5 m 128,-1,13
 177 622 177 622 177 646 c 0,14,15
 177 669 177 669 161 685.5 c 128,-1,16
 145 702 145 702 122 702 c 256,17,18
 99 702 99 702 83 685.5 c 128,-1,19
 67 669 67 669 67 646 c 0,20,21
 67 622 67 622 83 605.5 c 128,-1,22
 99 589 99 589 122 589 c 256,23,12
 145 589 145 589 161 605.5 c 128,-1,13
EndSplineSet
Validated: 1
EndChar

StartChar: ogonek
Encoding: 132 731 132
Width: 450
Flags: W
LayerCount: 2
Fore
SplineSet
214 -182.5 m 128,-1,1
 188 -159 188 -159 188 -126 c 0,2,3
 188 -96 188 -96 207 -64 c 128,-1,4
 226 -32 226 -32 250 -10 c 2,5,-1
 271 8 l 1,6,-1
 332 1 l 1,7,8
 261 -70 261 -70 261 -102 c 0,9,10
 261 -121 261 -121 272.5 -133 c 128,-1,11
 284 -145 284 -145 302 -145 c 2,12,-1
 352 -139 l 1,13,-1
 359 -197 l 1,14,15
 314 -206 314 -206 277 -206 c 256,16,0
 240 -206 240 -206 214 -182.5 c 128,-1,1
EndSplineSet
Validated: 1
EndChar

StartChar: tilde
Encoding: 133 732 133
Width: 236
Flags: W
LayerCount: 2
Fore
SplineSet
128 636 m 0,1,2
 74 659 74 659 63 659 c 0,3,4
 40 659 40 659 1 629 c 2,5,-1
 -12 619 l 1,6,-1
 -30 667 l 1,7,8
 19 719 19 719 61 719 c 0,9,10
 80 719 80 719 134 696 c 256,11,12
 188 673 188 673 198 673 c 0,13,14
 218 673 218 673 256 702 c 2,15,-1
 269 711 l 1,16,-1
 286 663 l 1,17,18
 239 612 239 612 200 612 c 0,19,0
 179 612 179 612 128 636 c 0,1,2
EndSplineSet
Validated: 1
EndChar

StartChar: hungarumlaut
Encoding: 134 733 134
Width: 236
Flags: W
LayerCount: 2
Fore
SplineSet
142 624 m 1,0,-1
 287 763 l 1,1,-1
 341 720 l 1,2,-1
 193 582 l 1,3,-1
 142 624 l 1,0,-1
-51 624 m 1,4,-1
 94 762 l 1,5,-1
 148 720 l 1,6,-1
 1 582 l 1,7,-1
 -51 624 l 1,4,-1
EndSplineSet
Validated: 1
EndChar

StartChar: pi
Encoding: 135 960 135
Width: 560
Flags: W
LayerCount: 2
Fore
SplineSet
419 9 m 128,-1,1
 385 22 385 22 372 55 c 128,-1,2
 359 88 359 88 359 154 c 2,3,-1
 359 435 l 1,4,-1
 203 435 l 1,5,-1
 175 0 l 1,6,-1
 99 0 l 1,7,-1
 130 435 l 1,8,9
 74 435 74 435 34 425 c 2,10,-1
 22 422 l 1,11,-1
 22 485 l 1,12,13
 80 500 80 500 164 500 c 2,14,-1
 399 500 l 2,15,16
 467 500 467 500 514 510 c 2,17,-1
 530 514 l 1,18,-1
 530 451 l 1,19,20
 500 438 500 438 434 437 c 1,21,-1
 434 154 l 2,22,23
 434 115 434 115 441 95.5 c 128,-1,24
 448 76 448 76 466.5 68.5 c 128,-1,25
 485 61 485 61 521 61 c 1,26,-1
 521 -4 l 1,27,0
 453 -4 453 -4 419 9 c 128,-1,1
EndSplineSet
Validated: 1
EndChar

StartChar: endash
Encoding: 136 8211 136
Width: 631
Flags: W
LayerCount: 2
Fore
SplineSet
66 301 m 1,0,-1
 566 301 l 1,1,-1
 566 235 l 1,2,-1
 66 235 l 1,3,-1
 66 301 l 1,0,-1
EndSplineSet
Validated: 1
EndChar

StartChar: emdash
Encoding: 137 8212 137
Width: 1131
Flags: W
LayerCount: 2
Fore
SplineSet
66 301 m 1,0,-1
 1066 301 l 1,1,-1
 1066 235 l 1,2,-1
 66 235 l 1,3,-1
 66 301 l 1,0,-1
EndSplineSet
Validated: 1
EndChar

StartChar: quoteleft
Encoding: 138 8216 138
Width: 219
Flags: W
LayerCount: 2
Fore
SplineSet
115 708 m 1,0,-1
 174 708 l 1,1,-1
 130 489 l 1,2,-1
 51 489 l 1,3,-1
 115 708 l 1,0,-1
EndSplineSet
Validated: 1
EndChar

StartChar: quoteright
Encoding: 139 8217 139
Width: 216
Flags: W
LayerCount: 2
Fore
SplineSet
112 489 m 1,0,-1
 53 489 l 1,1,-1
 97 708 l 1,2,-1
 176 708 l 1,3,-1
 112 489 l 1,0,-1
EndSplineSet
Validated: 1
EndChar

StartChar: quotesinglbase
Encoding: 140 8218 140
Width: 218
Flags: W
LayerCount: 2
Fore
SplineSet
81 22 m 1,0,-1
 93 22 l 1,1,-1
 84 -21 l 1,2,-1
 68 -21 l 1,3,-1
 81 22 l 1,0,-1
EndSplineSet
Validated: 1
EndChar

StartChar: quotedblleft
Encoding: 141 8220 141
Width: 373
Flags: W
LayerCount: 2
Fore
SplineSet
115 708 m 1,0,-1
 174 708 l 1,1,-1
 130 489 l 1,2,-1
 51 489 l 1,3,-1
 115 708 l 1,0,-1
268 708 m 1,4,-1
 327 708 l 1,5,-1
 283 489 l 1,6,-1
 204 489 l 1,7,-1
 268 708 l 1,4,-1
EndSplineSet
Validated: 1
EndChar

StartChar: quotedblright
Encoding: 142 8221 142
Width: 377
Flags: W
LayerCount: 2
Fore
SplineSet
119 490 m 1,0,-1
 60 490 l 1,1,-1
 104 709 l 1,2,-1
 183 709 l 1,3,-1
 119 490 l 1,0,-1
272 490 m 1,4,-1
 213 490 l 1,5,-1
 257 709 l 1,6,-1
 336 709 l 1,7,-1
 272 490 l 1,4,-1
EndSplineSet
Validated: 1
EndChar

StartChar: quotedblbase
Encoding: 143 8222 143
Width: 359
Flags: W
LayerCount: 2
Fore
SplineSet
86 112 m 1,0,-1
 145 112 l 1,1,-1
 101 -107 l 1,2,-1
 22 -107 l 1,3,-1
 86 112 l 1,0,-1
239 112 m 1,4,-1
 298 112 l 1,5,-1
 254 -107 l 1,6,-1
 175 -107 l 1,7,-1
 239 112 l 1,4,-1
EndSplineSet
Validated: 1
EndChar

StartChar: dagger
Encoding: 144 8224 144
Width: 478
Flags: W
LayerCount: 2
Fore
SplineSet
202 434 m 1,0,-1
 34 434 l 1,1,-1
 34 500 l 1,2,-1
 202 500 l 1,3,-1
 202 692 l 1,4,-1
 276 692 l 1,5,-1
 276 500 l 1,6,-1
 444 500 l 1,7,-1
 444 434 l 1,8,-1
 276 434 l 1,9,-1
 272 -76 l 1,10,-1
 206 -76 l 1,11,-1
 202 434 l 1,0,-1
EndSplineSet
Validated: 1
EndChar

StartChar: daggerdbl
Encoding: 145 8225 145
Width: 521
Flags: W
LayerCount: 2
Fore
SplineSet
223 116 m 1,0,-1
 55 116 l 1,1,-1
 55 181 l 1,2,-1
 223 181 l 1,3,-1
 223 434 l 1,4,-1
 55 434 l 1,5,-1
 55 500 l 1,6,-1
 223 500 l 1,7,-1
 223 692 l 1,8,-1
 298 692 l 1,9,-1
 298 500 l 1,10,-1
 465 500 l 1,11,-1
 465 434 l 1,12,-1
 298 434 l 1,13,-1
 298 181 l 1,14,-1
 466 181 l 1,15,-1
 466 116 l 1,16,-1
 298 116 l 1,17,-1
 298 -76 l 1,18,-1
 223 -76 l 1,19,-1
 223 116 l 1,0,-1
EndSplineSet
Validated: 1
EndChar

StartChar: bullet
Encoding: 146 8226 146
Width: 473
Flags: W
LayerCount: 2
Fore
SplineSet
111 392 m 1,0,-1
 361 392 l 1,1,-1
 361 106 l 1,2,-1
 111 106 l 1,3,-1
 111 392 l 1,0,-1
EndSplineSet
Validated: 1
EndChar

StartChar: ellipsis
Encoding: 147 8230 147
Width: 725
Flags: W
LayerCount: 2
Fore
SplineSet
67 114 m 1,0,-1
 149 114 l 1,1,-1
 149 0 l 1,2,-1
 67 0 l 1,3,-1
 67 114 l 1,0,-1
321 114 m 1,4,-1
 403 114 l 1,5,-1
 403 0 l 1,6,-1
 321 0 l 1,7,-1
 321 114 l 1,4,-1
576 114 m 1,8,-1
 658 114 l 1,9,-1
 658 0 l 1,10,-1
 576 0 l 1,11,-1
 576 114 l 1,8,-1
EndSplineSet
Validated: 1
EndChar

StartChar: perthousand
Encoding: 148 8240 148
Width: 835
Flags: W
LayerCount: 2
Fore
SplineSet
165 -4 m 1,0,-1
 370 681 l 1,1,-1
 418 665 l 1,2,-1
 213 -18 l 1,3,-1
 165 -4 l 1,0,-1
66.5 426.5 m 128,-1,5
 38 462 38 462 38 532 c 0,6,7
 38 670 38 670 148 670 c 256,8,9
 258 670 258 670 258 532 c 0,10,11
 258 462 258 462 229.5 426.5 c 128,-1,12
 201 391 201 391 148 391 c 256,13,4
 95 391 95 391 66.5 426.5 c 128,-1,5
198 532 m 0,15,16
 198 577 198 577 186.5 598 c 128,-1,17
 175 619 175 619 149 619 c 0,18,19
 122 619 122 619 110.5 598.5 c 128,-1,20
 99 578 99 578 99 532 c 0,21,22
 99 442 99 442 149 442 c 0,23,14
 198 442 198 442 198 532 c 0,15,16
351.5 26 m 128,-1,25
 323 62 323 62 323 132 c 0,26,27
 323 269 323 269 433 269 c 0,28,29
 542 269 542 269 542 131 c 0,30,31
 542 62 542 62 513 26 c 128,-1,32
 484 -10 484 -10 432 -10 c 256,33,24
 380 -10 380 -10 351.5 26 c 128,-1,25
608.5 26 m 128,-1,35
 580 62 580 62 580 132 c 0,36,37
 580 269 580 269 690 269 c 0,38,39
 799 269 799 269 799 131 c 0,40,41
 799 62 799 62 770.5 26 c 128,-1,42
 742 -10 742 -10 690 -10 c 0,43,34
 637 -10 637 -10 608.5 26 c 128,-1,35
470.5 62.5 m 128,-1,45
 482 84 482 84 482 131 c 0,46,47
 482 177 482 177 471 197.5 c 128,-1,48
 460 218 460 218 433 218 c 256,49,50
 406 218 406 218 394.5 197.5 c 128,-1,51
 383 177 383 177 383 132 c 0,52,53
 383 41 383 41 432 41 c 0,54,44
 459 41 459 41 470.5 62.5 c 128,-1,45
727.5 62.5 m 128,-1,56
 739 84 739 84 739 131 c 0,57,58
 739 177 739 177 728 197.5 c 128,-1,59
 717 218 717 218 690 218 c 256,60,61
 663 218 663 218 651.5 197.5 c 128,-1,62
 640 177 640 177 640 132 c 0,63,64
 640 41 640 41 690 41 c 0,65,55
 716 41 716 41 727.5 62.5 c 128,-1,56
EndSplineSet
Validated: 1
EndChar

StartChar: guilsinglleft
Encoding: 149 8249 149
Width: 301
Flags: W
LayerCount: 2
Fore
SplineSet
45 218 m 1,0,-1
 45 278 l 1,1,-1
 234 421 l 1,2,-1
 234 344 l 1,3,-1
 110 250 l 1,4,-1
 234 145 l 1,5,-1
 234 67 l 1,6,-1
 45 218 l 1,0,-1
EndSplineSet
Validated: 1
EndChar

StartChar: guilsinglright
Encoding: 150 8250 150
Width: 301
Flags: W
LayerCount: 2
Fore
SplineSet
67 145 m 1,0,-1
 191 250 l 1,1,-1
 67 344 l 1,2,-1
 67 421 l 1,3,-1
 256 278 l 1,4,-1
 256 218 l 1,5,-1
 67 67 l 1,6,-1
 67 145 l 1,0,-1
EndSplineSet
Validated: 1
EndChar

StartChar: fraction
Encoding: 151 8260 151
Width: 0
GlyphClass: 2
Flags: W
LayerCount: 2
Fore
SplineSet
-224 28 m 1,0,-1
 168 660 l 1,1,-1
 208 634 l 1,2,-1
 -185 3 l 1,3,-1
 -224 28 l 1,0,-1
EndSplineSet
Validated: 1
EndChar

StartChar: uni2070
Encoding: 152 8304 152
Width: 280
GlyphClass: 2
Flags: W
LayerCount: 2
Fore
SplineSet
53.5 504 m 128,-1,1
 22 540 22 540 22 634 c 0,2,3
 22 729 22 729 53 764.5 c 128,-1,4
 84 800 84 800 140 800 c 256,5,6
 196 800 196 800 227.5 764.5 c 128,-1,7
 259 729 259 729 259 634 c 0,8,9
 259 540 259 540 227.5 504 c 128,-1,10
 196 468 196 468 140 468 c 0,11,0
 85 468 85 468 53.5 504 c 128,-1,1
179 549 m 128,-1,13
 193 572 193 572 193 634 c 256,14,15
 193 696 193 696 179 719 c 128,-1,16
 165 742 165 742 140 742 c 0,17,18
 114 742 114 742 100.5 719 c 128,-1,19
 87 696 87 696 87 634 c 256,20,21
 87 572 87 572 101 549 c 128,-1,22
 115 526 115 526 140 526 c 256,23,12
 165 526 165 526 179 549 c 128,-1,13
EndSplineSet
Validated: 1
EndChar

StartChar: uni2074
Encoding: 153 8308 153
Width: 280
GlyphClass: 2
Flags: W
LayerCount: 2
Fore
SplineSet
165 526 m 1,0,-1
 24 526 l 1,1,-1
 24 580 l 1,2,-1
 93 790 l 1,3,-1
 163 790 l 1,4,-1
 90 584 l 1,5,-1
 165 584 l 1,6,-1
 170 673 l 1,7,-1
 228 673 l 1,8,-1
 228 584 l 1,9,-1
 255 584 l 1,10,-1
 255 526 l 1,11,-1
 228 526 l 1,12,-1
 228 478 l 1,13,-1
 165 478 l 1,14,-1
 165 526 l 1,0,-1
EndSplineSet
Validated: 1
EndChar

StartChar: uni2075
Encoding: 154 8309 154
Width: 280
GlyphClass: 2
Flags: W
LayerCount: 2
Fore
SplineSet
54 480 m 2,1,-1
 38 483 l 1,2,-1
 43 535 l 1,3,4
 99 526 99 526 139 526 c 0,5,6
 186 526 186 526 186 574 c 0,7,8
 186 621 186 621 146 621 c 0,9,10
 119 621 119 621 94 606 c 1,11,-1
 44 612 l 1,12,-1
 54 790 l 1,13,-1
 241 790 l 1,14,-1
 241 734 l 1,15,-1
 105 734 l 1,16,-1
 100 661 l 1,17,18
 130 676 130 676 158 676 c 0,19,20
 251 676 251 676 251 578 c 0,21,22
 251 470 251 470 145 470 c 0,23,0
 97 470 97 470 54 480 c 2,1,-1
EndSplineSet
Validated: 1
EndChar

StartChar: uni2076
Encoding: 155 8310 155
Width: 280
GlyphClass: 2
Flags: W
LayerCount: 2
Fore
SplineSet
29 629 m 0,1,2
 29 718 29 718 58.5 759 c 128,-1,3
 88 800 88 800 152 800 c 0,4,5
 182 800 182 800 228 792 c 2,6,-1
 242 790 l 1,7,-1
 238 736 l 1,8,9
 192 743 192 743 154 743 c 0,10,11
 93 743 93 743 93 669 c 1,12,13
 137 683 137 683 153 683 c 0,14,15
 255 683 255 683 255 580 c 0,16,17
 255 528 255 528 225.5 498 c 128,-1,18
 196 468 196 468 145 468 c 0,19,0
 29 468 29 468 29 629 c 0,1,2
191 577 m 256,21,22
 191 629 191 629 151 629 c 0,23,24
 132 629 132 629 119 625.5 c 128,-1,25
 106 622 106 622 99.5 617.5 c 128,-1,26
 93 613 93 613 93 612 c 0,27,28
 96 525 96 525 144 525 c 0,29,20
 191 525 191 525 191 577 c 256,21,22
EndSplineSet
Validated: 1
EndChar

StartChar: uni2077
Encoding: 156 8311 156
Width: 280
GlyphClass: 2
Flags: W
LayerCount: 2
Fore
SplineSet
62 482 m 1,0,-1
 164 707 l 1,1,-1
 164 728 l 1,2,-1
 30 728 l 1,3,-1
 30 790 l 1,4,-1
 236 790 l 1,5,-1
 236 713 l 1,6,-1
 131 469 l 1,7,-1
 62 482 l 1,0,-1
EndSplineSet
Validated: 1
EndChar

StartChar: uni2078
Encoding: 157 8312 157
Width: 280
GlyphClass: 2
Flags: W
LayerCount: 2
Fore
SplineSet
22 563 m 0,1,2
 22 622 22 622 70 643 c 1,3,4
 27 659 27 659 27 715 c 0,5,6
 27 800 27 800 140 800 c 256,7,8
 253 800 253 800 253 715 c 0,9,10
 253 655 253 655 210 642 c 1,11,12
 258 629 258 629 258 567 c 0,13,14
 258 468 258 468 140 468 c 256,15,0
 22 468 22 468 22 563 c 0,1,2
154 665 m 1,16,17
 190 677 190 677 190 708 c 0,18,19
 190 746 190 746 140 746 c 256,20,21
 90 746 90 746 90 709 c 0,22,23
 90 679 90 679 126 665 c 1,24,-1
 154 665 l 1,16,17
193 567 m 0,26,27
 193 604 193 604 154 616 c 1,28,-1
 126 616 l 1,29,30
 87 604 87 604 87 565 c 0,31,32
 87 522 87 522 140 522 c 256,33,25
 193 522 193 522 193 567 c 0,26,27
EndSplineSet
Validated: 1
EndChar

StartChar: uni2079
Encoding: 158 8313 158
Width: 280
GlyphClass: 2
Flags: W
LayerCount: 2
Fore
SplineSet
52 477 m 2,1,-1
 38 480 l 1,2,-1
 42 533 l 1,3,4
 84 526 84 526 124 526 c 0,5,6
 187 526 187 526 188 598 c 1,7,8
 144 586 144 586 127 586 c 0,9,10
 78 586 78 586 52 613 c 128,-1,11
 26 640 26 640 26 691 c 256,12,13
 26 742 26 742 55.5 771 c 128,-1,14
 85 800 85 800 136 800 c 0,15,16
 254 800 254 800 254 633 c 0,17,18
 254 548 254 548 224.5 508 c 128,-1,19
 195 468 195 468 130 468 c 0,20,0
 94 468 94 468 52 477 c 2,1,-1
190 652 m 1,22,23
 189 743 189 743 138 743 c 0,24,25
 90 743 90 743 90 691 c 0,26,27
 90 668 90 668 102.5 653 c 128,-1,28
 115 638 115 638 136 638 c 0,29,21
 154 638 154 638 190 652 c 1,22,23
EndSplineSet
Validated: 1
EndChar

StartChar: uni2080
Encoding: 159 8320 159
Width: 280
GlyphClass: 2
Flags: W
LayerCount: 2
Fore
SplineSet
22 0 m 1024,0,-1
53.5 -74 m 128,-1,2
 22 -38 22 -38 22 56 c 0,3,4
 22 151 22 151 53 186.5 c 128,-1,5
 84 222 84 222 140 222 c 256,6,7
 196 222 196 222 227.5 186.5 c 128,-1,8
 259 151 259 151 259 56 c 0,9,10
 259 -38 259 -38 227.5 -74 c 128,-1,11
 196 -110 196 -110 140 -110 c 0,12,1
 85 -110 85 -110 53.5 -74 c 128,-1,2
179 -29 m 128,-1,14
 193 -6 193 -6 193 56 c 256,15,16
 193 118 193 118 179 141 c 128,-1,17
 165 164 165 164 140 164 c 0,18,19
 114 164 114 164 100.5 141 c 128,-1,20
 87 118 87 118 87 56 c 256,21,22
 87 -6 87 -6 101 -29 c 128,-1,23
 115 -52 115 -52 140 -52 c 256,24,13
 165 -52 165 -52 179 -29 c 128,-1,14
EndSplineSet
Validated: 1
EndChar

StartChar: uni2081
Encoding: 160 8321 160
Width: 280
GlyphClass: 2
Flags: W
LayerCount: 2
Fore
SplineSet
32 0 m 1024,0,-1
129 142 m 1,1,-1
 61 95 l 1,2,-1
 32 142 l 1,3,-1
 133 212 l 1,4,-1
 193 212 l 1,5,-1
 193 -100 l 1,6,-1
 129 -100 l 1,7,-1
 129 142 l 1,1,-1
EndSplineSet
Validated: 1
EndChar

StartChar: uni2082
Encoding: 161 8322 161
Width: 280
GlyphClass: 2
Flags: W
LayerCount: 2
Fore
SplineSet
30 -45 m 1,0,-1
 118 42 l 2,1,2
 169 92 169 92 169 125 c 0,3,4
 169 162 169 162 120 162 c 1,5,-1
 35 153 l 1,6,-1
 33 210 l 1,7,8
 92 222 92 222 140 222 c 0,9,10
 235 222 235 222 235 131 c 0,11,12
 235 99 235 99 221.5 74.5 c 128,-1,13
 208 50 208 50 174 19 c 2,14,-1
 111 -42 l 1,15,-1
 239 -42 l 1,16,-1
 239 -100 l 1,17,-1
 30 -100 l 1,18,-1
 30 -45 l 1,0,-1
EndSplineSet
Validated: 1
EndChar

StartChar: uni2083
Encoding: 162 8323 162
Width: 280
GlyphClass: 2
Flags: W
LayerCount: 2
Fore
SplineSet
30 0 m 1024,0,-1
30 -100 m 1,1,-1
 34 -44 l 1,2,3
 95 -52 95 -52 138 -52 c 0,4,5
 184 -52 184 -52 184 -9 c 0,6,7
 184 33 184 33 137 33 c 2,8,-1
 72 33 l 1,9,-1
 72 86 l 1,10,-1
 137 86 l 2,11,12
 152 86 152 86 163.5 99 c 128,-1,13
 175 112 175 112 175 130 c 0,14,15
 175 164 175 164 130 164 c 2,16,-1
 38 157 l 1,17,-1
 34 212 l 1,18,19
 90 222 90 222 136 222 c 0,20,21
 241 222 241 222 241 138 c 0,22,23
 241 88 241 88 202 65 c 1,24,25
 227 56 227 56 238 39 c 128,-1,26
 249 22 249 22 249 -13 c 0,27,28
 249 -110 249 -110 143 -110 c 1,29,-1
 30 -100 l 1,1,-1
EndSplineSet
Validated: 1
EndChar

StartChar: uni2084
Encoding: 163 8324 163
Width: 280
GlyphClass: 2
Flags: W
LayerCount: 2
Fore
SplineSet
165 -52 m 1,0,-1
 24 -52 l 1,1,-1
 24 2 l 1,2,-1
 93 212 l 1,3,-1
 163 212 l 1,4,-1
 90 6 l 1,5,-1
 165 6 l 1,6,-1
 170 95 l 1,7,-1
 228 95 l 1,8,-1
 228 6 l 1,9,-1
 255 6 l 1,10,-1
 255 -52 l 1,11,-1
 228 -52 l 1,12,-1
 228 -100 l 1,13,-1
 165 -100 l 1,14,-1
 165 -52 l 1,0,-1
EndSplineSet
Validated: 1
EndChar

StartChar: uni2085
Encoding: 164 8325 164
Width: 280
GlyphClass: 2
Flags: W
LayerCount: 2
Fore
SplineSet
38 0 m 1024,0,-1
54 -98 m 2,2,-1
 38 -95 l 1,3,-1
 43 -43 l 1,4,5
 99 -52 99 -52 139 -52 c 0,6,7
 186 -52 186 -52 186 -4 c 0,8,9
 186 43 186 43 146 43 c 0,10,11
 119 43 119 43 94 28 c 1,12,-1
 44 34 l 1,13,-1
 54 212 l 1,14,-1
 241 212 l 1,15,-1
 241 156 l 1,16,-1
 105 156 l 1,17,-1
 100 83 l 1,18,19
 130 98 130 98 158 98 c 0,20,21
 251 98 251 98 251 0 c 0,22,23
 251 -108 251 -108 145 -108 c 0,24,1
 97 -108 97 -108 54 -98 c 2,2,-1
EndSplineSet
Validated: 1
EndChar

StartChar: uni2086
Encoding: 165 8326 165
Width: 280
GlyphClass: 2
Flags: W
LayerCount: 2
Fore
SplineSet
29 0 m 1024,0,-1
29 51 m 0,2,3
 29 140 29 140 58.5 181 c 128,-1,4
 88 222 88 222 152 222 c 0,5,6
 182 222 182 222 228 214 c 2,7,-1
 242 212 l 1,8,-1
 238 158 l 1,9,10
 192 165 192 165 154 165 c 0,11,12
 93 165 93 165 93 91 c 1,13,14
 137 105 137 105 153 105 c 0,15,16
 255 105 255 105 255 2 c 0,17,18
 255 -50 255 -50 225.5 -80 c 128,-1,19
 196 -110 196 -110 145 -110 c 0,20,1
 29 -110 29 -110 29 51 c 0,2,3
191 -1 m 256,22,23
 191 51 191 51 151 51 c 0,24,25
 132 51 132 51 119 47.5 c 128,-1,26
 106 44 106 44 99.5 39.5 c 128,-1,27
 93 35 93 35 93 34 c 0,28,29
 96 -53 96 -53 144 -53 c 0,30,21
 191 -53 191 -53 191 -1 c 256,22,23
EndSplineSet
Validated: 1
EndChar

StartChar: uni2087
Encoding: 166 8327 166
Width: 280
GlyphClass: 2
Flags: W
LayerCount: 2
Fore
SplineSet
30 0 m 1024,0,-1
62 -96 m 1,1,-1
 164 129 l 1,2,-1
 164 150 l 1,3,-1
 30 150 l 1,4,-1
 30 212 l 1,5,-1
 236 212 l 1,6,-1
 236 135 l 1,7,-1
 131 -109 l 1,8,-1
 62 -96 l 1,1,-1
EndSplineSet
Validated: 1
EndChar

StartChar: uni2088
Encoding: 167 8328 167
Width: 280
GlyphClass: 2
Flags: W
LayerCount: 2
Fore
SplineSet
22 0 m 1024,0,-1
22 -15 m 0,2,3
 22 44 22 44 70 65 c 1,4,5
 27 81 27 81 27 137 c 0,6,7
 27 222 27 222 140 222 c 256,8,9
 253 222 253 222 253 137 c 0,10,11
 253 77 253 77 210 64 c 1,12,13
 258 51 258 51 258 -11 c 0,14,15
 258 -110 258 -110 140 -110 c 256,16,1
 22 -110 22 -110 22 -15 c 0,2,3
154 87 m 1,17,18
 190 99 190 99 190 130 c 0,19,20
 190 168 190 168 140 168 c 256,21,22
 90 168 90 168 90 131 c 0,23,24
 90 101 90 101 126 87 c 1,25,-1
 154 87 l 1,17,18
193 -11 m 0,27,28
 193 26 193 26 154 38 c 1,29,-1
 126 38 l 1,30,31
 87 26 87 26 87 -13 c 0,32,33
 87 -56 87 -56 140 -56 c 256,34,26
 193 -56 193 -56 193 -11 c 0,27,28
EndSplineSet
Validated: 1
EndChar

StartChar: uni2089
Encoding: 168 8329 168
Width: 280
GlyphClass: 2
Flags: W
LayerCount: 2
Fore
SplineSet
26 0 m 1024,0,-1
52 -101 m 2,2,-1
 38 -98 l 1,3,-1
 42 -45 l 1,4,5
 84 -52 84 -52 124 -52 c 0,6,7
 187 -52 187 -52 188 20 c 1,8,9
 144 8 144 8 127 8 c 0,10,11
 78 8 78 8 52 35 c 128,-1,12
 26 62 26 62 26 113 c 256,13,14
 26 164 26 164 55.5 193 c 128,-1,15
 85 222 85 222 136 222 c 0,16,17
 254 222 254 222 254 55 c 0,18,19
 254 -30 254 -30 224.5 -70 c 128,-1,20
 195 -110 195 -110 130 -110 c 0,21,1
 94 -110 94 -110 52 -101 c 2,2,-1
190 74 m 1,23,24
 189 165 189 165 138 165 c 0,25,26
 90 165 90 165 90 113 c 0,27,28
 90 90 90 90 102.5 75 c 128,-1,29
 115 60 115 60 136 60 c 0,30,22
 154 60 154 60 190 74 c 1,23,24
EndSplineSet
Validated: 1
EndChar

StartChar: Euro
Encoding: 169 8364 169
Width: 560
Flags: W
LayerCount: 2
Fore
SplineSet
161 45.5 m 128,-1,1
 106 101 106 101 93 222 c 1,2,-1
 30 222 l 1,3,-1
 30 283 l 1,4,-1
 90 283 l 1,5,-1
 90 378 l 1,6,-1
 30 378 l 1,7,-1
 30 439 l 1,8,-1
 94 439 l 1,9,10
 106 560 106 560 160.5 615 c 128,-1,11
 215 670 215 670 331 670 c 0,12,13
 415 670 415 670 513 649 c 1,14,-1
 510 587 l 1,15,16
 416 604 416 604 337 604 c 0,17,18
 256 604 256 604 218 565.5 c 128,-1,19
 180 527 180 527 171 439 c 1,20,-1
 457 439 l 1,21,-1
 457 378 l 1,22,-1
 167 378 l 1,23,-1
 166 283 l 1,24,-1
 457 283 l 1,25,-1
 457 222 l 1,26,-1
 170 222 l 1,27,28
 179 134 179 134 217 95 c 128,-1,29
 255 56 255 56 337 56 c 0,30,31
 420 56 420 56 510 74 c 1,32,-1
 513 11 l 1,33,34
 414 -10 414 -10 331 -10 c 0,35,0
 216 -10 216 -10 161 45.5 c 128,-1,1
EndSplineSet
Validated: 1
EndChar

StartChar: trademark
Encoding: 170 8482 170
Width: 677
Flags: W
LayerCount: 2
Fore
SplineSet
170 580 m 1,0,-1
 91 580 l 1,1,-1
 91 630 l 1,2,-1
 291 630 l 1,3,-1
 291 580 l 1,4,-1
 225 580 l 1,5,-1
 225 332 l 1,6,-1
 170 332 l 1,7,-1
 170 580 l 1,0,-1
322 630 m 1,8,-1
 394 630 l 1,9,-1
 460 422 l 1,10,-1
 531 630 l 1,11,-1
 601 630 l 1,12,-1
 601 331 l 1,13,-1
 549 331 l 1,14,-1
 549 555 l 1,15,-1
 483 346 l 1,16,-1
 440 346 l 1,17,-1
 374 555 l 1,18,-1
 374 331 l 1,19,-1
 322 331 l 1,20,-1
 322 630 l 1,8,-1
EndSplineSet
Validated: 1
EndChar

StartChar: Omega
Encoding: 171 8486 171
Width: 560
Flags: W
LayerCount: 2
Fore
SplineSet
45 57 m 1,0,-1
 168 57 l 1,1,2
 126 124 126 124 92.5 213.5 c 128,-1,3
 59 303 59 303 59 376 c 0,4,5
 59 481 59 481 80 545 c 128,-1,6
 101 609 101 609 149 640 c 128,-1,7
 197 671 197 671 280 671 c 256,8,9
 363 671 363 671 411 640 c 128,-1,10
 459 609 459 609 480 545 c 128,-1,11
 501 481 501 481 501 376 c 0,12,13
 501 304 501 304 467 214 c 128,-1,14
 433 124 433 124 391 57 c 1,15,-1
 515 57 l 1,16,-1
 515 -9 l 1,17,-1
 318 -9 l 1,18,-1
 318 48 l 1,19,20
 357 123 357 123 389.5 212.5 c 128,-1,21
 422 302 422 302 422 356 c 0,22,23
 422 450 422 450 410.5 502 c 128,-1,24
 399 554 399 554 368.5 578 c 128,-1,25
 338 602 338 602 280 602 c 256,26,27
 222 602 222 602 191.5 578.5 c 128,-1,28
 161 555 161 555 149.5 503 c 128,-1,29
 138 451 138 451 138 356 c 0,30,31
 138 302 138 302 170.5 212.5 c 128,-1,32
 203 123 203 123 242 48 c 1,33,-1
 242 -9 l 1,34,-1
 45 -9 l 1,35,-1
 45 57 l 1,0,-1
EndSplineSet
Validated: 1
EndChar

StartChar: partialdiff
Encoding: 172 8706 172
Width: 560
Flags: W
LayerCount: 2
Fore
SplineSet
104.5 48 m 128,-1,1
 46 105 46 105 46 211 c 0,2,3
 46 315 46 315 101.5 372.5 c 128,-1,4
 157 430 157 430 256 430 c 0,5,6
 330 430 330 430 397 408 c 2,7,-1
 420 400 l 1,8,9
 417 496 417 496 400.5 552.5 c 128,-1,10
 384 609 384 609 348.5 635.5 c 128,-1,11
 313 662 313 662 253 662 c 0,12,13
 223 662 223 662 183.5 651.5 c 128,-1,14
 144 641 144 641 118 628 c 2,15,-1
 95 617 l 1,16,-1
 91 678 l 1,17,18
 122 697 122 697 175 712.5 c 128,-1,19
 228 728 228 728 266 728 c 0,20,21
 387 728 387 728 443.5 641 c 128,-1,22
 500 554 500 554 500 363 c 256,23,24
 500 172 500 172 445 81.5 c 128,-1,25
 390 -9 390 -9 276 -9 c 0,26,0
 163 -9 163 -9 104.5 48 c 128,-1,1
384 124.5 m 128,-1,28
 420 192 420 192 421 334 c 1,29,30
 342 364 342 364 269 364 c 0,31,32
 198 364 198 364 161.5 323.5 c 128,-1,33
 125 283 125 283 125 210 c 256,34,35
 125 137 125 137 162 97 c 128,-1,36
 199 57 199 57 273 57 c 0,37,27
 348 57 348 57 384 124.5 c 128,-1,28
EndSplineSet
Validated: 1
EndChar

StartChar: Delta
Encoding: 173 8710 173
Width: 560
Flags: W
LayerCount: 2
Fore
SplineSet
53 57 m 1,0,-1
 212 660 l 1,1,-1
 347 660 l 1,2,-1
 506 56 l 1,3,-1
 506 0 l 1,4,-1
 53 0 l 1,5,-1
 53 57 l 1,0,-1
428 66 m 1,6,-1
 292 595 l 1,7,-1
 266 595 l 1,8,-1
 130 66 l 1,9,-1
 428 66 l 1,6,-1
EndSplineSet
Validated: 1
EndChar

StartChar: product
Encoding: 174 8719 174
Width: 560
Flags: W
LayerCount: 2
Fore
SplineSet
100 686 m 1,0,-1
 30 686 l 1,1,-1
 30 754 l 1,2,-1
 530 754 l 1,3,-1
 530 686 l 1,4,-1
 459 686 l 1,5,-1
 459 -163 l 1,6,-1
 382 -163 l 1,7,-1
 382 686 l 1,8,-1
 176 686 l 1,9,-1
 176 -163 l 1,10,-1
 100 -163 l 1,11,-1
 100 686 l 1,0,-1
EndSplineSet
Validated: 1
EndChar

StartChar: summation
Encoding: 175 8721 175
Width: 560
Flags: W
LayerCount: 2
Fore
SplineSet
44 -62 m 1,0,-1
 311 308 l 1,1,-1
 44 654 l 1,2,-1
 44 753 l 1,3,-1
 514 753 l 1,4,-1
 514 685 l 1,5,-1
 124 685 l 1,6,-1
 124 663 l 1,7,-1
 381 334 l 1,8,-1
 381 279 l 1,9,-1
 124 -69 l 1,10,-1
 124 -94 l 1,11,-1
 514 -94 l 1,12,-1
 514 -163 l 1,13,-1
 44 -163 l 1,14,-1
 44 -62 l 1,0,-1
EndSplineSet
Validated: 1
EndChar

StartChar: minus
Encoding: 176 8722 176
Width: 560
Flags: W
LayerCount: 2
Fore
SplineSet
66 285 m 1,0,-1
 494 285 l 1,1,-1
 494 217 l 1,2,-1
 66 217 l 1,3,-1
 66 285 l 1,0,-1
EndSplineSet
Validated: 1
EndChar

StartChar: radical
Encoding: 177 8730 177
Width: 560
Flags: W
LayerCount: 2
Fore
SplineSet
63 378 m 1,0,-1
 4 378 l 1,1,-1
 4 446 l 1,2,-1
 126 446 l 1,3,-1
 254 -71 l 1,4,-1
 264 -71 l 1,5,-1
 491 777 l 1,6,-1
 567 777 l 1,7,-1
 319 -136 l 1,8,-1
 197 -136 l 1,9,-1
 63 378 l 1,0,-1
EndSplineSet
Validated: 1
EndChar

StartChar: infinity
Encoding: 178 8734 178
Width: 560
Flags: W
LayerCount: 2
Fore
SplineSet
30 292 m 0,1,2
 30 376 30 376 61 419.5 c 128,-1,3
 92 463 92 463 153 463 c 0,4,5
 197 463 197 463 226.5 437.5 c 128,-1,6
 256 412 256 412 280 357 c 1,7,8
 304 412 304 412 333 437.5 c 128,-1,9
 362 463 362 463 407 463 c 0,10,11
 468 463 468 463 499 419.5 c 128,-1,12
 530 376 530 376 530 292 c 0,13,14
 530 121 530 121 405 121 c 0,15,16
 362 121 362 121 333 146 c 128,-1,17
 304 171 304 171 280 225 c 1,18,19
 257 166 257 166 230 143.5 c 128,-1,20
 203 121 203 121 155 121 c 0,21,0
 30 121 30 121 30 292 c 0,1,2
206 206.5 m 128,-1,23
 229 225 229 225 253 292 c 1,24,25
 230 354 230 354 209 375 c 128,-1,26
 188 396 188 396 162 396 c 0,27,28
 102 396 102 396 102 292 c 256,29,30
 102 188 102 188 162 188 c 0,31,22
 183 188 183 188 206 206.5 c 128,-1,23
458 292 m 256,33,34
 458 396 458 396 398 396 c 0,35,36
 372 396 372 396 351 375 c 128,-1,37
 330 354 330 354 307 292 c 1,38,39
 331 225 331 225 354 206.5 c 128,-1,40
 377 188 377 188 398 188 c 0,41,32
 458 188 458 188 458 292 c 256,33,34
EndSplineSet
Validated: 1
EndChar

StartChar: integral
Encoding: 179 8747 179
Width: 560
Flags: W
LayerCount: 2
Fore
SplineSet
133.5 -184.5 m 128,-1,1
 105 -182 105 -182 92 -179 c 1,2,-1
 95 -115 l 1,3,4
 130 -119 130 -119 170 -119 c 0,5,6
 207 -119 207 -119 223.5 -93 c 128,-1,7
 240 -67 240 -67 240 -5 c 2,8,-1
 240 576 l 2,9,10
 240 688 240 688 272 734 c 128,-1,11
 304 780 304 780 376 780 c 0,12,13
 420 780 420 780 454 774 c 2,14,-1
 468 771 l 1,15,-1
 465 707 l 1,16,17
 423 712 423 712 390 712 c 0,18,19
 352 712 352 712 334 680.5 c 128,-1,20
 316 649 316 649 316 575 c 2,21,-1
 316 -6 l 2,22,23
 316 -103 316 -103 284 -145 c 128,-1,24
 252 -187 252 -187 183 -187 c 0,25,0
 162 -187 162 -187 133.5 -184.5 c 128,-1,1
EndSplineSet
Validated: 1
EndChar

StartChar: approxequal
Encoding: 180 8776 180
Width: 560
Flags: W
LayerCount: 2
Fore
SplineSet
276 301 m 256,1,2
 201 332 201 332 181 332 c 0,3,4
 146 332 146 332 93 296 c 2,5,-1
 76 285 l 1,6,-1
 64 347 l 1,7,8
 128 400 128 400 181 400 c 0,9,10
 211 400 211 400 286 370 c 0,11,12
 360 339 360 339 380 339 c 0,13,14
 415 339 415 339 468 374 c 2,15,-1
 485 385 l 1,16,-1
 495 324 l 1,17,18
 483 313 483 313 461 299 c 0,19,20
 417 270 417 270 379 270 c 0,21,0
 351 270 351 270 276 301 c 256,1,2
276 116 m 256,23,24
 201 147 201 147 181 147 c 0,25,26
 146 147 146 147 93 111 c 2,27,-1
 76 100 l 1,28,-1
 64 162 l 1,29,30
 128 215 128 215 181 215 c 0,31,32
 211 215 211 215 286 185 c 0,33,34
 360 154 360 154 380 154 c 0,35,36
 415 154 415 154 468 189 c 2,37,-1
 485 200 l 1,38,-1
 495 139 l 1,39,40
 483 128 483 128 461 114 c 0,41,42
 417 85 417 85 379 85 c 0,43,22
 351 85 351 85 276 116 c 256,23,24
EndSplineSet
Validated: 1
EndChar

StartChar: notequal
Encoding: 181 8800 181
Width: 560
Flags: W
LayerCount: 2
Fore
SplineSet
137 -4 m 1,0,-1
 193 124 l 1,1,-1
 64 124 l 1,2,-1
 64 193 l 1,3,-1
 223 193 l 1,4,-1
 274 309 l 1,5,-1
 64 309 l 1,6,-1
 64 378 l 1,7,-1
 304 378 l 1,8,-1
 372 533 l 1,9,-1
 432 509 l 1,10,-1
 374 378 l 1,11,-1
 496 378 l 1,12,-1
 496 309 l 1,13,-1
 344 309 l 1,14,-1
 294 193 l 1,15,-1
 496 193 l 1,16,-1
 496 124 l 1,17,-1
 264 124 l 1,18,-1
 198 -28 l 1,19,-1
 137 -4 l 1,0,-1
EndSplineSet
Validated: 1
EndChar

StartChar: lessequal
Encoding: 182 8804 182
Width: 560
Flags: W
LayerCount: 2
Fore
SplineSet
65 284 m 1,0,-1
 65 352 l 1,1,-1
 488 497 l 1,2,-1
 488 422 l 1,3,-1
 153 320 l 1,4,-1
 488 210 l 1,5,-1
 488 134 l 1,6,-1
 65 284 l 1,0,-1
65 90 m 1,7,-1
 488 90 l 1,8,-1
 488 22 l 1,9,-1
 65 22 l 1,10,-1
 65 90 l 1,7,-1
EndSplineSet
Validated: 1
EndChar

StartChar: greaterequal
Encoding: 183 8805 183
Width: 560
Flags: W
LayerCount: 2
Fore
SplineSet
71 210 m 1,0,-1
 406 320 l 1,1,-1
 71 422 l 1,2,-1
 71 497 l 1,3,-1
 494 352 l 1,4,-1
 494 284 l 1,5,-1
 71 134 l 1,6,-1
 71 210 l 1,0,-1
71 22 m 1,7,-1
 71 90 l 1,8,-1
 494 90 l 1,9,-1
 494 22 l 1,10,-1
 71 22 l 1,7,-1
EndSplineSet
Validated: 1
EndChar

StartChar: lozenge
Encoding: 184 9674 184
Width: 560
Flags: W
LayerCount: 2
Fore
SplineSet
45 324 m 1,0,-1
 194 660 l 1,1,-1
 369 660 l 1,2,-1
 517 324 l 1,3,-1
 369 0 l 1,4,-1
 194 0 l 1,5,-1
 45 324 l 1,0,-1
327 66 m 1,6,-1
 441 323 l 1,7,-1
 327 594 l 1,8,-1
 237 594 l 1,9,-1
 121 323 l 1,10,-1
 237 66 l 1,11,-1
 327 66 l 1,6,-1
EndSplineSet
Validated: 1
EndChar

StartChar: uniF6BE
Encoding: 185 63166 185
Width: 219
Flags: W
LayerCount: 2
Fore
SplineSet
-49 -165 m 1,0,1
 5 -134 5 -134 30 -111.5 c 128,-1,2
 55 -89 55 -89 64 -62 c 128,-1,3
 73 -35 73 -35 73 13 c 2,4,-1
 73 500 l 1,5,-1
 147 500 l 1,6,-1
 147 12 l 2,7,8
 147 -51 147 -51 133 -89.5 c 128,-1,9
 119 -128 119 -128 84.5 -158 c 128,-1,10
 50 -188 50 -188 -19 -223 c 1,11,-1
 -49 -165 l 1,0,1
EndSplineSet
Validated: 1
EndChar

StartChar: uniF6C3
Encoding: 186 63171 186
Width: 0
Flags: W
LayerCount: 2
Fore
SplineSet
-106 -78 m 1,0,-1
 -32 -78 l 1,1,-1
 -82 -285 l 1,2,-1
 -147 -285 l 1,3,-1
 -106 -78 l 1,0,-1
EndSplineSet
Validated: 1
EndChar

StartChar: zero.numr
Encoding: 187 -1 187
Width: 280
GlyphClass: 2
Flags: W
LayerCount: 2
Fore
SplineSet
22 368 m 1024,0,-1
53.5 404 m 128,-1,2
 22 440 22 440 22 534 c 0,3,4
 22 629 22 629 53 664.5 c 128,-1,5
 84 700 84 700 140 700 c 256,6,7
 196 700 196 700 227.5 664.5 c 128,-1,8
 259 629 259 629 259 534 c 0,9,10
 259 440 259 440 227.5 404 c 128,-1,11
 196 368 196 368 140 368 c 0,12,1
 85 368 85 368 53.5 404 c 128,-1,2
179 449 m 128,-1,14
 193 472 193 472 193 534 c 256,15,16
 193 596 193 596 179 619 c 128,-1,17
 165 642 165 642 140 642 c 0,18,19
 114 642 114 642 100.5 619 c 128,-1,20
 87 596 87 596 87 534 c 256,21,22
 87 472 87 472 101 449 c 128,-1,23
 115 426 115 426 140 426 c 256,24,13
 165 426 165 426 179 449 c 128,-1,14
EndSplineSet
Validated: 1
Substitution2: "Single Substitution lookup 16 subtable" zero.dnom
Substitution2: "'aalt' Access All Alternates lookup 0 subtable" zero.dnom
EndChar

StartChar: one.numr
Encoding: 188 -1 188
Width: 280
GlyphClass: 2
Flags: W
LayerCount: 2
Fore
SplineSet
32 378 m 1024,0,-1
129 620 m 1,1,-1
 61 573 l 1,2,-1
 32 620 l 1,3,-1
 133 690 l 1,4,-1
 193 690 l 1,5,-1
 193 378 l 1,6,-1
 129 378 l 1,7,-1
 129 620 l 1,1,-1
EndSplineSet
Validated: 1
Substitution2: "Single Substitution lookup 16 subtable" one.dnom
Substitution2: "'aalt' Access All Alternates lookup 0 subtable" one.dnom
EndChar

StartChar: two.numr
Encoding: 189 -1 189
Width: 280
GlyphClass: 2
Flags: W
LayerCount: 2
Fore
SplineSet
30 378 m 1024,0,-1
30 433 m 1,1,-1
 118 520 l 2,2,3
 169 570 169 570 169 603 c 0,4,5
 169 640 169 640 120 640 c 1,6,-1
 35 631 l 1,7,-1
 33 688 l 1,8,9
 91 700 91 700 140 700 c 0,10,11
 235 700 235 700 235 609 c 0,12,13
 235 577 235 577 221.5 552.5 c 128,-1,14
 208 528 208 528 174 497 c 2,15,-1
 111 436 l 1,16,-1
 239 436 l 1,17,-1
 239 378 l 1,18,-1
 30 378 l 1,19,-1
 30 433 l 1,1,-1
EndSplineSet
Validated: 1
Substitution2: "Single Substitution lookup 16 subtable" two.dnom
Substitution2: "'aalt' Access All Alternates lookup 0 subtable" two.dnom
EndChar

StartChar: three.numr
Encoding: 190 -1 190
Width: 280
GlyphClass: 2
Flags: W
LayerCount: 2
Fore
SplineSet
30 368 m 1024,0,-1
30 378 m 1,1,-1
 34 434 l 1,2,3
 95 426 95 426 138 426 c 0,4,5
 184 426 184 426 184 469 c 0,6,7
 184 511 184 511 137 511 c 2,8,-1
 72 511 l 1,9,-1
 72 564 l 1,10,-1
 137 564 l 2,11,12
 152 564 152 564 163.5 577 c 128,-1,13
 175 590 175 590 175 608 c 0,14,15
 175 642 175 642 130 642 c 2,16,-1
 38 635 l 1,17,-1
 34 690 l 1,18,19
 90 700 90 700 136 700 c 0,20,21
 241 700 241 700 241 616 c 0,22,23
 241 566 241 566 202 543 c 1,24,25
 227 534 227 534 238 517 c 128,-1,26
 249 500 249 500 249 465 c 0,27,28
 249 368 249 368 143 368 c 1,29,-1
 30 378 l 1,1,-1
EndSplineSet
Validated: 1
Substitution2: "Single Substitution lookup 16 subtable" three.dnom
Substitution2: "'aalt' Access All Alternates lookup 0 subtable" three.dnom
EndChar

StartChar: four.numr
Encoding: 191 -1 191
Width: 280
GlyphClass: 2
Flags: W
LayerCount: 2
Fore
SplineSet
24 378 m 1024,0,-1
165 426 m 1,1,-1
 24 426 l 1,2,-1
 24 480 l 1,3,-1
 93 690 l 1,4,-1
 163 690 l 1,5,-1
 90 484 l 1,6,-1
 165 484 l 1,7,-1
 170 573 l 1,8,-1
 228 573 l 1,9,-1
 228 484 l 1,10,-1
 255 484 l 1,11,-1
 255 426 l 1,12,-1
 228 426 l 1,13,-1
 228 378 l 1,14,-1
 165 378 l 1,15,-1
 165 426 l 1,1,-1
EndSplineSet
Validated: 1
Substitution2: "Single Substitution lookup 16 subtable" four.dnom
Substitution2: "'aalt' Access All Alternates lookup 0 subtable" four.dnom
EndChar

StartChar: five.numr
Encoding: 192 -1 192
Width: 280
GlyphClass: 2
Flags: W
LayerCount: 2
Fore
SplineSet
38 370 m 1024,0,-1
54 380 m 2,2,-1
 38 383 l 1,3,-1
 43 435 l 1,4,5
 99 426 99 426 139 426 c 0,6,7
 186 426 186 426 186 474 c 0,8,9
 186 521 186 521 146 521 c 0,10,11
 119 521 119 521 94 506 c 1,12,-1
 44 512 l 1,13,-1
 54 690 l 1,14,-1
 241 690 l 1,15,-1
 241 634 l 1,16,-1
 105 634 l 1,17,-1
 100 561 l 1,18,19
 130 576 130 576 158 576 c 0,20,21
 251 576 251 576 251 478 c 0,22,23
 251 370 251 370 145 370 c 0,24,1
 97 370 97 370 54 380 c 2,2,-1
EndSplineSet
Validated: 1
Substitution2: "Single Substitution lookup 16 subtable" five.dnom
Substitution2: "'aalt' Access All Alternates lookup 0 subtable" five.dnom
EndChar

StartChar: six.numr
Encoding: 193 -1 193
Width: 280
GlyphClass: 2
Flags: W
LayerCount: 2
Fore
SplineSet
29 368 m 1024,0,-1
29 529 m 0,2,3
 29 618 29 618 58.5 659 c 128,-1,4
 88 700 88 700 152 700 c 0,5,6
 182 700 182 700 228 692 c 2,7,-1
 242 690 l 1,8,-1
 238 636 l 1,9,10
 192 643 192 643 154 643 c 0,11,12
 93 643 93 643 93 569 c 1,13,14
 137 583 137 583 153 583 c 0,15,16
 255 583 255 583 255 480 c 0,17,18
 255 428 255 428 225.5 398 c 128,-1,19
 196 368 196 368 145 368 c 0,20,1
 29 368 29 368 29 529 c 0,2,3
191 477 m 256,22,23
 191 529 191 529 151 529 c 0,24,25
 132 529 132 529 119 525.5 c 128,-1,26
 106 522 106 522 99.5 517.5 c 128,-1,27
 93 513 93 513 93 512 c 0,28,29
 96 425 96 425 144 425 c 0,30,21
 191 425 191 425 191 477 c 256,22,23
EndSplineSet
Validated: 1
Substitution2: "Single Substitution lookup 16 subtable" six.dnom
Substitution2: "'aalt' Access All Alternates lookup 0 subtable" six.dnom
EndChar

StartChar: seven.numr
Encoding: 194 -1 194
Width: 280
GlyphClass: 2
Flags: W
LayerCount: 2
Fore
SplineSet
30 369 m 1024,0,-1
62 382 m 1,1,-1
 164 607 l 1,2,-1
 164 628 l 1,3,-1
 30 628 l 1,4,-1
 30 690 l 1,5,-1
 236 690 l 1,6,-1
 236 613 l 1,7,-1
 131 369 l 1,8,-1
 62 382 l 1,1,-1
EndSplineSet
Validated: 1
Substitution2: "Single Substitution lookup 16 subtable" seven.dnom
Substitution2: "'aalt' Access All Alternates lookup 0 subtable" seven.dnom
EndChar

StartChar: eight.numr
Encoding: 195 -1 195
Width: 280
GlyphClass: 2
Flags: W
LayerCount: 2
Fore
SplineSet
22 368 m 1024,0,-1
22 463 m 0,2,3
 22 522 22 522 70 543 c 1,4,5
 27 559 27 559 27 615 c 0,6,7
 27 700 27 700 140 700 c 256,8,9
 253 700 253 700 253 615 c 0,10,11
 253 555 253 555 210 542 c 1,12,13
 258 529 258 529 258 467 c 0,14,15
 258 368 258 368 140 368 c 256,16,1
 22 368 22 368 22 463 c 0,2,3
154 565 m 1,17,18
 190 577 190 577 190 608 c 0,19,20
 190 646 190 646 140 646 c 256,21,22
 90 646 90 646 90 609 c 0,23,24
 90 579 90 579 126 565 c 1,25,-1
 154 565 l 1,17,18
193 467 m 0,27,28
 193 504 193 504 154 516 c 1,29,-1
 126 516 l 1,30,31
 87 504 87 504 87 465 c 0,32,33
 87 422 87 422 140 422 c 256,34,26
 193 422 193 422 193 467 c 0,27,28
EndSplineSet
Validated: 1
Substitution2: "Single Substitution lookup 16 subtable" eight.dnom
Substitution2: "'aalt' Access All Alternates lookup 0 subtable" eight.dnom
EndChar

StartChar: nine.numr
Encoding: 196 -1 196
Width: 280
GlyphClass: 2
Flags: W
LayerCount: 2
Fore
SplineSet
26 368 m 1024,0,-1
52 377 m 2,2,-1
 38 380 l 1,3,-1
 42 433 l 1,4,5
 84 426 84 426 124 426 c 0,6,7
 187 426 187 426 188 498 c 1,8,9
 144 486 144 486 127 486 c 0,10,11
 78 486 78 486 52 513 c 128,-1,12
 26 540 26 540 26 591 c 256,13,14
 26 642 26 642 55.5 671 c 128,-1,15
 85 700 85 700 136 700 c 0,16,17
 254 700 254 700 254 533 c 0,18,19
 254 448 254 448 224.5 408 c 128,-1,20
 195 368 195 368 130 368 c 0,21,1
 94 368 94 368 52 377 c 2,2,-1
190 552 m 1,23,24
 189 643 189 643 138 643 c 0,25,26
 90 643 90 643 90 591 c 0,27,28
 90 568 90 568 102.5 553 c 128,-1,29
 115 538 115 538 136 538 c 0,30,22
 154 538 154 538 190 552 c 1,23,24
EndSplineSet
Validated: 1
Substitution2: "Single Substitution lookup 16 subtable" nine.dnom
Substitution2: "'aalt' Access All Alternates lookup 0 subtable" nine.dnom
EndChar

StartChar: zero.dnom
Encoding: 197 -1 197
Width: 280
GlyphClass: 2
Flags: W
LayerCount: 2
Fore
SplineSet
22 0 m 1024,0,-1
53.5 26 m 128,-1,2
 22 62 22 62 22 156 c 0,3,4
 22 251 22 251 53 286.5 c 128,-1,5
 84 322 84 322 140 322 c 256,6,7
 196 322 196 322 227.5 286.5 c 128,-1,8
 259 251 259 251 259 156 c 0,9,10
 259 62 259 62 227.5 26 c 128,-1,11
 196 -10 196 -10 140 -10 c 0,12,1
 85 -10 85 -10 53.5 26 c 128,-1,2
179 71 m 128,-1,14
 193 94 193 94 193 156 c 256,15,16
 193 218 193 218 179 241 c 128,-1,17
 165 264 165 264 140 264 c 0,18,19
 114 264 114 264 100.5 241 c 128,-1,20
 87 218 87 218 87 156 c 256,21,22
 87 94 87 94 101 71 c 128,-1,23
 115 48 115 48 140 48 c 256,24,13
 165 48 165 48 179 71 c 128,-1,14
EndSplineSet
Validated: 1
EndChar

StartChar: one.dnom
Encoding: 198 -1 198
Width: 280
GlyphClass: 2
Flags: W
LayerCount: 2
Fore
SplineSet
32 0 m 1024,0,-1
129 242 m 1,1,-1
 61 195 l 1,2,-1
 32 242 l 1,3,-1
 133 312 l 1,4,-1
 193 312 l 1,5,-1
 193 0 l 1,6,-1
 129 0 l 1,7,-1
 129 242 l 1,1,-1
EndSplineSet
Validated: 1
EndChar

StartChar: two.dnom
Encoding: 199 -1 199
Width: 280
GlyphClass: 2
Flags: W
LayerCount: 2
Fore
SplineSet
30 0 m 1024,0,-1
30 55 m 1,1,-1
 118 142 l 2,2,3
 169 192 169 192 169 225 c 0,4,5
 169 262 169 262 120 262 c 1,6,-1
 35 253 l 1,7,-1
 33 310 l 1,8,9
 91 322 91 322 140 322 c 0,10,11
 235 322 235 322 235 231 c 0,12,13
 235 199 235 199 221.5 174.5 c 128,-1,14
 208 150 208 150 174 119 c 2,15,-1
 111 58 l 1,16,-1
 239 58 l 1,17,-1
 239 0 l 1,18,-1
 30 0 l 1,19,-1
 30 55 l 1,1,-1
EndSplineSet
Validated: 1
EndChar

StartChar: three.dnom
Encoding: 200 -1 200
Width: 280
GlyphClass: 2
Flags: W
LayerCount: 2
Fore
SplineSet
30 0 m 1024,0,-1
30 0 m 1,1,-1
 34 56 l 1,2,3
 95 48 95 48 138 48 c 0,4,5
 184 48 184 48 184 91 c 0,6,7
 184 133 184 133 137 133 c 2,8,-1
 72 133 l 1,9,-1
 72 186 l 1,10,-1
 137 186 l 2,11,12
 152 186 152 186 163.5 199 c 128,-1,13
 175 212 175 212 175 230 c 0,14,15
 175 264 175 264 130 264 c 2,16,-1
 38 257 l 1,17,-1
 34 312 l 1,18,19
 90 322 90 322 136 322 c 0,20,21
 241 322 241 322 241 238 c 0,22,23
 241 188 241 188 202 165 c 1,24,25
 227 156 227 156 238 139 c 128,-1,26
 249 122 249 122 249 87 c 0,27,28
 249 -10 249 -10 143 -10 c 1,29,-1
 30 0 l 1,1,-1
EndSplineSet
Validated: 1
EndChar

StartChar: four.dnom
Encoding: 201 -1 201
Width: 280
GlyphClass: 2
Flags: W
LayerCount: 2
Fore
SplineSet
24 0 m 1024,0,-1
165 48 m 1,1,-1
 24 48 l 1,2,-1
 24 102 l 1,3,-1
 93 312 l 1,4,-1
 163 312 l 1,5,-1
 90 106 l 1,6,-1
 165 106 l 1,7,-1
 170 195 l 1,8,-1
 228 195 l 1,9,-1
 228 106 l 1,10,-1
 255 106 l 1,11,-1
 255 48 l 1,12,-1
 228 48 l 1,13,-1
 228 0 l 1,14,-1
 165 0 l 1,15,-1
 165 48 l 1,1,-1
EndSplineSet
Validated: 1
EndChar

StartChar: five.dnom
Encoding: 202 -1 202
Width: 280
GlyphClass: 2
Flags: W
LayerCount: 2
Fore
SplineSet
38 0 m 1024,0,-1
54 2 m 2,2,-1
 38 5 l 1,3,-1
 43 57 l 1,4,5
 99 48 99 48 139 48 c 0,6,7
 186 48 186 48 186 96 c 0,8,9
 186 143 186 143 146 143 c 0,10,11
 119 143 119 143 94 128 c 1,12,-1
 44 134 l 1,13,-1
 54 312 l 1,14,-1
 241 312 l 1,15,-1
 241 256 l 1,16,-1
 105 256 l 1,17,-1
 100 183 l 1,18,19
 130 198 130 198 158 198 c 0,20,21
 251 198 251 198 251 100 c 0,22,23
 251 -8 251 -8 145 -8 c 0,24,1
 97 -8 97 -8 54 2 c 2,2,-1
EndSplineSet
Validated: 1
EndChar

StartChar: six.dnom
Encoding: 203 -1 203
Width: 280
GlyphClass: 2
Flags: W
LayerCount: 2
Fore
SplineSet
29 0 m 1024,0,-1
29 151 m 0,2,3
 29 240 29 240 58.5 281 c 128,-1,4
 88 322 88 322 152 322 c 0,5,6
 182 322 182 322 228 314 c 2,7,-1
 242 312 l 1,8,-1
 238 258 l 1,9,10
 192 265 192 265 154 265 c 0,11,12
 93 265 93 265 93 191 c 1,13,14
 137 205 137 205 153 205 c 0,15,16
 255 205 255 205 255 102 c 0,17,18
 255 50 255 50 225.5 20 c 128,-1,19
 196 -10 196 -10 145 -10 c 0,20,1
 29 -10 29 -10 29 151 c 0,2,3
191 99 m 256,22,23
 191 151 191 151 151 151 c 0,24,25
 132 151 132 151 119 147.5 c 128,-1,26
 106 144 106 144 99.5 139.5 c 128,-1,27
 93 135 93 135 93 134 c 0,28,29
 96 47 96 47 144 47 c 0,30,21
 191 47 191 47 191 99 c 256,22,23
EndSplineSet
Validated: 1
EndChar

StartChar: seven.dnom
Encoding: 204 -1 204
Width: 280
GlyphClass: 2
Flags: W
LayerCount: 2
Fore
SplineSet
30 0 m 1024,0,-1
62 4 m 1,1,-1
 164 229 l 1,2,-1
 164 250 l 1,3,-1
 30 250 l 1,4,-1
 30 312 l 1,5,-1
 236 312 l 1,6,-1
 236 235 l 1,7,-1
 131 -9 l 1,8,-1
 62 4 l 1,1,-1
EndSplineSet
Validated: 1
EndChar

StartChar: eight.dnom
Encoding: 205 -1 205
Width: 280
GlyphClass: 2
Flags: W
LayerCount: 2
Fore
SplineSet
22 0 m 1024,0,-1
22 85 m 0,2,3
 22 144 22 144 70 165 c 1,4,5
 27 181 27 181 27 237 c 0,6,7
 27 322 27 322 140 322 c 256,8,9
 253 322 253 322 253 237 c 0,10,11
 253 177 253 177 210 164 c 1,12,13
 258 151 258 151 258 89 c 0,14,15
 258 -10 258 -10 140 -10 c 256,16,1
 22 -10 22 -10 22 85 c 0,2,3
154 187 m 1,17,18
 190 199 190 199 190 230 c 0,19,20
 190 268 190 268 140 268 c 256,21,22
 90 268 90 268 90 231 c 0,23,24
 90 201 90 201 126 187 c 1,25,-1
 154 187 l 1,17,18
193 89 m 0,27,28
 193 126 193 126 154 138 c 1,29,-1
 126 138 l 1,30,31
 87 126 87 126 87 87 c 0,32,33
 87 44 87 44 140 44 c 256,34,26
 193 44 193 44 193 89 c 0,27,28
EndSplineSet
Validated: 1
EndChar

StartChar: nine.dnom
Encoding: 206 -1 206
Width: 280
GlyphClass: 2
Flags: W
LayerCount: 2
Fore
SplineSet
26 0 m 1024,0,-1
52 -1 m 2,2,-1
 38 2 l 1,3,-1
 42 55 l 1,4,5
 84 48 84 48 124 48 c 0,6,7
 187 48 187 48 188 120 c 1,8,9
 144 108 144 108 127 108 c 0,10,11
 78 108 78 108 52 135 c 128,-1,12
 26 162 26 162 26 213 c 256,13,14
 26 264 26 264 55.5 293 c 128,-1,15
 85 322 85 322 136 322 c 0,16,17
 254 322 254 322 254 155 c 0,18,19
 254 70 254 70 224.5 30 c 128,-1,20
 195 -10 195 -10 130 -10 c 0,21,1
 94 -10 94 -10 52 -1 c 2,2,-1
190 174 m 1,23,24
 189 265 189 265 138 265 c 0,25,26
 90 265 90 265 90 213 c 0,27,28
 90 190 90 190 102.5 175 c 128,-1,29
 115 160 115 160 136 160 c 0,30,22
 154 160 154 160 190 174 c 1,23,24
EndSplineSet
Validated: 1
EndChar

StartChar: uni0621
Encoding: 207 1569 207
Width: 407
GlyphClass: 2
Flags: W
AnchorPoint: "Anchor-2" 215 549 basechar 0
AnchorPoint: "Anchor-1" 213 -60 basechar 0
LayerCount: 2
Fore
SplineSet
119.788778878 49 m 1,0,-1
 212 303 l 1,1,-1
 368 303 l 1,2,-1
 525 303 l 1,3,-1
 468 147 l 1,4,-1
 311.366336634 147 l 1,5,-1
 275.788778878 49 l 1,6,-1
 432 49 l 1,7,-1
 414 0 l 1,8,-1
 258 0 l 1,9,-1
 102 0 l 1,10,-1
 53 0 l 1,11,-1
 71 49 l 1,12,-1
 119.788778878 49 l 1,0,-1
EndSplineSet
Validated: 1
EndChar

StartChar: uni0627
Encoding: 208 1575 208
Width: 243
GlyphClass: 2
Flags: W
AnchorPoint: "Anchor-2" -471 800 basechar 0
AnchorPoint: "Anchor-1" -454 -300 basechar 0
LayerCount: 2
Fore
SplineSet
209 430 m 1,0,-1
 366 430 l 1,1,-1
 209 0 l 1,2,-1
 53 0 l 1,3,-1
 209 430 l 1,0,-1
EndSplineSet
Validated: 1
Substitution2: "'fina' Terminal Forms lookup 13 subtable" uniFE8E
Substitution2: "'aalt' Access All Alternates lookup 0 subtable" uniFE8E
EndChar

StartChar: uniFE8E
Encoding: 209 65166 209
Width: 243
GlyphClass: 2
Flags: W
AnchorPoint: "Anchor-2" -471 800 basechar 0
AnchorPoint: "Anchor-1" -454 -300 basechar 0
LayerCount: 2
Fore
SplineSet
209 430 m 1,0,-1
 366 430 l 1,1,-1
 226.890697674 49 l 1,2,-1
 261 49 l 1,3,-1
 285 25 l 1,4,-1
 261 0 l 1,5,-1
 209 0 l 1,6,-1
 105 0 l 1,7,-1
 53 0 l 1,8,-1
 209 430 l 1,0,-1
EndSplineSet
Validated: 1
EndChar

StartChar: uni0623
Encoding: 210 1571 210
Width: 243
GlyphClass: 2
Flags: W
AnchorPoint: "Anchor-2" -471 800 basechar 0
AnchorPoint: "Anchor-1" -454 -300 basechar 0
LayerCount: 2
Fore
SplineSet
243 362 m 1,0,-1
 341 362 l 1,1,-1
 330 333 l 1,2,-1
 174 333 l 1,3,-1
 209 430 l 1,4,-1
 366 430 l 1,5,-1
 351 389 l 1,6,-1
 351 391 l 1,7,-1
 254 391 l 1,8,-1
 243 362 l 1,0,-1
163 303 m 1,9,-1
 319 303 l 1,10,-1
 209 0 l 1,11,-1
 53 0 l 1,12,-1
 163 303 l 1,9,-1
EndSplineSet
Validated: 1
Substitution2: "'fina' Terminal Forms lookup 13 subtable" uniFE84
Substitution2: "'aalt' Access All Alternates lookup 0 subtable" uniFE84
EndChar

StartChar: uniFE84
Encoding: 211 65156 211
Width: 243
GlyphClass: 2
Flags: W
AnchorPoint: "Anchor-2" -471 800 basechar 0
AnchorPoint: "Anchor-1" -454 -300 basechar 0
LayerCount: 2
Fore
SplineSet
243 362 m 1,0,-1
 341 362 l 1,1,-1
 330 333 l 1,2,-1
 174 333 l 1,3,-1
 209 430 l 1,4,-1
 366 430 l 1,5,-1
 351 389 l 1,6,-1
 351 391 l 1,7,-1
 254 391 l 1,8,-1
 243 362 l 1,0,-1
163 303 m 1,9,-1
 319 303 l 1,10,-1
 226.788778878 49 l 1,11,-1
 261 49 l 1,12,-1
 285 25 l 1,13,-1
 261 0 l 1,14,-1
 209 0 l 1,15,-1
 105 0 l 1,16,-1
 53 0 l 1,17,-1
 163 303 l 1,9,-1
EndSplineSet
Validated: 1
EndChar

StartChar: uni0625
Encoding: 212 1573 212
Width: 243
GlyphClass: 2
Flags: W
AnchorPoint: "Anchor-2" 129 800 basechar 0
AnchorPoint: "Anchor-1" 146 -300 basechar 0
LayerCount: 2
Fore
SplineSet
69 -117 m 1,0,-1
 167 -117 l 1,1,-1
 156 -146 l 1,2,-1
 0 -146 l 1,3,-1
 36 -48 l 1,4,-1
 192 -48 l 1,5,-1
 177 -90 l 1,6,-1
 178 -87 l 1,7,-1
 80 -87 l 1,8,-1
 69 -117 l 1,0,-1
210 430 m 1,9,-1
 366 430 l 1,10,-1
 210 0 l 1,11,-1
 53 0 l 1,12,-1
 210 430 l 1,9,-1
EndSplineSet
Validated: 1
Substitution2: "'fina' Terminal Forms lookup 13 subtable" uniFE88
Substitution2: "'aalt' Access All Alternates lookup 0 subtable" uniFE88
EndChar

StartChar: uniFE88
Encoding: 213 65160 213
Width: 243
GlyphClass: 2
Flags: W
AnchorPoint: "Anchor-2" -471 800 basechar 0
AnchorPoint: "Anchor-1" -454 -300 basechar 0
AnchorPoint: "Cursive-0" -339 35 entry 0
LayerCount: 2
Fore
SplineSet
69 -117 m 1,0,-1
 167 -117 l 1,1,-1
 156 -146 l 1,2,-1
 0 -146 l 1,3,-1
 36 -48 l 1,4,-1
 192 -48 l 1,5,-1
 177 -90 l 1,6,-1
 178 -87 l 1,7,-1
 80 -87 l 1,8,-1
 69 -117 l 1,0,-1
210 430 m 1,9,-1
 366 430 l 1,10,-1
 227.776744186 49 l 1,11,-1
 261 49 l 1,12,-1
 286 25 l 1,13,-1
 261 0 l 1,14,-1
 210 0 l 1,15,-1
 105 0 l 1,16,-1
 53 0 l 1,17,-1
 210 430 l 1,9,-1
EndSplineSet
Validated: 1
EndChar

StartChar: uni0622
Encoding: 214 1570 214
Width: 243
GlyphClass: 2
Flags: W
AnchorPoint: "Anchor-2" -145 870 basechar 0
AnchorPoint: "Anchor-1" -145 -60 basechar 0
LayerCount: 2
Fore
SplineSet
221 381 m 1,0,-1
 203 332 l 1,1,-1
 174 332 l 1,2,-1
 209 430 l 1,3,-1
 307 430 l 1,4,-1
 289 381 l 1,5,-1
 319 381 l 1,6,-1
 336 430 l 1,7,-1
 366 430 l 1,8,-1
 330 332 l 1,9,-1
 232 332 l 1,10,-1
 250 381 l 1,11,-1
 221 381 l 1,0,-1
53 0 m 1,12,-1
 163 303 l 1,13,-1
 319 303 l 1,14,-1
 209 0 l 1,15,-1
 53 0 l 1,12,-1
EndSplineSet
Validated: 1
Substitution2: "'fina' Terminal Forms lookup 13 subtable" uniFE82
Substitution2: "'aalt' Access All Alternates lookup 0 subtable" uniFE82
EndChar

StartChar: uniFE82
Encoding: 215 65154 215
Width: 243
GlyphClass: 2
Flags: W
AnchorPoint: "Anchor-2" -145 870 basechar 0
AnchorPoint: "Anchor-1" -145 -60 basechar 0
AnchorPoint: "Cursive-0" -13 35 entry 0
LayerCount: 2
Fore
SplineSet
221 381 m 1,0,-1
 203 332 l 1,1,-1
 174 332 l 1,2,-1
 209 430 l 1,3,-1
 307 430 l 1,4,-1
 289 381 l 1,5,-1
 319 381 l 1,6,-1
 336 430 l 1,7,-1
 366 430 l 1,8,-1
 330 332 l 1,9,-1
 232 332 l 1,10,-1
 250 381 l 1,11,-1
 221 381 l 1,0,-1
261 0 m 1,12,-1
 209 0 l 1,13,-1
 105 0 l 1,14,-1
 53 0 l 1,15,-1
 163 303 l 1,16,-1
 319 303 l 1,17,-1
 226.788778878 49 l 1,18,-1
 261 49 l 1,19,-1
 285 25 l 1,20,-1
 261 0 l 1,12,-1
EndSplineSet
Validated: 1
EndChar

StartChar: uni066E
Encoding: 216 1646 216
Width: 554
GlyphClass: 2
Flags: W
AnchorPoint: "Anchor-2" 473 805 basechar 0
AnchorPoint: "Anchor-1" 473 -120 basechar 0
LayerCount: 2
Fore
SplineSet
92 254 m 1,0,-1
 249 254 l 1,1,-1
 156 0 l 1,2,-1
 174 49 l 1,3,-1
 427.788778878 49 l 1,4,-1
 520 303 l 1,5,-1
 677 303 l 1,6,-1
 566 0 l 1,7,-1
 410 0 l 1,8,-1
 156 0 l 1,9,-1
 0 0 l 1,10,-1
 92 254 l 1,0,-1
EndSplineSet
Validated: 5
Substitution2: "'fina' Terminal Forms lookup 13 subtable" uni066E.fina
Substitution2: "'medi' Medial Forms lookup 12 subtable" uni066E.medi
Substitution2: "'init' Initial Forms lookup 11 subtable" uni066E.init
AlternateSubs2: "'aalt' Access All Alternates lookup 1 subtable" uni066E.init uni066E.medi uni066E.fina
EndChar

StartChar: uni066E.fina
Encoding: 217 -1 217
Width: 554
GlyphClass: 2
Flags: W
AnchorPoint: "Anchor-2" 473 805 basechar 0
AnchorPoint: "Anchor-1" 473 -120 basechar 0
LayerCount: 2
Fore
SplineSet
92 254 m 1,0,-1
 249 254 l 1,1,-1
 156 0 l 1,2,-1
 174 49 l 1,3,-1
 416 49 l 1,4,-1
 427.788778878 49 l 1,5,-1
 520 303 l 1,6,-1
 677 303 l 1,7,-1
 580.925948044 40.7438041206 l 1,8,-1
 597 24 l 1,9,-1
 573 0 l 1,10,-1
 566 0 l 1,11,-1
 416 0 l 1,12,-1
 410 0 l 1,13,-1
 156 0 l 1,14,-1
 0 0 l 1,15,-1
 92 254 l 1,0,-1
EndSplineSet
Validated: 5
EndChar

StartChar: uni066E.medi
Encoding: 218 -1 218
Width: 349
GlyphClass: 2
Flags: W
AnchorPoint: "Anchor-2" 351 805 basechar 0
AnchorPoint: "Anchor-1" 351 -120 basechar 0
LayerCount: 2
Fore
SplineSet
315 303 m 1,0,-1
 472 303 l 1,1,-1
 377.306957301 44.5135861451 l 1,2,-1
 397 24 l 1,3,-1
 373 0 l 1,4,-1
 361 0 l 1,5,-1
 216 0 l 1,6,-1
 205 0 l 1,7,-1
 0 0 l 1,8,-1
 18 49 l 1,9,-1
 216 49 l 1,10,-1
 222.788778878 49 l 1,11,-1
 315 303 l 1,0,-1
EndSplineSet
Validated: 1
EndChar

StartChar: uni066E.init
Encoding: 219 -1 219
Width: 349
GlyphClass: 2
Flags: W
AnchorPoint: "Anchor-2" 351 805 basechar 0
AnchorPoint: "Anchor-1" 351 -120 basechar 0
LayerCount: 2
Fore
SplineSet
315 303 m 1,0,-1
 472 303 l 1,1,-1
 361 0 l 1,2,-1
 205 0 l 1,3,-1
 0 0 l 1,4,-1
 18 49 l 1,5,-1
 222.788778878 49 l 1,6,-1
 315 303 l 1,0,-1
EndSplineSet
Validated: 1
EndChar

StartChar: uni0628
Encoding: 220 1576 220
Width: 554
GlyphClass: 2
Flags: W
AnchorPoint: "Anchor-2" 473 805 basechar 0
AnchorPoint: "Anchor-1" 473 -120 basechar 0
LayerCount: 2
Fore
SplineSet
289 -136 m 0,0,1
 268 -136 268 -136 253 -120.5 c 128,-1,2
 238 -105 238 -105 238 -82 c 0,3,4
 238 -60 238 -60 253 -44 c 128,-1,5
 268 -28 268 -28 289 -28 c 0,6,7
 311 -28 311 -28 326 -44 c 128,-1,8
 341 -60 341 -60 341 -82 c 0,9,10
 341 -105 341 -105 326 -120.5 c 128,-1,11
 311 -136 311 -136 289 -136 c 0,0,1
92 254 m 1,12,-1
 249 254 l 1,13,-1
 156 0 l 1,14,-1
 174 49 l 1,15,-1
 427.788778878 49 l 1,16,-1
 520 303 l 1,17,-1
 677 303 l 1,18,-1
 566 0 l 1,19,-1
 410 0 l 1,20,-1
 156 0 l 1,21,-1
 0 0 l 1,22,-1
 92 254 l 1,12,-1
EndSplineSet
Validated: 5
Substitution2: "'fina' Terminal Forms lookup 13 subtable" uniFE90
Substitution2: "'medi' Medial Forms lookup 12 subtable" uniFE92
Substitution2: "'init' Initial Forms lookup 11 subtable" uniFE91
AlternateSubs2: "'aalt' Access All Alternates lookup 1 subtable" uniFE91 uniFE92 uniFE90
EndChar

StartChar: uniFE90
Encoding: 221 65168 221
Width: 554
GlyphClass: 2
Flags: W
AnchorPoint: "Anchor-2" 473 805 basechar 0
AnchorPoint: "Anchor-1" 473 -120 basechar 0
LayerCount: 2
Fore
SplineSet
289 -136 m 0,0,1
 268 -136 268 -136 253 -120.5 c 128,-1,2
 238 -105 238 -105 238 -82 c 0,3,4
 238 -60 238 -60 253 -44 c 128,-1,5
 268 -28 268 -28 289 -28 c 0,6,7
 311 -28 311 -28 326 -44 c 128,-1,8
 341 -60 341 -60 341 -82 c 0,9,10
 341 -105 341 -105 326 -120.5 c 128,-1,11
 311 -136 311 -136 289 -136 c 0,0,1
92 254 m 1,12,-1
 249 254 l 1,13,-1
 156 0 l 1,14,-1
 174 49 l 1,15,-1
 416 49 l 1,16,-1
 427.788778878 49 l 1,17,-1
 520 303 l 1,18,-1
 677 303 l 1,19,-1
 580.925948044 40.7438041206 l 1,20,-1
 597 24 l 1,21,-1
 573 0 l 1,22,-1
 566 0 l 1,23,-1
 416 0 l 1,24,-1
 410 0 l 1,25,-1
 156 0 l 1,26,-1
 0 0 l 1,27,-1
 92 254 l 1,12,-1
EndSplineSet
Validated: 5
EndChar

StartChar: uniFE92
Encoding: 222 65170 222
Width: 278
GlyphClass: 2
Flags: W
AnchorPoint: "Anchor-2" 21 805 basechar 0
AnchorPoint: "Anchor-1" 21 -120 basechar 0
LayerCount: 2
Fore
SplineSet
100 -136 m 0,0,1
 79 -136 79 -136 64 -120.5 c 128,-1,2
 49 -105 49 -105 49 -82 c 0,3,4
 49 -60 49 -60 64 -44 c 128,-1,5
 79 -28 79 -28 100 -28 c 0,6,7
 122 -28 122 -28 137 -44 c 128,-1,8
 152 -60 152 -60 152 -82 c 0,9,10
 152 -105 152 -105 137 -120.5 c 128,-1,11
 122 -136 122 -136 100 -136 c 0,0,1
244 303 m 1,12,-1
 401 303 l 1,13,-1
 304.925948044 40.7438041206 l 1,14,-1
 321 24 l 1,15,-1
 297 0 l 1,16,-1
 290 0 l 1,17,-1
 181 0 l 1,18,-1
 140 0 l 1,19,-1
 134 0 l 1,20,-1
 -24 0 l 1,21,-1
 -6 49 l 1,22,-1
 140 49 l 1,23,-1
 151.788778878 49 l 1,24,-1
 244 303 l 1,12,-1
EndSplineSet
Validated: 1
EndChar

StartChar: uniFE91
Encoding: 223 65169 223
Width: 252
GlyphClass: 2
Flags: W
AnchorPoint: "Anchor-2" -5 805 basechar 0
AnchorPoint: "Anchor-1" -5 -120 basechar 0
LayerCount: 2
Fore
SplineSet
90 -136 m 0,0,1
 69 -136 69 -136 54 -120.5 c 128,-1,2
 39 -105 39 -105 39 -82 c 0,3,4
 39 -60 39 -60 54 -44 c 128,-1,5
 69 -28 69 -28 90 -28 c 0,6,7
 112 -28 112 -28 127 -44 c 128,-1,8
 142 -60 142 -60 142 -82 c 0,9,10
 142 -105 142 -105 127 -120.5 c 128,-1,11
 112 -136 112 -136 90 -136 c 0,0,1
218 303 m 1,12,-1
 375 303 l 1,13,-1
 264 0 l 1,14,-1
 164 0 l 1,15,-1
 108 0 l 1,16,-1
 -41 0 l 1,17,-1
 -23 49 l 1,18,-1
 125.788778878 49 l 1,19,-1
 218 303 l 1,12,-1
EndSplineSet
Validated: 1
EndChar

StartChar: uni067E
Encoding: 224 1662 224
Width: 554
GlyphClass: 2
Flags: W
AnchorPoint: "Anchor-2" 473 805 basechar 0
AnchorPoint: "Anchor-1" 473 -120 basechar 0
LayerCount: 2
Fore
SplineSet
147 -94 m 1,0,1
 193 -60 193 -60 222 -87 c 1,2,3
 243 -121 243 -121 202 -160 c 1,4,5
 157 -193 157 -193 127 -166 c 1,6,7
 106 -133 106 -133 147 -94 c 1,0,1
352 -94 m 0,8,9
 398 -60 398 -60 427 -87 c 1,10,11
 448 -121 448 -121 407 -160 c 1,12,13
 362 -193 362 -193 332 -166 c 1,14,15
 322.100982538 -150.444401131 322.100982538 -150.444401131 325.978413819 -133.555597545 c 1,16,17
 319.216244061 -146.47723126 319.216244061 -146.47723126 305 -160 c 0,18,19
 259 -193 259 -193 230 -166 c 1,20,21
 209 -133 209 -133 250 -94 c 1,22,23
 296 -60 296 -60 325 -87 c 1,24,25
 334.980455512 -103.158832734 334.980455512 -103.158832734 330.956855485 -120.447024816 c 1,26,27
 337.71553318 -107.587663479 337.71553318 -107.587663479 352 -94 c 0,8,9
92 254 m 1,28,-1
 249 254 l 1,29,-1
 156 0 l 1,30,-1
 174 49 l 1,31,-1
 427.788778878 49 l 1,32,-1
 520 303 l 1,33,-1
 677 303 l 1,34,-1
 566 0 l 1,35,-1
 410 0 l 1,36,-1
 156 0 l 1,37,-1
 0 0 l 1,38,-1
 92 254 l 1,28,-1
EndSplineSet
Validated: 37
Substitution2: "'fina' Terminal Forms lookup 13 subtable" uniFB57
Substitution2: "'medi' Medial Forms lookup 12 subtable" uniFB59
Substitution2: "'init' Initial Forms lookup 11 subtable" uniFB58
AlternateSubs2: "'aalt' Access All Alternates lookup 1 subtable" uniFB58 uniFB59 uniFB57
EndChar

StartChar: uniFB57
Encoding: 225 64343 225
Width: 554
GlyphClass: 2
Flags: W
AnchorPoint: "Anchor-2" 473 805 basechar 0
AnchorPoint: "Anchor-1" 473 -120 basechar 0
LayerCount: 2
Fore
SplineSet
147 -94 m 1,0,1
 193 -60 193 -60 222 -87 c 1,2,3
 243 -121 243 -121 202 -160 c 1,4,5
 157 -193 157 -193 127 -166 c 1,6,7
 106 -133 106 -133 147 -94 c 1,0,1
352 -94 m 0,8,9
 398 -60 398 -60 427 -87 c 1,10,11
 448 -121 448 -121 407 -160 c 1,12,13
 362 -193 362 -193 332 -166 c 1,14,15
 322.100982538 -150.444401131 322.100982538 -150.444401131 325.978413819 -133.555597545 c 1,16,17
 319.216244061 -146.47723126 319.216244061 -146.47723126 305 -160 c 0,18,19
 259 -193 259 -193 230 -166 c 1,20,21
 209 -133 209 -133 250 -94 c 1,22,23
 296 -60 296 -60 325 -87 c 1,24,25
 334.980455512 -103.158832734 334.980455512 -103.158832734 330.956855485 -120.447024816 c 1,26,27
 337.71553318 -107.587663479 337.71553318 -107.587663479 352 -94 c 0,8,9
92 254 m 1,28,-1
 249 254 l 1,29,-1
 156 0 l 1,30,-1
 174 49 l 1,31,-1
 416 49 l 1,32,-1
 427.788778878 49 l 1,33,-1
 520 303 l 1,34,-1
 677 303 l 1,35,-1
 580.925948044 40.7438041206 l 1,36,-1
 597 24 l 1,37,-1
 573 0 l 1,38,-1
 566 0 l 1,39,-1
 416 0 l 1,40,-1
 410 0 l 1,41,-1
 156 0 l 1,42,-1
 0 0 l 1,43,-1
 92 254 l 1,28,-1
EndSplineSet
Validated: 37
EndChar

StartChar: uniFB59
Encoding: 226 64345 226
Width: 349
GlyphClass: 2
Flags: W
AnchorPoint: "Anchor-2" 92 805 basechar 0
AnchorPoint: "Anchor-1" 92 -120 basechar 0
LayerCount: 2
Fore
SplineSet
315 303 m 1,0,-1
 472 303 l 1,1,-1
 375.925948044 40.7438041206 l 1,2,-1
 392 24 l 1,3,-1
 368 0 l 1,4,-1
 361 0 l 1,5,-1
 211 0 l 1,6,-1
 205 0 l 1,7,-1
 0 0 l 1,8,-1
 18 49 l 1,9,-1
 211 49 l 1,10,-1
 222.788778878 49 l 1,11,-1
 315 303 l 1,0,-1
27 -94 m 1,12,13
 73 -60 73 -60 102 -87 c 1,14,15
 123 -121 123 -121 82 -160 c 1,16,17
 37 -193 37 -193 7 -166 c 1,18,19
 -14 -133 -14 -133 27 -94 c 1,12,13
232 -94 m 0,20,21
 278 -60 278 -60 307 -87 c 1,22,23
 328 -121 328 -121 287 -160 c 1,24,25
 242 -193 242 -193 212 -166 c 1,26,27
 202.100982538 -150.444401131 202.100982538 -150.444401131 205.978413819 -133.555597545 c 1,28,29
 199.216244061 -146.47723126 199.216244061 -146.47723126 185 -160 c 0,30,31
 139 -193 139 -193 110 -166 c 1,32,33
 89 -133 89 -133 130 -94 c 1,34,35
 176 -60 176 -60 205 -87 c 1,36,37
 214.980455512 -103.158832734 214.980455512 -103.158832734 210.956855485 -120.447024816 c 1,38,39
 217.71553318 -107.587663479 217.71553318 -107.587663479 232 -94 c 0,20,21
EndSplineSet
Validated: 33
EndChar

StartChar: uniFB58
Encoding: 227 64344 227
Width: 349
GlyphClass: 2
Flags: W
AnchorPoint: "Anchor-2" 92 805 basechar 0
AnchorPoint: "Anchor-1" 92 -120 basechar 0
LayerCount: 2
Fore
SplineSet
315 303 m 1,0,-1
 472 303 l 1,1,-1
 361 0 l 1,2,-1
 205 0 l 1,3,-1
 0 0 l 1,4,-1
 18 49 l 1,5,-1
 222.788778878 49 l 1,6,-1
 315 303 l 1,0,-1
27 -94 m 1,7,8
 73 -60 73 -60 102 -87 c 1,9,10
 123 -121 123 -121 82 -160 c 1,11,12
 37 -193 37 -193 7 -166 c 1,13,14
 -14 -133 -14 -133 27 -94 c 1,7,8
232 -94 m 0,15,16
 278 -60 278 -60 307 -87 c 1,17,18
 328 -121 328 -121 287 -160 c 1,19,20
 242 -193 242 -193 212 -166 c 1,21,22
 202.100982538 -150.444401131 202.100982538 -150.444401131 205.978413819 -133.555597545 c 1,23,24
 199.216244061 -146.47723126 199.216244061 -146.47723126 185 -160 c 0,25,26
 139 -193 139 -193 110 -166 c 1,27,28
 89 -133 89 -133 130 -94 c 1,29,30
 176 -60 176 -60 205 -87 c 1,31,32
 214.980455512 -103.158832734 214.980455512 -103.158832734 210.956855485 -120.447024816 c 1,33,34
 217.71553318 -107.587663479 217.71553318 -107.587663479 232 -94 c 0,15,16
EndSplineSet
Validated: 33
EndChar

StartChar: uniFBE9
Encoding: 228 64489 228
Width: 349
GlyphClass: 2
Flags: W
AnchorPoint: "Anchor-2" 351 805 basechar 0
AnchorPoint: "Anchor-1" 351 -120 basechar 0
LayerCount: 2
Fore
SplineSet
315 303 m 1,0,-1
 472 303 l 1,1,-1
 377.306957301 44.5135861451 l 1,2,-1
 397 24 l 1,3,-1
 373 0 l 1,4,-1
 361 0 l 1,5,-1
 216 0 l 1,6,-1
 205 0 l 1,7,-1
 0 0 l 1,8,-1
 18 49 l 1,9,-1
 216 49 l 1,10,-1
 222.788778878 49 l 1,11,-1
 315 303 l 1,0,-1
EndSplineSet
Validated: 1
EndChar

StartChar: uniFBE8
Encoding: 229 64488 229
Width: 349
GlyphClass: 2
Flags: W
AnchorPoint: "Anchor-2" 351 805 basechar 0
AnchorPoint: "Anchor-1" 351 -120 basechar 0
LayerCount: 2
Fore
SplineSet
315 303 m 1,0,-1
 472 303 l 1,1,-1
 361 0 l 1,2,-1
 205 0 l 1,3,-1
 0 0 l 1,4,-1
 18 49 l 1,5,-1
 222.788778878 49 l 1,6,-1
 315 303 l 1,0,-1
EndSplineSet
Validated: 1
EndChar

StartChar: uni062A
Encoding: 230 1578 230
Width: 554
GlyphClass: 2
Flags: W
AnchorPoint: "Anchor-2" 473 805 basechar 0
AnchorPoint: "Anchor-1" 473 -120 basechar 0
LayerCount: 2
Fore
SplineSet
310 267 m 0,0,1
 289 267 289 267 274 282.5 c 128,-1,2
 259 298 259 298 259 321 c 0,3,4
 259 343 259 343 274 359 c 128,-1,5
 289 375 289 375 310 375 c 0,6,7
 332 375 332 375 347 359 c 128,-1,8
 362 343 362 343 362 321 c 0,9,10
 362 298 362 298 347 282.5 c 128,-1,11
 332 267 332 267 310 267 c 0,0,1
421 267 m 0,12,13
 400 267 400 267 385 282.5 c 128,-1,14
 370 298 370 298 370 321 c 0,15,16
 370 343 370 343 385 359 c 128,-1,17
 400 375 400 375 421 375 c 0,18,19
 443 375 443 375 458 359 c 128,-1,20
 473 343 473 343 473 321 c 0,21,22
 473 298 473 298 458 282.5 c 128,-1,23
 443 267 443 267 421 267 c 0,12,13
92 254 m 1,24,-1
 249 254 l 1,25,-1
 156 0 l 1,26,-1
 174 49 l 1,27,-1
 427.788778878 49 l 1,28,-1
 520 303 l 1,29,-1
 677 303 l 1,30,-1
 566 0 l 1,31,-1
 410 0 l 1,32,-1
 156 0 l 1,33,-1
 0 0 l 1,34,-1
 92 254 l 1,24,-1
EndSplineSet
Validated: 5
Substitution2: "'fina' Terminal Forms lookup 13 subtable" uniFE96
Substitution2: "'medi' Medial Forms lookup 12 subtable" uniFE98
Substitution2: "'init' Initial Forms lookup 11 subtable" uniFE97
AlternateSubs2: "'aalt' Access All Alternates lookup 1 subtable" uniFE97 uniFE98 uniFE96
EndChar

StartChar: uniFE96
Encoding: 231 65174 231
Width: 554
GlyphClass: 2
Flags: W
AnchorPoint: "Anchor-2" 473 805 basechar 0
AnchorPoint: "Anchor-1" 473 -120 basechar 0
LayerCount: 2
Fore
SplineSet
471 326 m 0,0,1
 450 326 450 326 435 341.5 c 128,-1,2
 420 357 420 357 420 380 c 0,3,4
 420 402 420 402 435 418 c 128,-1,5
 450 434 450 434 471 434 c 0,6,7
 493 434 493 434 508 418 c 128,-1,8
 523 402 523 402 523 380 c 0,9,10
 523 357 523 357 508 341.5 c 128,-1,11
 493 326 493 326 471 326 c 0,0,1
361 326 m 0,12,13
 340 326 340 326 325 341.5 c 128,-1,14
 310 357 310 357 310 380 c 0,15,16
 310 402 310 402 325 418 c 128,-1,17
 340 434 340 434 361 434 c 0,18,19
 383 434 383 434 398 418 c 128,-1,20
 413 402 413 402 413 380 c 0,21,22
 413 357 413 357 398 341.5 c 128,-1,23
 383 326 383 326 361 326 c 0,12,13
92 254 m 1,24,-1
 249 254 l 1,25,-1
 156 0 l 1,26,-1
 174 49 l 1,27,-1
 416 49 l 1,28,-1
 427.788778878 49 l 1,29,-1
 520 303 l 1,30,-1
 677 303 l 1,31,-1
 580.925948044 40.7438041206 l 1,32,-1
 597 24 l 1,33,-1
 573 0 l 1,34,-1
 566 0 l 1,35,-1
 416 0 l 1,36,-1
 410 0 l 1,37,-1
 156 0 l 1,38,-1
 0 0 l 1,39,-1
 92 254 l 1,24,-1
EndSplineSet
Validated: 5
EndChar

StartChar: uniFE98
Encoding: 232 65176 232
Width: 253
GlyphClass: 2
Flags: W
AnchorPoint: "Anchor-2" 250 805 basechar 0
AnchorPoint: "Anchor-1" 250 -120 basechar 0
LayerCount: 2
Fore
SplineSet
297 326 m 0,0,1
 276 326 276 326 261 341.5 c 128,-1,2
 246 357 246 357 246 380 c 0,3,4
 246 402 246 402 261 418 c 128,-1,5
 276 434 276 434 297 434 c 0,6,7
 319 434 319 434 334 418 c 128,-1,8
 349 402 349 402 349 380 c 0,9,10
 349 357 349 357 334 341.5 c 128,-1,11
 319 326 319 326 297 326 c 0,0,1
187 326 m 0,12,13
 166 326 166 326 151 341.5 c 128,-1,14
 136 357 136 357 136 380 c 0,15,16
 136 402 136 402 151 418 c 128,-1,17
 166 434 166 434 187 434 c 0,18,19
 209 434 209 434 224 418 c 128,-1,20
 239 402 239 402 239 380 c 0,21,22
 239 357 239 357 224 341.5 c 128,-1,23
 209 326 209 326 187 326 c 0,12,13
214 303 m 1,24,-1
 371 303 l 1,25,-1
 276.306957301 44.5135861451 l 1,26,-1
 296 24 l 1,27,-1
 272 0 l 1,28,-1
 260 0 l 1,29,-1
 158 0 l 1,30,-1
 115 0 l 1,31,-1
 104 0 l 1,32,-1
 -47 0 l 1,33,-1
 -29 49 l 1,34,-1
 115 49 l 1,35,-1
 121.788778878 49 l 1,36,-1
 214 303 l 1,24,-1
EndSplineSet
Validated: 1
EndChar

StartChar: uniFE97
Encoding: 233 65175 233
Width: 250
GlyphClass: 2
Flags: W
AnchorPoint: "Anchor-2" 247 805 basechar 0
AnchorPoint: "Anchor-1" 247 -120 basechar 0
LayerCount: 2
Fore
SplineSet
297 326 m 0,0,1
 276 326 276 326 261 341.5 c 128,-1,2
 246 357 246 357 246 380 c 0,3,4
 246 402 246 402 261 418 c 128,-1,5
 276 434 276 434 297 434 c 0,6,7
 319 434 319 434 334 418 c 128,-1,8
 349 402 349 402 349 380 c 0,9,10
 349 357 349 357 334 341.5 c 128,-1,11
 319 326 319 326 297 326 c 0,0,1
187 326 m 0,12,13
 166 326 166 326 151 341.5 c 128,-1,14
 136 357 136 357 136 380 c 0,15,16
 136 402 136 402 151 418 c 128,-1,17
 166 434 166 434 187 434 c 0,18,19
 209 434 209 434 224 418 c 128,-1,20
 239 402 239 402 239 380 c 0,21,22
 239 357 239 357 224 341.5 c 128,-1,23
 209 326 209 326 187 326 c 0,12,13
211 303 m 1,24,-1
 368 303 l 1,25,-1
 257 0 l 1,26,-1
 176 0 l 1,27,-1
 101 0 l 1,28,-1
 -29 0 l 1,29,-1
 -11 49 l 1,30,-1
 118.788778878 49 l 1,31,-1
 211 303 l 1,24,-1
EndSplineSet
Validated: 1
EndChar

StartChar: uni062B
Encoding: 234 1579 234
Width: 554
GlyphClass: 2
Flags: W
AnchorPoint: "Anchor-2" 473 805 basechar 0
AnchorPoint: "Anchor-1" 473 -120 basechar 0
LayerCount: 2
Fore
SplineSet
309 268 m 0,0,1
 288 268 288 268 273 283.5 c 128,-1,2
 258 299 258 299 258 322 c 0,3,4
 258 344 258 344 273 360 c 128,-1,5
 288 376 288 376 309 376 c 0,6,7
 331 376 331 376 346 360 c 128,-1,8
 361 344 361 344 361 322 c 0,9,10
 361 299 361 299 346 283.5 c 128,-1,11
 331 268 331 268 309 268 c 0,0,1
365 368 m 0,12,13
 343 368 343 368 328 383.5 c 128,-1,14
 313 399 313 399 313 422 c 0,15,16
 313 444 313 444 328 460 c 128,-1,17
 343 476 343 476 365 476 c 0,18,19
 386 476 386 476 401 460 c 128,-1,20
 416 444 416 444 416 422 c 0,21,22
 416 399 416 399 401 383.5 c 128,-1,23
 386 368 386 368 365 368 c 0,12,13
420 268 m 0,24,25
 399 268 399 268 384 283.5 c 128,-1,26
 369 299 369 299 369 322 c 0,27,28
 369 344 369 344 384 360 c 128,-1,29
 399 376 399 376 420 376 c 0,30,31
 442 376 442 376 457 360 c 128,-1,32
 472 344 472 344 472 322 c 0,33,34
 472 299 472 299 457 283.5 c 128,-1,35
 442 268 442 268 420 268 c 0,24,25
92 254 m 1,36,-1
 249 254 l 1,37,-1
 156 0 l 1,38,-1
 174 49 l 1,39,-1
 427.788778878 49 l 1,40,-1
 520 303 l 1,41,-1
 677 303 l 1,42,-1
 566 0 l 1,43,-1
 410 0 l 1,44,-1
 156 0 l 1,45,-1
 0 0 l 1,46,-1
 92 254 l 1,36,-1
EndSplineSet
Validated: 5
Substitution2: "'fina' Terminal Forms lookup 13 subtable" uniFE9A
Substitution2: "'medi' Medial Forms lookup 12 subtable" uniFE9C
Substitution2: "'init' Initial Forms lookup 11 subtable" uniFE9B
AlternateSubs2: "'aalt' Access All Alternates lookup 1 subtable" uniFE9B uniFE9C uniFE9A
EndChar

StartChar: uniFE9A
Encoding: 235 65178 235
Width: 554
GlyphClass: 2
Flags: W
AnchorPoint: "Anchor-2" 473 805 basechar 0
AnchorPoint: "Anchor-1" 473 -120 basechar 0
AnchorPoint: "Cursive-0" 915 35 entry 0
LayerCount: 2
Fore
SplineSet
320 260 m 0,0,1
 299 260 299 260 284 275.5 c 128,-1,2
 269 291 269 291 269 314 c 0,3,4
 269 336 269 336 284 352 c 128,-1,5
 299 368 299 368 320 368 c 0,6,7
 342 368 342 368 357 352 c 128,-1,8
 372 336 372 336 372 314 c 0,9,10
 372 291 372 291 357 275.5 c 128,-1,11
 342 260 342 260 320 260 c 0,0,1
376 360 m 0,12,13
 354 360 354 360 339 375.5 c 128,-1,14
 324 391 324 391 324 414 c 0,15,16
 324 436 324 436 339 452 c 128,-1,17
 354 468 354 468 376 468 c 0,18,19
 397 468 397 468 412 452 c 128,-1,20
 427 436 427 436 427 414 c 0,21,22
 427 391 427 391 412 375.5 c 128,-1,23
 397 360 397 360 376 360 c 0,12,13
431 260 m 0,24,25
 410 260 410 260 395 275.5 c 128,-1,26
 380 291 380 291 380 314 c 0,27,28
 380 336 380 336 395 352 c 128,-1,29
 410 368 410 368 431 368 c 0,30,31
 453 368 453 368 468 352 c 128,-1,32
 483 336 483 336 483 314 c 0,33,34
 483 291 483 291 468 275.5 c 128,-1,35
 453 260 453 260 431 260 c 0,24,25
92 254 m 1,36,-1
 249 254 l 1,37,-1
 156 0 l 1,38,-1
 174 49 l 1,39,-1
 416 49 l 1,40,-1
 427.788778878 49 l 1,41,-1
 520 303 l 1,42,-1
 677 303 l 1,43,-1
 580.925948044 40.7438041206 l 1,44,-1
 597 24 l 1,45,-1
 573 0 l 1,46,-1
 566 0 l 1,47,-1
 416 0 l 1,48,-1
 410 0 l 1,49,-1
 156 0 l 1,50,-1
 0 0 l 1,51,-1
 92 254 l 1,36,-1
EndSplineSet
Validated: 5
EndChar

StartChar: uniFE9C
Encoding: 236 65180 236
Width: 252
GlyphClass: 2
Flags: W
AnchorPoint: "Anchor-2" 249 805 basechar 0
AnchorPoint: "Anchor-1" 249 -120 basechar 0
LayerCount: 2
Fore
SplineSet
171 326 m 0,0,1
 150 326 150 326 135 341.5 c 128,-1,2
 120 357 120 357 120 380 c 0,3,4
 120 402 120 402 135 418 c 128,-1,5
 150 434 150 434 171 434 c 0,6,7
 193 434 193 434 208 418 c 128,-1,8
 223 402 223 402 223 380 c 0,9,10
 223 357 223 357 208 341.5 c 128,-1,11
 193 326 193 326 171 326 c 0,0,1
227 426 m 0,12,13
 205 426 205 426 190 441.5 c 128,-1,14
 175 457 175 457 175 480 c 0,15,16
 175 502 175 502 190 518 c 128,-1,17
 205 534 205 534 227 534 c 0,18,19
 248 534 248 534 263 518 c 128,-1,20
 278 502 278 502 278 480 c 0,21,22
 278 457 278 457 263 441.5 c 128,-1,23
 248 426 248 426 227 426 c 0,12,13
282 326 m 0,24,25
 261 326 261 326 246 341.5 c 128,-1,26
 231 357 231 357 231 380 c 0,27,28
 231 402 231 402 246 418 c 128,-1,29
 261 434 261 434 282 434 c 0,30,31
 304 434 304 434 319 418 c 128,-1,32
 334 402 334 402 334 380 c 0,33,34
 334 357 334 357 319 341.5 c 128,-1,35
 304 326 304 326 282 326 c 0,24,25
213 303 m 1,36,-1
 370 303 l 1,37,-1
 275.306957301 44.5135861451 l 1,38,-1
 295 24 l 1,39,-1
 271 0 l 1,40,-1
 259 0 l 1,41,-1
 166 0 l 1,42,-1
 114 0 l 1,43,-1
 103 0 l 1,44,-1
 -39 0 l 1,45,-1
 -21 49 l 1,46,-1
 114 49 l 1,47,-1
 120.788778878 49 l 1,48,-1
 213 303 l 1,36,-1
EndSplineSet
Validated: 1
EndChar

StartChar: uniFE9B
Encoding: 237 65179 237
Width: 254
GlyphClass: 2
Flags: W
AnchorPoint: "Anchor-2" 251 805 basechar 0
AnchorPoint: "Anchor-1" 251 -120 basechar 0
LayerCount: 2
Fore
SplineSet
157 326 m 0,0,1
 136 326 136 326 121 341.5 c 128,-1,2
 106 357 106 357 106 380 c 0,3,4
 106 402 106 402 121 418 c 128,-1,5
 136 434 136 434 157 434 c 0,6,7
 179 434 179 434 194 418 c 128,-1,8
 209 402 209 402 209 380 c 0,9,10
 209 357 209 357 194 341.5 c 128,-1,11
 179 326 179 326 157 326 c 0,0,1
213 426 m 0,12,13
 191 426 191 426 176 441.5 c 128,-1,14
 161 457 161 457 161 480 c 0,15,16
 161 502 161 502 176 518 c 128,-1,17
 191 534 191 534 213 534 c 0,18,19
 234 534 234 534 249 518 c 128,-1,20
 264 502 264 502 264 480 c 0,21,22
 264 457 264 457 249 441.5 c 128,-1,23
 234 426 234 426 213 426 c 0,12,13
268 326 m 0,24,25
 247 326 247 326 232 341.5 c 128,-1,26
 217 357 217 357 217 380 c 0,27,28
 217 402 217 402 232 418 c 128,-1,29
 247 434 247 434 268 434 c 0,30,31
 290 434 290 434 305 418 c 128,-1,32
 320 402 320 402 320 380 c 0,33,34
 320 357 320 357 305 341.5 c 128,-1,35
 290 326 290 326 268 326 c 0,24,25
215 303 m 1,36,-1
 372 303 l 1,37,-1
 261 0 l 1,38,-1
 180 0 l 1,39,-1
 105 0 l 1,40,-1
 -25 0 l 1,41,-1
 -7 49 l 1,42,-1
 122.788778878 49 l 1,43,-1
 215 303 l 1,36,-1
EndSplineSet
Validated: 1
EndChar

StartChar: uni062C
Encoding: 238 1580 238
Width: 529
GlyphClass: 2
Flags: W
AnchorPoint: "Anchor-2" 298 765 basechar 0
AnchorPoint: "Anchor-1" 315 -400 basechar 0
LayerCount: 2
Fore
SplineSet
591 -94 m 1,0,1
 636 -61 636 -61 665 -87 c 1,2,3
 686 -121 686 -121 646 -160 c 1,4,5
 600 -193 600 -193 571 -166 c 1,6,7
 550 -133 550 -133 591 -94 c 1,0,1
652 303 m 1,8,-1
 541 0 l 1,9,-1
 180 0 l 1,10,-1
 162 -49 l 1,11,-1
 555 -49 l 1,12,-1
 498 -205 l 1,13,-1
 -51 -205 l 1,14,-1
 6 -49 l 1,15,-1
 42 49 l 1,16,-1
 403 49 l 1,17,-1
 438 147 l 1,18,-1
 76 147 l 1,19,-1
 133 303 l 1,20,-1
 652 303 l 1,8,-1
EndSplineSet
Validated: 33
Substitution2: "'fina' Terminal Forms lookup 13 subtable" uniFE9E
Substitution2: "'medi' Medial Forms lookup 12 subtable" uniFEA0
Substitution2: "'init' Initial Forms lookup 11 subtable" uniFE9F
AlternateSubs2: "'aalt' Access All Alternates lookup 1 subtable" uniFE9F uniFEA0 uniFE9E
EndChar

StartChar: uniFE9E
Encoding: 239 65182 239
Width: 529
GlyphClass: 2
Flags: W
AnchorPoint: "Anchor-2" 298 765 basechar 0
AnchorPoint: "Anchor-1" 315 -400 basechar 0
LayerCount: 2
Fore
SplineSet
623 -187 m 0,0,1
 602 -187 602 -187 587 -171.5 c 128,-1,2
 572 -156 572 -156 572 -133 c 0,3,4
 572 -111 572 -111 587 -95 c 128,-1,5
 602 -79 602 -79 623 -79 c 0,6,7
 645 -79 645 -79 660 -95 c 128,-1,8
 675 -111 675 -111 675 -133 c 0,9,10
 675 -156 675 -156 660 -171.5 c 128,-1,11
 645 -187 645 -187 623 -187 c 0,0,1
391 0 m 1,12,-1
 180 0 l 1,13,-1
 162 -49 l 1,14,-1
 555 -49 l 1,15,-1
 498 -205 l 1,16,-1
 -51 -205 l 1,17,-1
 6 -49 l 1,18,-1
 42 49 l 1,19,-1
 391 49 l 1,20,-1
 403 49 l 1,21,-1
 438 147 l 1,22,-1
 76 147 l 1,23,-1
 133 303 l 1,24,-1
 652 303 l 1,25,-1
 555.841195429 40.5124523879 l 1,26,-1
 572 25 l 1,27,-1
 547 0 l 1,28,-1
 541 0 l 1,29,-1
 391 0 l 1,12,-1
EndSplineSet
Validated: 1
EndChar

StartChar: uniFEA0
Encoding: 240 65184 240
Width: 554
GlyphClass: 2
Flags: W
AnchorPoint: "Anchor-2" 218 603 basechar 0
AnchorPoint: "Anchor-1" 218 -280 basechar 0
LayerCount: 2
Fore
SplineSet
289 -136 m 0,0,1
 268 -136 268 -136 253 -120.5 c 128,-1,2
 238 -105 238 -105 238 -82 c 0,3,4
 238 -60 238 -60 253 -44 c 128,-1,5
 268 -28 268 -28 289 -28 c 0,6,7
 311 -28 311 -28 326 -44 c 128,-1,8
 341 -60 341 -60 341 -82 c 0,9,10
 341 -105 341 -105 326 -120.5 c 128,-1,11
 311 -136 311 -136 289 -136 c 0,0,1
572 0 m 1,12,-1
 566 0 l 1,13,-1
 416 0 l 1,14,-1
 410 0 l 1,15,-1
 0 0 l 1,16,-1
 18 49 l 1,17,-1
 416 49 l 1,18,-1
 427.788778878 49 l 1,19,-1
 520 303 l 1,20,-1
 463 147 l 1,21,-1
 101 147 l 1,22,-1
 158 303 l 1,23,-1
 520 303 l 1,24,-1
 677 303 l 1,25,-1
 580.841195429 40.5124523879 l 1,26,-1
 597 25 l 1,27,-1
 572 0 l 1,12,-1
EndSplineSet
Validated: 5
EndChar

StartChar: uniFE9F
Encoding: 241 65183 241
Width: 554
GlyphClass: 2
Flags: W
AnchorPoint: "Anchor-2" 218 603 basechar 0
AnchorPoint: "Anchor-1" 218 -280 basechar 0
LayerCount: 2
Fore
SplineSet
289 -136 m 0,0,1
 268 -136 268 -136 253 -120.5 c 128,-1,2
 238 -105 238 -105 238 -82 c 0,3,4
 238 -60 238 -60 253 -44 c 128,-1,5
 268 -28 268 -28 289 -28 c 0,6,7
 311 -28 311 -28 326 -44 c 128,-1,8
 341 -60 341 -60 341 -82 c 0,9,10
 341 -105 341 -105 326 -120.5 c 128,-1,11
 311 -136 311 -136 289 -136 c 0,0,1
427.788778878 49 m 1,12,-1
 520 303 l 1,13,-1
 463 147 l 1,14,-1
 101 147 l 1,15,-1
 158 303 l 1,16,-1
 520 303 l 1,17,-1
 677 303 l 1,18,-1
 566 0 l 1,19,-1
 410 0 l 1,20,-1
 0 0 l 1,21,-1
 18 49 l 1,22,-1
 427.788778878 49 l 1,12,-1
EndSplineSet
Validated: 5
EndChar

StartChar: uni0686
Encoding: 242 1670 242
Width: 529
GlyphClass: 2
Flags: W
AnchorPoint: "Anchor-2" 275 603 basechar 0
AnchorPoint: "Anchor-1" 275 -400 basechar 0
LayerCount: 2
Fore
SplineSet
495 303 m 5,0,-1
 652 303 l 5,1,-1
 541 0 l 5,2,-1
 385 0 l 5,3,-1
 495 303 l 5,0,-1
42 49 m 5,4,-1
 198 49 l 5,5,-1
 162 -49 l 5,6,-1
 6 -49 l 5,7,-1
 42 49 l 5,4,-1
198 49 m 5,8,-1
 403 49 l 5,9,-1
 385 0 l 5,10,-1
 180 0 l 5,11,-1
 198 49 l 5,8,-1
495 303 m 5,12,-1
 439 147 l 5,13,-1
 76 147 l 5,14,-1
 133 303 l 5,15,-1
 495 303 l 5,12,-1
269 -49 m 5,16,-1
 212 -205 l 5,17,-1
 -52 -205 l 5,18,-1
 5 -49 l 5,19,-1
 269 -49 l 5,16,-1
333 -40 m 1,20,21
 378 -7 378 -7 407 -34 c 1,22,23
 417.66968058 -50.0045208703 417.66968058 -50.0045208703 413.521073243 -67.4203071579 c 1,24,25
 420.246443779 -54.0338707918 420.246443779 -54.0338707918 435 -40 c 0,26,27
 481 -7 481 -7 510 -34 c 1,28,29
 531 -67 531 -67 490 -106 c 1,30,31
 459.085712722 -128.849690597 459.085712722 -128.849690597 435.849489567 -124.148680517 c 1,32,33
 445.946658103 -153.758056926 445.946658103 -153.758056926 411 -187 c 1,34,35
 365 -220 365 -220 336 -193 c 1,36,37
 315.71862982 -160.163495899 315.71862982 -160.163495899 353.266526159 -123.596071378 c 1,38,39
 330.157842901 -128.97454339 330.157842901 -128.97454339 313 -113 c 1,40,41
 292 -79 292 -79 333 -40 c 1,20,21
180 1 m 1025,42,-1
390.645466707 -103.424484368 m 1,43,44
 400.994116657 -100.998854082 400.994116657 -100.998854082 410.150510433 -102.851319483 c 1,45,46
 406.197246333 -91.258595806 406.197246333 -91.258595806 409.148728388 -79.1090376894 c 1,47,48
 403.14925628 -90.9570316622 403.14925628 -90.9570316622 390.645466707 -103.424484368 c 1,43,44
EndSplineSet
Substitution2: "'fina' Terminal Forms lookup 13 subtable" uniFB7B
Substitution2: "'medi' Medial Forms lookup 12 subtable" uniFB7D
Substitution2: "'init' Initial Forms lookup 11 subtable" uniFB7C
AlternateSubs2: "'aalt' Access All Alternates lookup 1 subtable" uniFB7C uniFB7D uniFB7B
EndChar

StartChar: uniFB7B
Encoding: 243 64379 243
Width: 529
GlyphClass: 2
Flags: W
AnchorPoint: "Anchor-2" 275 603 basechar 0
AnchorPoint: "Anchor-1" 275 -400 basechar 0
LayerCount: 2
Fore
SplineSet
333 -40 m 1,0,1
 378 -7 378 -7 407 -34 c 1,2,3
 417.669921875 -50.0048828125 417.669921875 -50.0048828125 413.521484375 -67.419921875 c 1,4,5
 420.24609375 -54.0341796875 420.24609375 -54.0341796875 435 -40 c 0,6,7
 481 -7 481 -7 510 -34 c 1,8,9
 531 -67 531 -67 490 -106 c 1,10,11
 459.0859375 -128.849609375 459.0859375 -128.849609375 435.849609375 -124.1484375 c 1,12,13
 445.946289062 -153.7578125 445.946289062 -153.7578125 411 -187 c 1,14,15
 365 -220 365 -220 336 -193 c 1,16,17
 315.71875 -160.163085938 315.71875 -160.163085938 353.266601562 -123.595703125 c 1,18,19
 330.158203125 -128.974609375 330.158203125 -128.974609375 313 -113 c 1,20,21
 292 -79 292 -79 333 -40 c 1,0,1
269 -49 m 1,22,-1
 212 -205 l 1,23,-1
 -52 -205 l 1,24,-1
 5 -49 l 1,25,-1
 6 -49 l 1,26,-1
 42 49 l 1,27,-1
 198 49 l 1,28,-1
 391 49 l 1,29,-1
 402.7890625 49 l 1,30,-1
 438.366210938 147 l 1,31,-1
 76 147 l 1,32,-1
 133 303 l 1,33,-1
 495 303 l 1,34,-1
 652 303 l 1,35,-1
 555.840820312 40.5126953125 l 1,36,-1
 572 25 l 1,37,-1
 547 0 l 1,38,-1
 541 0 l 1,39,-1
 391 0 l 1,40,-1
 385 0 l 1,41,-1
 180 0 l 1,42,-1
 162 -49 l 1,43,-1
 269 -49 l 1,22,-1
390.645507812 -103.424804688 m 1,44,45
 400.994140625 -100.999023438 400.994140625 -100.999023438 410.150390625 -102.8515625 c 1,46,47
 406.197265625 -91.2587890625 406.197265625 -91.2587890625 409.1484375 -79.109375 c 1,48,49
 403.149414062 -90.95703125 403.149414062 -90.95703125 390.645507812 -103.424804688 c 1,44,45
EndSplineSet
EndChar

StartChar: uniFB7D
Encoding: 244 64381 244
Width: 554
GlyphClass: 2
Flags: W
AnchorPoint: "Anchor-2" 299 603 basechar 0
AnchorPoint: "Anchor-1" 299 -400 basechar 0
LayerCount: 2
Fore
SplineSet
170.645507812 -103.424804688 m 1,0,1
 180.994140625 -100.999023438 180.994140625 -100.999023438 190.150390625 -102.8515625 c 1,2,3
 186.197265625 -91.2587890625 186.197265625 -91.2587890625 189.1484375 -79.109375 c 1,4,5
 183.149414062 -90.95703125 183.149414062 -90.95703125 170.645507812 -103.424804688 c 1,0,1
113 -40 m 1,6,7
 158 -7 158 -7 187 -34 c 1,8,9
 197.669921875 -50.0048828125 197.669921875 -50.0048828125 193.521484375 -67.419921875 c 1,10,11
 200.24609375 -54.0341796875 200.24609375 -54.0341796875 215 -40 c 0,12,13
 261 -7 261 -7 290 -34 c 1,14,15
 311 -67 311 -67 270 -106 c 1,16,17
 239.0859375 -128.849609375 239.0859375 -128.849609375 215.849609375 -124.1484375 c 1,18,19
 225.946289062 -153.7578125 225.946289062 -153.7578125 191 -187 c 1,20,21
 145 -220 145 -220 116 -193 c 1,22,23
 95.71875 -160.163085938 95.71875 -160.163085938 133.266601562 -123.595703125 c 1,24,25
 110.158203125 -128.974609375 110.158203125 -128.974609375 93 -113 c 1,26,27
 72 -79 72 -79 113 -40 c 1,6,7
572 0 m 1,28,-1
 566 0 l 1,29,-1
 416 0 l 1,30,-1
 410 0 l 1,31,-1
 0 0 l 1,32,-1
 18 49 l 1,33,-1
 416 49 l 1,34,-1
 427.788778878 49 l 1,35,-1
 463 147 l 1,36,-1
 101 147 l 1,37,-1
 158 303 l 1,38,-1
 520 303 l 1,39,-1
 677 303 l 1,40,-1
 580.841195429 40.5124523879 l 1,41,-1
 597 25 l 1,42,-1
 572 0 l 1,28,-1
EndSplineSet
Substitution2: "'aalt' Access All Alternates lookup 0-1 " uniFB7D.aalt
EndChar

StartChar: uniFB7C
Encoding: 245 64380 245
Width: 554
GlyphClass: 2
Flags: W
AnchorPoint: "Anchor-2" 299 603 basechar 0
AnchorPoint: "Anchor-1" 299 -400 basechar 0
LayerCount: 2
Fore
SplineSet
170.645507812 -103.424804688 m 1,0,1
 180.994140625 -100.999023438 180.994140625 -100.999023438 190.150390625 -102.8515625 c 1,2,3
 186.197265625 -91.2587890625 186.197265625 -91.2587890625 189.1484375 -79.109375 c 1,4,5
 183.149414062 -90.95703125 183.149414062 -90.95703125 170.645507812 -103.424804688 c 1,0,1
113 -40 m 1,6,7
 158 -7 158 -7 187 -34 c 1,8,9
 197.669921875 -50.0048828125 197.669921875 -50.0048828125 193.521484375 -67.419921875 c 1,10,11
 200.24609375 -54.0341796875 200.24609375 -54.0341796875 215 -40 c 0,12,13
 261 -7 261 -7 290 -34 c 1,14,15
 311 -67 311 -67 270 -106 c 1,16,17
 239.0859375 -128.849609375 239.0859375 -128.849609375 215.849609375 -124.1484375 c 1,18,19
 225.946289062 -153.7578125 225.946289062 -153.7578125 191 -187 c 1,20,21
 145 -220 145 -220 116 -193 c 1,22,23
 95.71875 -160.163085938 95.71875 -160.163085938 133.266601562 -123.595703125 c 1,24,25
 110.158203125 -128.974609375 110.158203125 -128.974609375 93 -113 c 1,26,27
 72 -79 72 -79 113 -40 c 1,6,7
427.788778878 49 m 5,28,-1
 463 147 l 5,29,-1
 101 147 l 5,30,-1
 158 303 l 5,31,-1
 520 303 l 5,32,-1
 677 303 l 5,33,-1
 566 0 l 5,34,-1
 410 0 l 5,35,-1
 0 0 l 5,36,-1
 18 49 l 5,37,-1
 427.788778878 49 l 5,28,-1
EndSplineSet
Substitution2: "'aalt' Access All Alternates lookup 0-1 " uniFB7C.aalt
EndChar

StartChar: uni062D
Encoding: 246 1581 246
Width: 534
GlyphClass: 2
Flags: W
AnchorPoint: "Anchor-2" 298 765 basechar 0
AnchorPoint: "Anchor-1" 315 -400 basechar 0
LayerCount: 2
Fore
SplineSet
652 303 m 1,0,-1
 541 0 l 1,1,-1
 180 0 l 1,2,-1
 162 -49 l 1,3,-1
 725 -49 l 1,4,-1
 668 -205 l 1,5,-1
 -51 -205 l 1,6,-1
 6 -49 l 1,7,-1
 42 49 l 1,8,-1
 403 49 l 1,9,-1
 438 147 l 1,10,-1
 76 147 l 1,11,-1
 133 303 l 1,12,-1
 652 303 l 1,0,-1
EndSplineSet
Validated: 1
Substitution2: "'fina' Terminal Forms lookup 13 subtable" uniFEA2
Substitution2: "'medi' Medial Forms lookup 12 subtable" uniFEA4
Substitution2: "'init' Initial Forms lookup 11 subtable" uniFEA3
AlternateSubs2: "'aalt' Access All Alternates lookup 1 subtable" uniFEA3 uniFEA4 uniFEA2
EndChar

StartChar: uniFEA2
Encoding: 247 65186 247
Width: 534
GlyphClass: 2
Flags: W
AnchorPoint: "Anchor-2" 298 765 basechar 0
AnchorPoint: "Anchor-1" 315 -400 basechar 0
LayerCount: 2
Fore
SplineSet
644 -49 m 1,0,-1
 587 -205 l 1,1,-1
 -52 -205 l 1,2,-1
 5 -49 l 1,3,-1
 6 -49 l 1,4,-1
 42 49 l 1,5,-1
 198 49 l 1,6,-1
 391 49 l 1,7,-1
 402.788778878 49 l 1,8,-1
 438.366336634 147 l 1,9,-1
 76 147 l 1,10,-1
 133 303 l 1,11,-1
 495 303 l 1,12,-1
 652 303 l 1,13,-1
 555.841195429 40.5124523879 l 1,14,-1
 572 25 l 1,15,-1
 547 0 l 1,16,-1
 541 0 l 1,17,-1
 391 0 l 1,18,-1
 385 0 l 1,19,-1
 180 0 l 1,20,-1
 162 -49 l 1,21,-1
 644 -49 l 1,0,-1
EndSplineSet
Validated: 1
EndChar

StartChar: uniFEA4
Encoding: 248 65188 248
Width: 554
GlyphClass: 2
Flags: W
AnchorPoint: "Anchor-2" 218 603 basechar 0
AnchorPoint: "Anchor-1" 218 -280 basechar 0
LayerCount: 2
Fore
SplineSet
572 0 m 1,0,-1
 566 0 l 1,1,-1
 416 0 l 1,2,-1
 410 0 l 1,3,-1
 0 0 l 1,4,-1
 18 49 l 1,5,-1
 416 49 l 1,6,-1
 427.788778878 49 l 1,7,-1
 520 303 l 1,8,-1
 463 147 l 1,9,-1
 101 147 l 1,10,-1
 158 303 l 1,11,-1
 520 303 l 1,12,-1
 677 303 l 1,13,-1
 580.841195429 40.5124523879 l 1,14,-1
 597 25 l 1,15,-1
 572 0 l 1,0,-1
EndSplineSet
Validated: 5
EndChar

StartChar: uniFEA3
Encoding: 249 65187 249
Width: 554
GlyphClass: 2
Flags: W
AnchorPoint: "Anchor-2" 218 603 basechar 0
AnchorPoint: "Anchor-1" 218 -280 basechar 0
LayerCount: 2
Fore
SplineSet
427.788778878 49 m 1,0,-1
 520 303 l 1,1,-1
 463 147 l 1,2,-1
 101 147 l 1,3,-1
 158 303 l 1,4,-1
 520 303 l 1,5,-1
 677 303 l 1,6,-1
 566 0 l 1,7,-1
 410 0 l 1,8,-1
 0 0 l 1,9,-1
 18 49 l 1,10,-1
 427.788778878 49 l 1,0,-1
EndSplineSet
Validated: 5
EndChar

StartChar: uni062E
Encoding: 250 1582 250
Width: 529
GlyphClass: 2
Flags: W
AnchorPoint: "Anchor-2" 298 765 basechar 0
AnchorPoint: "Anchor-1" 315 -400 basechar 0
LayerCount: 2
Fore
SplineSet
411 326 m 0,0,1
 390 326 390 326 375 341.5 c 128,-1,2
 360 357 360 357 360 380 c 0,3,4
 360 402 360 402 375 418 c 128,-1,5
 390 434 390 434 411 434 c 0,6,7
 433 434 433 434 448 418 c 128,-1,8
 463 402 463 402 463 380 c 0,9,10
 463 357 463 357 448 341.5 c 128,-1,11
 433 326 433 326 411 326 c 0,0,1
652 303 m 1,12,-1
 541 0 l 1,13,-1
 180 0 l 1,14,-1
 162 -49 l 1,15,-1
 725 -49 l 1,16,-1
 668 -205 l 1,17,-1
 -51 -205 l 1,18,-1
 6 -49 l 1,19,-1
 42 49 l 1,20,-1
 403 49 l 1,21,-1
 438 147 l 1,22,-1
 76 147 l 1,23,-1
 133 303 l 1,24,-1
 652 303 l 1,12,-1
EndSplineSet
Validated: 1
Substitution2: "'fina' Terminal Forms lookup 13 subtable" uniFEA6
Substitution2: "'medi' Medial Forms lookup 12 subtable" uniFEA8
Substitution2: "'init' Initial Forms lookup 11 subtable" uniFEA7
AlternateSubs2: "'aalt' Access All Alternates lookup 1 subtable" uniFEA7 uniFEA8 uniFEA6
EndChar

StartChar: uniFEA6
Encoding: 251 65190 251
Width: 529
GlyphClass: 2
Flags: W
AnchorPoint: "Anchor-2" 298 765 basechar 0
AnchorPoint: "Anchor-1" 315 -400 basechar 0
LayerCount: 2
Fore
SplineSet
411 326 m 0,0,1
 390 326 390 326 375 341.5 c 128,-1,2
 360 357 360 357 360 380 c 0,3,4
 360 402 360 402 375 418 c 128,-1,5
 390 434 390 434 411 434 c 0,6,7
 433 434 433 434 448 418 c 128,-1,8
 463 402 463 402 463 380 c 0,9,10
 463 357 463 357 448 341.5 c 128,-1,11
 433 326 433 326 411 326 c 0,0,1
391 0 m 1,12,-1
 180 0 l 1,13,-1
 162 -49 l 1,14,-1
 725 -49 l 1,15,-1
 668 -205 l 1,16,-1
 -51 -205 l 1,17,-1
 6 -49 l 1,18,-1
 42 49 l 1,19,-1
 391 49 l 1,20,-1
 403 49 l 1,21,-1
 438 147 l 1,22,-1
 76 147 l 1,23,-1
 133 303 l 1,24,-1
 652 303 l 1,25,-1
 555.841195429 40.5124523879 l 1,26,-1
 572 25 l 1,27,-1
 547 0 l 1,28,-1
 541 0 l 1,29,-1
 391 0 l 1,12,-1
EndSplineSet
Validated: 1
EndChar

StartChar: uniFEA8
Encoding: 252 65192 252
Width: 554
GlyphClass: 2
Flags: W
AnchorPoint: "Anchor-2" 322 765 basechar 0
AnchorPoint: "Anchor-1" 322 -120 basechar 0
LayerCount: 2
Fore
SplineSet
411 326 m 0,0,1
 390 326 390 326 375 341.5 c 128,-1,2
 360 357 360 357 360 380 c 0,3,4
 360 402 360 402 375 418 c 128,-1,5
 390 434 390 434 411 434 c 0,6,7
 433 434 433 434 448 418 c 128,-1,8
 463 402 463 402 463 380 c 0,9,10
 463 357 463 357 448 341.5 c 128,-1,11
 433 326 433 326 411 326 c 0,0,1
574 0 m 1,12,-1
 566 0 l 1,13,-1
 418 0 l 1,14,-1
 410 0 l 1,15,-1
 0 0 l 1,16,-1
 18 49 l 1,17,-1
 418 49 l 1,18,-1
 427.788778878 49 l 1,19,-1
 520 303 l 1,20,-1
 463 147 l 1,21,-1
 101 147 l 1,22,-1
 158 303 l 1,23,-1
 520 303 l 1,24,-1
 677 303 l 1,25,-1
 581.282608696 41.7173913043 l 1,26,-1
 599 24 l 1,27,-1
 574 0 l 1,12,-1
EndSplineSet
Validated: 5
EndChar

StartChar: uniFEA7
Encoding: 253 65191 253
Width: 554
GlyphClass: 2
Flags: W
AnchorPoint: "Anchor-2" 322 765 basechar 0
AnchorPoint: "Anchor-1" 322 -120 basechar 0
LayerCount: 2
Fore
SplineSet
411 326 m 0,0,1
 390 326 390 326 375 341.5 c 128,-1,2
 360 357 360 357 360 380 c 0,3,4
 360 402 360 402 375 418 c 128,-1,5
 390 434 390 434 411 434 c 0,6,7
 433 434 433 434 448 418 c 128,-1,8
 463 402 463 402 463 380 c 0,9,10
 463 357 463 357 448 341.5 c 128,-1,11
 433 326 433 326 411 326 c 0,0,1
427.788778878 49 m 1,12,-1
 520 303 l 1,13,-1
 463 147 l 1,14,-1
 101 147 l 1,15,-1
 158 303 l 1,16,-1
 520 303 l 1,17,-1
 677 303 l 1,18,-1
 566 0 l 1,19,-1
 410 0 l 1,20,-1
 0 0 l 1,21,-1
 18 49 l 1,22,-1
 427.788778878 49 l 1,12,-1
EndSplineSet
Validated: 5
EndChar

StartChar: uni062F
Encoding: 254 1583 254
Width: 402
GlyphClass: 2
Flags: W
AnchorPoint: "Anchor-2" 63 790 basechar 0
AnchorPoint: "Anchor-1" 179 -120 basechar 0
LayerCount: 2
Fore
SplineSet
368 303 m 1,0,-1
 525 303 l 1,1,-1
 414 0 l 1,2,-1
 258 0 l 1,3,-1
 53 0 l 1,4,-1
 71 49 l 1,5,-1
 275.788778878 49 l 1,6,-1
 368 303 l 1,0,-1
EndSplineSet
Validated: 1
Substitution2: "'fina' Terminal Forms lookup 13 subtable" uniFEAA
Substitution2: "'aalt' Access All Alternates lookup 0 subtable" uniFEAA
EndChar

StartChar: uniFEAA
Encoding: 255 65194 255
Width: 402
GlyphClass: 2
Flags: W
AnchorPoint: "Anchor-2" 63 790 basechar 0
AnchorPoint: "Anchor-1" 179 -120 basechar 0
LayerCount: 2
Fore
SplineSet
368 303 m 1,0,-1
 525 303 l 1,1,-1
 430.030755449 43.7596297402 l 1,2,-1
 449 24 l 1,3,-1
 425 0 l 1,4,-1
 414 0 l 1,5,-1
 268 0 l 1,6,-1
 258 0 l 1,7,-1
 53 0 l 1,8,-1
 71 49 l 1,9,-1
 268 49 l 1,10,-1
 275.788778878 49 l 1,11,-1
 368 303 l 1,0,-1
EndSplineSet
Validated: 1
EndChar

StartChar: uni0630
Encoding: 256 1584 256
Width: 406
GlyphClass: 2
Flags: W
AnchorPoint: "Anchor-2" 63 790 basechar 0
AnchorPoint: "Anchor-1" 179 -120 basechar 0
LayerCount: 2
Fore
SplineSet
454 326 m 0,0,1
 433 326 433 326 418 341.5 c 128,-1,2
 403 357 403 357 403 380 c 0,3,4
 403 402 403 402 418 418 c 128,-1,5
 433 434 433 434 454 434 c 0,6,7
 476 434 476 434 491 418 c 128,-1,8
 506 402 506 402 506 380 c 0,9,10
 506 357 506 357 491 341.5 c 128,-1,11
 476 326 476 326 454 326 c 0,0,1
368 303 m 1,12,-1
 525 303 l 1,13,-1
 414 0 l 1,14,-1
 258 0 l 1,15,-1
 53 0 l 1,16,-1
 71 49 l 1,17,-1
 275.788778878 49 l 1,18,-1
 368 303 l 1,12,-1
EndSplineSet
Validated: 1
Substitution2: "'fina' Terminal Forms lookup 13 subtable" uniFEAC
Substitution2: "'aalt' Access All Alternates lookup 0 subtable" uniFEAC
EndChar

StartChar: uniFEAC
Encoding: 257 65196 257
Width: 406
GlyphClass: 2
Flags: W
AnchorPoint: "Anchor-2" 63 790 basechar 0
AnchorPoint: "Anchor-1" 179 -120 basechar 0
LayerCount: 2
Fore
SplineSet
454 326 m 0,0,1
 433 326 433 326 418 341.5 c 128,-1,2
 403 357 403 357 403 380 c 0,3,4
 403 402 403 402 418 418 c 128,-1,5
 433 434 433 434 454 434 c 0,6,7
 476 434 476 434 491 418 c 128,-1,8
 506 402 506 402 506 380 c 0,9,10
 506 357 506 357 491 341.5 c 128,-1,11
 476 326 476 326 454 326 c 0,0,1
368 303 m 1,12,-1
 525 303 l 1,13,-1
 430.306957301 44.5135861451 l 1,14,-1
 450 24 l 1,15,-1
 426 0 l 1,16,-1
 414 0 l 1,17,-1
 269 0 l 1,18,-1
 258 0 l 1,19,-1
 53 0 l 1,20,-1
 71 49 l 1,21,-1
 269 49 l 1,22,-1
 275.788778878 49 l 1,23,-1
 368 303 l 1,12,-1
EndSplineSet
Validated: 1
EndChar

StartChar: uni0631
Encoding: 258 1585 258
Width: 322
GlyphClass: 2
Flags: W
AnchorPoint: "Anchor-2" 54 765 basechar 0
AnchorPoint: "Anchor-1" 1 -350 basechar 0
LayerCount: 2
Fore
SplineSet
289 303 m 1,0,-1
 445 303 l 1,1,-1
 260 -205 l 1,2,-1
 104 -205 l 1,3,-1
 -52 -205 l 1,4,-1
 -34 -156 l 1,5,-1
 121.844488189 -156 l 1,6,-1
 289 303 l 1,0,-1
EndSplineSet
Validated: 1
Substitution2: "'fina' Terminal Forms lookup 13 subtable" uniFEAE
Substitution2: "'aalt' Access All Alternates lookup 0 subtable" uniFEAE
EndChar

StartChar: uniFEAE
Encoding: 259 65198 259
Width: 322
GlyphClass: 2
Flags: W
AnchorPoint: "Anchor-2" 54 765 basechar 0
AnchorPoint: "Anchor-1" 1 -350 basechar 0
LayerCount: 2
Fore
SplineSet
289 303 m 1,0,-1
 445 303 l 1,1,-1
 350.230880231 42.7691197691 l 1,2,-1
 368 25 l 1,3,-1
 344 0 l 1,4,-1
 334.655511811 -1.28785870857e-14 l 1,5,-1
 260 -205 l 1,6,-1
 104 -205 l 1,7,-1
 -52 -205 l 1,8,-1
 -34 -156 l 1,9,-1
 121.844488189 -156 l 1,10,-1
 289 303 l 1,0,-1
EndSplineSet
Validated: 1
PairPos2: "'kern' Horizontal Kerning lookup 2 subtable" uniFEF3 dx=30 dy=0 dh=30 dv=0 dx=0 dy=0 dh=0 dv=0
EndChar

StartChar: uni0632
Encoding: 260 1586 260
Width: 326
GlyphClass: 2
Flags: W
AnchorPoint: "Anchor-2" 54 765 basechar 0
AnchorPoint: "Anchor-1" 1 -350 basechar 0
LayerCount: 2
Fore
SplineSet
375 326 m 0,0,1
 354 326 354 326 339 341.5 c 128,-1,2
 324 357 324 357 324 380 c 0,3,4
 324 402 324 402 339 418 c 128,-1,5
 354 434 354 434 375 434 c 0,6,7
 397 434 397 434 412 418 c 128,-1,8
 427 402 427 402 427 380 c 0,9,10
 427 357 427 357 412 341.5 c 128,-1,11
 397 326 397 326 375 326 c 0,0,1
289 303 m 1,12,-1
 445 303 l 1,13,-1
 260 -205 l 1,14,-1
 104 -205 l 1,15,-1
 -52 -205 l 1,16,-1
 -34 -156 l 1,17,-1
 121.844488189 -156 l 1,18,-1
 289 303 l 1,12,-1
EndSplineSet
Validated: 1
Substitution2: "'fina' Terminal Forms lookup 13 subtable" uniFEB0
Substitution2: "'aalt' Access All Alternates lookup 0 subtable" uniFEB0
EndChar

StartChar: uniFEB0
Encoding: 261 65200 261
Width: 326
GlyphClass: 2
Flags: W
AnchorPoint: "Anchor-2" 54 765 basechar 0
AnchorPoint: "Anchor-1" 1 -350 basechar 0
LayerCount: 2
Fore
SplineSet
372 326 m 0,0,1
 351 326 351 326 336 341.5 c 128,-1,2
 321 357 321 357 321 380 c 0,3,4
 321 402 321 402 336 418 c 128,-1,5
 351 434 351 434 372 434 c 0,6,7
 394 434 394 434 409 418 c 128,-1,8
 424 402 424 402 424 380 c 0,9,10
 424 357 424 357 409 341.5 c 128,-1,11
 394 326 394 326 372 326 c 0,0,1
289 303 m 1,12,-1
 445 303 l 1,13,-1
 350.230880231 42.7691197691 l 1,14,-1
 368 25 l 1,15,-1
 344 0 l 1,16,-1
 334.655511811 -1.28785870857e-14 l 1,17,-1
 260 -205 l 1,18,-1
 104 -205 l 1,19,-1
 -52 -205 l 1,20,-1
 -34 -156 l 1,21,-1
 121.844488189 -156 l 1,22,-1
 289 303 l 1,12,-1
EndSplineSet
Validated: 1
EndChar

StartChar: uni0633
Encoding: 262 1587 262
Width: 781
GlyphClass: 2
Flags: W
AnchorPoint: "Anchor-2" 934 875 basechar 0
AnchorPoint: "Anchor-1" 934 -170 basechar 0
LayerCount: 2
Fore
SplineSet
133 303 m 1,0,-1
 289 303 l 1,1,-1
 104 -205 l 1,2,-1
 122 -156 l 1,3,-1
 170.82788671 -156 l 1,4,-1
 320 254 l 1,5,-1
 476 254 l 1,6,-1
 309 -205 l 1,7,-1
 153 -205 l 1,8,-1
 104 -205 l 1,9,-1
 -52 -205 l 1,10,-1
 133 303 l 1,0,-1
525 254 m 1,11,-1
 681 254 l 1,12,-1
 606.748031496 49 l 1,13,-1
 655.788778878 49 l 1,14,-1
 748 303 l 1,15,-1
 904 303 l 1,16,-1
 794 0 l 1,17,-1
 638 0 l 1,18,-1
 589 0 l 1,19,-1
 433 0 l 1,20,-1
 384 0 l 1,21,-1
 402 49 l 1,22,-1
 450.748031496 49 l 1,23,-1
 525 254 l 1,11,-1
EndSplineSet
Validated: 5
Substitution2: "'fina' Terminal Forms lookup 13 subtable" uniFEB2
Substitution2: "'medi' Medial Forms lookup 12 subtable" uniFEB4
Substitution2: "'init' Initial Forms lookup 11 subtable" uniFEB3
AlternateSubs2: "'aalt' Access All Alternates lookup 1 subtable" uniFEB3 uniFEB4 uniFEB2
EndChar

StartChar: uniFEB2
Encoding: 263 65202 263
Width: 781
GlyphClass: 2
Flags: W
AnchorPoint: "Anchor-2" 934 875 basechar 0
AnchorPoint: "Anchor-1" 934 -170 basechar 0
LayerCount: 2
Fore
SplineSet
133 303 m 1,0,-1
 289 303 l 1,1,-1
 104 -205 l 1,2,-1
 122 -156 l 1,3,-1
 170.82788671 -156 l 1,4,-1
 320 254 l 1,5,-1
 476 254 l 1,6,-1
 309 -205 l 1,7,-1
 153 -205 l 1,8,-1
 104 -205 l 1,9,-1
 -52 -205 l 1,10,-1
 133 303 l 1,0,-1
525 254 m 1,11,-1
 681 254 l 1,12,-1
 606.748031496 49 l 1,13,-1
 655.788778878 49 l 1,14,-1
 748 303 l 1,15,-1
 904 303 l 1,16,-1
 808.483602545 39.8957415565 l 1,17,-1
 824 25 l 1,18,-1
 799 0 l 1,19,-1
 794 0 l 1,20,-1
 761 0 l 1,21,-1
 638 0 l 1,22,-1
 589 0 l 1,23,-1
 433 0 l 1,24,-1
 384 0 l 1,25,-1
 402 49 l 1,26,-1
 450.748031496 49 l 1,27,-1
 525 254 l 1,11,-1
EndSplineSet
Validated: 5
EndChar

StartChar: uniFEB4
Encoding: 264 65204 264
Width: 602
GlyphClass: 2
Flags: W
AnchorPoint: "Anchor-2" 575 573 basechar 0
AnchorPoint: "Anchor-1" 575 -120 basechar 0
AnchorPoint: "Cursive-0" 132 35 exit 0
AnchorPoint: "Cursive-0" 980 35 entry 0
LayerCount: 2
Fore
SplineSet
346 254 m 1,0,-1
 503 254 l 1,1,-1
 427.940944882 49 l 1,2,-1
 476.788778878 49 l 1,3,-1
 569 303 l 1,4,-1
 725 303 l 1,5,-1
 629.382566586 39.617433414 l 1,6,-1
 645 24 l 1,7,-1
 620 0 l 1,8,-1
 615 0 l 1,9,-1
 585 0 l 1,10,-1
 459 0 l 1,11,-1
 410 0 l 1,12,-1
 254 0 l 1,13,-1
 205 0 l 1,14,-1
 223 49 l 1,15,-1
 271.748031496 49 l 1,16,-1
 346 254 l 1,0,-1
141 254 m 1,17,-1
 297 254 l 1,18,-1
 205 0 l 1,19,-1
 49 0 l 1,20,-1
 0 0 l 1,21,-1
 18 49 l 1,22,-1
 66.7480314961 49 l 1,23,-1
 141 254 l 1,17,-1
EndSplineSet
Validated: 5
EndChar

StartChar: uniFEB3
Encoding: 265 65203 265
Width: 602
GlyphClass: 2
Flags: W
AnchorPoint: "Anchor-2" 575 573 basechar 0
AnchorPoint: "Anchor-1" 575 -120 basechar 0
LayerCount: 2
Fore
SplineSet
346 254 m 1,0,-1
 503 254 l 1,1,-1
 427.940944882 49 l 1,2,-1
 476.788778878 49 l 1,3,-1
 569 303 l 1,4,-1
 725 303 l 1,5,-1
 615 0 l 1,6,-1
 459 0 l 1,7,-1
 410 0 l 1,8,-1
 254 0 l 1,9,-1
 205 0 l 1,10,-1
 223 49 l 1,11,-1
 271.748031496 49 l 1,12,-1
 346 254 l 1,0,-1
141 254 m 1,13,-1
 297 254 l 1,14,-1
 205 0 l 1,15,-1
 49 0 l 1,16,-1
 0 0 l 1,17,-1
 18 49 l 1,18,-1
 66.7480314961 49 l 1,19,-1
 141 254 l 1,13,-1
EndSplineSet
Validated: 5
EndChar

StartChar: uni0634
Encoding: 266 1588 266
Width: 781
GlyphClass: 2
Flags: W
AnchorPoint: "Anchor-2" 934 875 basechar 0
AnchorPoint: "Anchor-1" 934 -170 basechar 0
LayerCount: 2
Fore
SplineSet
628 373 m 0,0,1
 606 373 606 373 591 388.5 c 128,-1,2
 576 404 576 404 576 427 c 0,3,4
 576 449 576 449 591 465 c 128,-1,5
 606 481 606 481 628 481 c 0,6,7
 649 481 649 481 664 465 c 128,-1,8
 679 449 679 449 679 427 c 0,9,10
 679 404 679 404 664 388.5 c 128,-1,11
 649 373 649 373 628 373 c 0,0,1
784 373 m 0,12,13
 763 373 763 373 748 388.5 c 128,-1,14
 733 404 733 404 733 427 c 0,15,16
 733 449 733 449 748 465 c 128,-1,17
 763 481 763 481 784 481 c 0,18,19
 806 481 806 481 821 465 c 128,-1,20
 836 449 836 449 836 427 c 0,21,22
 836 404 836 404 821 388.5 c 128,-1,23
 806 373 806 373 784 373 c 0,12,13
-52 -205 m 1,24,-1
 133 303 l 1,25,-1
 289 303 l 1,26,-1
 122 -156 l 1,27,-1
 171 -156 l 1,28,-1
 320 254 l 1,29,-1
 476 254 l 1,30,-1
 401 49 l 1,31,-1
 451 49 l 1,32,-1
 525 254 l 1,33,-1
 681 254 l 1,34,-1
 607 49 l 1,35,-1
 656 49 l 1,36,-1
 748 303 l 1,37,-1
 904 303 l 1,38,-1
 794 0 l 1,39,-1
 384 0 l 1,40,-1
 309 -205 l 1,41,-1
 -52 -205 l 1,24,-1
471 373 m 0,42,43
 450 373 450 373 435 388.5 c 128,-1,44
 420 404 420 404 420 427 c 0,45,46
 420 449 420 449 435 465 c 128,-1,47
 450 481 450 481 471 481 c 0,48,49
 493 481 493 481 508 465 c 128,-1,50
 523 449 523 449 523 427 c 0,51,52
 523 404 523 404 508 388.5 c 128,-1,53
 493 373 493 373 471 373 c 0,42,43
EndSplineSet
Validated: 1
Substitution2: "'fina' Terminal Forms lookup 13 subtable" uniFEB6
Substitution2: "'medi' Medial Forms lookup 12 subtable" uniFEB8
Substitution2: "'init' Initial Forms lookup 11 subtable" uniFEB7
AlternateSubs2: "'aalt' Access All Alternates lookup 1 subtable" uniFEB7 uniFEB8 uniFEB6
EndChar

StartChar: uniFEB6
Encoding: 267 65206 267
Width: 781
GlyphClass: 2
Flags: W
AnchorPoint: "Anchor-2" 934 875 basechar 0
AnchorPoint: "Anchor-1" 934 -170 basechar 0
AnchorPoint: "Cursive-0" 1339 35 entry 0
LayerCount: 2
Fore
SplineSet
597 379 m 0,0,1
 575 379 575 379 560 394.5 c 128,-1,2
 545 410 545 410 545 433 c 0,3,4
 545 455 545 455 560 471 c 128,-1,5
 575 487 575 487 597 487 c 0,6,7
 618 487 618 487 633 471 c 128,-1,8
 648 455 648 455 648 433 c 0,9,10
 648 410 648 410 633 394.5 c 128,-1,11
 618 379 618 379 597 379 c 0,0,1
753 379 m 0,12,13
 732 379 732 379 717 394.5 c 128,-1,14
 702 410 702 410 702 433 c 0,15,16
 702 455 702 455 717 471 c 128,-1,17
 732 487 732 487 753 487 c 0,18,19
 775 487 775 487 790 471 c 128,-1,20
 805 455 805 455 805 433 c 0,21,22
 805 410 805 410 790 394.5 c 128,-1,23
 775 379 775 379 753 379 c 0,12,13
-52 -205 m 1,24,-1
 133 303 l 1,25,-1
 289 303 l 1,26,-1
 122 -156 l 1,27,-1
 171 -156 l 1,28,-1
 320 254 l 1,29,-1
 476 254 l 1,30,-1
 401 49 l 1,31,-1
 451 49 l 1,32,-1
 525 254 l 1,33,-1
 681 254 l 1,34,-1
 607 49 l 1,35,-1
 656 49 l 1,36,-1
 748 303 l 1,37,-1
 904 303 l 1,38,-1
 808.483602545 39.8957415565 l 1,39,-1
 824 25 l 1,40,-1
 799 0 l 1,41,-1
 794 0 l 1,42,-1
 752 0 l 1,43,-1
 384 0 l 1,44,-1
 309 -205 l 1,45,-1
 -52 -205 l 1,24,-1
440 379 m 0,46,47
 419 379 419 379 404 394.5 c 128,-1,48
 389 410 389 410 389 433 c 0,49,50
 389 455 389 455 404 471 c 128,-1,51
 419 487 419 487 440 487 c 0,52,53
 462 487 462 487 477 471 c 128,-1,54
 492 455 492 455 492 433 c 0,55,56
 492 410 492 410 477 394.5 c 128,-1,57
 462 379 462 379 440 379 c 0,46,47
EndSplineSet
Validated: 1
EndChar

StartChar: uniFEB8
Encoding: 268 65208 268
Width: 602
GlyphClass: 2
Flags: W
AnchorPoint: "Anchor-2" 575 573 basechar 0
AnchorPoint: "Anchor-1" 575 -120 basechar 0
LayerCount: 2
Fore
SplineSet
311 379 m 0,0,1
 290 379 290 379 275 394.5 c 128,-1,2
 260 410 260 410 260 433 c 0,3,4
 260 455 260 455 275 471 c 128,-1,5
 290 487 290 487 311 487 c 0,6,7
 333 487 333 487 348 471 c 128,-1,8
 363 455 363 455 363 433 c 0,9,10
 363 410 363 410 348 394.5 c 128,-1,11
 333 379 333 379 311 379 c 0,0,1
468 379 m 0,12,13
 446 379 446 379 431 394.5 c 128,-1,14
 416 410 416 410 416 433 c 0,15,16
 416 455 416 455 431 471 c 128,-1,17
 446 487 446 487 468 487 c 0,18,19
 489 487 489 487 504 471 c 128,-1,20
 519 455 519 455 519 433 c 0,21,22
 519 410 519 410 504 394.5 c 128,-1,23
 489 379 489 379 468 379 c 0,12,13
624 379 m 0,24,25
 603 379 603 379 588 394.5 c 128,-1,26
 573 410 573 410 573 433 c 0,27,28
 573 455 573 455 588 471 c 128,-1,29
 603 487 603 487 624 487 c 0,30,31
 646 487 646 487 661 471 c 128,-1,32
 676 455 676 455 676 433 c 0,33,34
 676 410 676 410 661 394.5 c 128,-1,35
 646 379 646 379 624 379 c 0,24,25
346 254 m 1,36,-1
 503 254 l 1,37,-1
 427.940944882 49 l 1,38,-1
 476.788778878 49 l 1,39,-1
 569 303 l 1,40,-1
 725 303 l 1,41,-1
 629.382566586 39.617433414 l 1,42,-1
 645 24 l 1,43,-1
 620 0 l 1,44,-1
 615 0 l 1,45,-1
 585 0 l 1,46,-1
 459 0 l 1,47,-1
 410 0 l 1,48,-1
 254 0 l 1,49,-1
 205 0 l 1,50,-1
 223 49 l 1,51,-1
 271.748031496 49 l 1,52,-1
 346 254 l 1,36,-1
141 254 m 1,53,-1
 297 254 l 1,54,-1
 205 0 l 1,55,-1
 49 0 l 1,56,-1
 0 0 l 1,57,-1
 18 49 l 1,58,-1
 66.7480314961 49 l 1,59,-1
 141 254 l 1,53,-1
EndSplineSet
Validated: 5
EndChar

StartChar: uniFEB7
Encoding: 269 65207 269
Width: 602
GlyphClass: 2
Flags: W
AnchorPoint: "Anchor-2" 575 573 basechar 0
AnchorPoint: "Anchor-1" 575 -120 basechar 0
LayerCount: 2
Fore
SplineSet
311 379 m 0,0,1
 290 379 290 379 275 394.5 c 128,-1,2
 260 410 260 410 260 433 c 0,3,4
 260 455 260 455 275 471 c 128,-1,5
 290 487 290 487 311 487 c 0,6,7
 333 487 333 487 348 471 c 128,-1,8
 363 455 363 455 363 433 c 0,9,10
 363 410 363 410 348 394.5 c 128,-1,11
 333 379 333 379 311 379 c 0,0,1
468 379 m 0,12,13
 446 379 446 379 431 394.5 c 128,-1,14
 416 410 416 410 416 433 c 0,15,16
 416 455 416 455 431 471 c 128,-1,17
 446 487 446 487 468 487 c 0,18,19
 489 487 489 487 504 471 c 128,-1,20
 519 455 519 455 519 433 c 0,21,22
 519 410 519 410 504 394.5 c 128,-1,23
 489 379 489 379 468 379 c 0,12,13
624 379 m 0,24,25
 603 379 603 379 588 394.5 c 128,-1,26
 573 410 573 410 573 433 c 0,27,28
 573 455 573 455 588 471 c 128,-1,29
 603 487 603 487 624 487 c 0,30,31
 646 487 646 487 661 471 c 128,-1,32
 676 455 676 455 676 433 c 0,33,34
 676 410 676 410 661 394.5 c 128,-1,35
 646 379 646 379 624 379 c 0,24,25
346 254 m 1,36,-1
 503 254 l 1,37,-1
 427.940944882 49 l 1,38,-1
 476.788778878 49 l 1,39,-1
 569 303 l 1,40,-1
 725 303 l 1,41,-1
 615 0 l 1,42,-1
 459 0 l 1,43,-1
 410 0 l 1,44,-1
 254 0 l 1,45,-1
 205 0 l 1,46,-1
 223 49 l 1,47,-1
 271.748031496 49 l 1,48,-1
 346 254 l 1,36,-1
141 254 m 1,49,-1
 297 254 l 1,50,-1
 205 0 l 1,51,-1
 49 0 l 1,52,-1
 0 0 l 1,53,-1
 18 49 l 1,54,-1
 66.7480314961 49 l 1,55,-1
 141 254 l 1,49,-1
EndSplineSet
Validated: 5
EndChar

StartChar: uni0635
Encoding: 270 1589 270
Width: 781
GlyphClass: 2
Flags: W
AnchorPoint: "Anchor-2" 897 765 basechar 0
AnchorPoint: "Anchor-1" 897 -170 basechar 0
LayerCount: 2
Fore
SplineSet
133 303 m 1,0,-1
 289 303 l 1,1,-1
 104 -205 l 1,2,-1
 122 -156 l 1,3,-1
 170.89028777 -156 l 1,4,-1
 356 351 l 1,5,-1
 512 351 l 1,6,-1
 494.474820144 303 l 1,7,-1
 904 303 l 1,8,-1
 864.903846154 196 l 1,9,-1
 865 196 l 1,10,-1
 794 0 l 1,11,-1
 638 0 l 1,12,-1
 384 0 l 1,13,-1
 402 49 l 1,14,-1
 655.75 49 l 1,15,-1
 691.25 147 l 1,16,-1
 437.517985612 147 l 1,17,-1
 309 -205 l 1,18,-1
 153 -205 l 1,19,-1
 104 -205 l 1,20,-1
 -52 -205 l 1,21,-1
 133 303 l 1,0,-1
EndSplineSet
Validated: 5
Substitution2: "'fina' Terminal Forms lookup 13 subtable" uniFEBA
Substitution2: "'medi' Medial Forms lookup 12 subtable" uniFEBC
Substitution2: "'init' Initial Forms lookup 11 subtable" uniFEBB
AlternateSubs2: "'aalt' Access All Alternates lookup 1 subtable" uniFEBB uniFEBC uniFEBA
EndChar

StartChar: uniFEBA
Encoding: 271 65210 271
Width: 781
GlyphClass: 2
Flags: W
AnchorPoint: "Anchor-2" 897 765 basechar 0
AnchorPoint: "Anchor-1" 897 -170 basechar 0
LayerCount: 2
Fore
SplineSet
133 303 m 1,0,-1
 289 303 l 1,1,-1
 104 -205 l 1,2,-1
 122 -156 l 1,3,-1
 170.89028777 -156 l 1,4,-1
 356 351 l 1,5,-1
 512 351 l 1,6,-1
 494.474820144 303 l 1,7,-1
 904 303 l 1,8,-1
 864.903846154 196 l 1,9,-1
 865 196 l 1,10,-1
 808.359550562 39.6404494382 l 1,11,-1
 823 25 l 1,12,-1
 799 0 l 1,13,-1
 794 0 l 1,14,-1
 724 0 l 1,15,-1
 638 0 l 1,16,-1
 384 0 l 1,17,-1
 402 49 l 1,18,-1
 655.75 49 l 1,19,-1
 691.25 147 l 1,20,-1
 437.517985612 147 l 1,21,-1
 309 -205 l 1,22,-1
 153 -205 l 1,23,-1
 104 -205 l 1,24,-1
 -52 -205 l 1,25,-1
 133 303 l 1,0,-1
EndSplineSet
Validated: 5
EndChar

StartChar: uniFEBC
Encoding: 272 65212 272
Width: 602
GlyphClass: 2
Flags: W
AnchorPoint: "Anchor-2" 538 765 basechar 0
AnchorPoint: "Anchor-1" 538 -120 basechar 0
LayerCount: 2
Fore
SplineSet
177 352 m 1,0,-1
 333 352 l 1,1,-1
 315.181818182 303 l 1,2,-1
 725 303 l 1,3,-1
 669 147 l 1,4,-1
 668.25 147 l 1,5,-1
 629.460175651 39.9182313749 l 1,6,-1
 645 25 l 1,7,-1
 620 0 l 1,8,-1
 615 0 l 1,9,-1
 553 0 l 1,10,-1
 459 0 l 1,11,-1
 205 0 l 1,12,-1
 223 49 l 1,13,-1
 476.75 49 l 1,14,-1
 512.25 147 l 1,15,-1
 258.454545455 147 l 1,16,-1
 205 0 l 1,17,-1
 49 0 l 1,18,-1
 0 0 l 1,19,-1
 18 49 l 1,20,-1
 66.8181818182 49 l 1,21,-1
 177 352 l 1,0,-1
EndSplineSet
Validated: 5
EndChar

StartChar: uniFEBB
Encoding: 273 65211 273
Width: 602
GlyphClass: 2
Flags: W
AnchorPoint: "Anchor-2" 538 765 basechar 0
AnchorPoint: "Anchor-1" 538 -120 basechar 0
LayerCount: 2
Fore
SplineSet
177 352 m 1,0,-1
 333 352 l 1,1,-1
 315.181818182 303 l 1,2,-1
 725 303 l 1,3,-1
 669 147 l 1,4,-1
 668.25 147 l 1,5,-1
 615 0 l 1,6,-1
 459 0 l 1,7,-1
 205 0 l 1,8,-1
 223 49 l 1,9,-1
 476.75 49 l 1,10,-1
 512.25 147 l 1,11,-1
 258.454545455 147 l 1,12,-1
 205 0 l 1,13,-1
 49 0 l 1,14,-1
 0 0 l 1,15,-1
 18 49 l 1,16,-1
 66.8181818182 49 l 1,17,-1
 177 352 l 1,0,-1
EndSplineSet
Validated: 5
EndChar

StartChar: uni0636
Encoding: 274 1590 274
Width: 781
GlyphClass: 2
Flags: W
AnchorPoint: "Anchor-2" 897 765 basechar 0
AnchorPoint: "Anchor-1" 897 -170 basechar 0
LayerCount: 2
Fore
SplineSet
650 326 m 0,0,1
 629 326 629 326 614 341.5 c 128,-1,2
 599 357 599 357 599 380 c 0,3,4
 599 402 599 402 614 418 c 128,-1,5
 629 434 629 434 650 434 c 0,6,7
 672 434 672 434 687 418 c 128,-1,8
 702 402 702 402 702 380 c 0,9,10
 702 357 702 357 687 341.5 c 128,-1,11
 672 326 672 326 650 326 c 0,0,1
384 0 m 1,12,-1
 309 -205 l 1,13,-1
 -52 -205 l 1,14,-1
 133 303 l 1,15,-1
 289 303 l 1,16,-1
 122 -156 l 1,17,-1
 171 -156 l 1,18,-1
 356 351 l 1,19,-1
 512 351 l 1,20,-1
 494 303 l 1,21,-1
 904 303 l 1,22,-1
 865 196 l 1,23,-1
 794 0 l 1,24,-1
 384 0 l 1,12,-1
402 49 m 1,25,-1
 656 49 l 1,26,-1
 691 147 l 1,27,-1
 438 147 l 1,28,-1
 402 49 l 1,25,-1
EndSplineSet
Validated: 1
Substitution2: "'fina' Terminal Forms lookup 13 subtable" uniFEBE
Substitution2: "'medi' Medial Forms lookup 12 subtable" uniFEC0
Substitution2: "'init' Initial Forms lookup 11 subtable" uniFEBF
AlternateSubs2: "'aalt' Access All Alternates lookup 1 subtable" uniFEBF uniFEC0 uniFEBE
EndChar

StartChar: uniFEBE
Encoding: 275 65214 275
Width: 781
GlyphClass: 2
Flags: W
AnchorPoint: "Anchor-2" 897 765 basechar 0
AnchorPoint: "Anchor-1" 897 -170 basechar 0
LayerCount: 2
Fore
SplineSet
402 49 m 1,0,-1
 656 49 l 1,1,-1
 691 147 l 1,2,-1
 438 147 l 1,3,-1
 402 49 l 1,0,-1
-52 -205 m 1,4,-1
 133 303 l 1,5,-1
 289 303 l 1,6,-1
 122 -156 l 1,7,-1
 171 -156 l 1,8,-1
 356 351 l 1,9,-1
 512 351 l 1,10,-1
 494 303 l 1,11,-1
 904 303 l 1,12,-1
 865 196 l 1,13,-1
 808.359550562 39.6404494382 l 1,14,-1
 823 25 l 1,15,-1
 799 0 l 1,16,-1
 794 0 l 1,17,-1
 724 0 l 1,18,-1
 384 0 l 1,19,-1
 309 -205 l 1,20,-1
 -52 -205 l 1,4,-1
650 326 m 0,21,22
 629 326 629 326 614 341.5 c 128,-1,23
 599 357 599 357 599 380 c 0,24,25
 599 402 599 402 614 418 c 128,-1,26
 629 434 629 434 650 434 c 0,27,28
 672 434 672 434 687 418 c 128,-1,29
 702 402 702 402 702 380 c 0,30,31
 702 357 702 357 687 341.5 c 128,-1,32
 672 326 672 326 650 326 c 0,21,22
EndSplineSet
Validated: 1
EndChar

StartChar: uniFEC0
Encoding: 276 65216 276
Width: 602
GlyphClass: 2
Flags: W
AnchorPoint: "Anchor-2" 538 765 basechar 0
AnchorPoint: "Anchor-1" 538 -120 basechar 0
AnchorPoint: "Cursive-0" 95 35 exit 0
AnchorPoint: "Cursive-0" 923 35 entry 0
LayerCount: 2
Fore
SplineSet
474 326 m 0,0,1
 453 326 453 326 438 341.5 c 128,-1,2
 423 357 423 357 423 380 c 0,3,4
 423 402 423 402 438 418 c 128,-1,5
 453 434 453 434 474 434 c 0,6,7
 496 434 496 434 511 418 c 128,-1,8
 526 402 526 402 526 380 c 0,9,10
 526 357 526 357 511 341.5 c 128,-1,11
 496 326 496 326 474 326 c 0,0,1
177 352 m 1,12,-1
 333 352 l 1,13,-1
 315.181818182 303 l 1,14,-1
 725 303 l 1,15,-1
 669 147 l 1,16,-1
 668.25 147 l 1,17,-1
 629.460175651 39.9182313749 l 1,18,-1
 645 25 l 1,19,-1
 620 0 l 1,20,-1
 615 0 l 1,21,-1
 553 0 l 1,22,-1
 459 0 l 1,23,-1
 205 0 l 1,24,-1
 223 49 l 1,25,-1
 476.75 49 l 1,26,-1
 512.25 147 l 1,27,-1
 258.454545455 147 l 1,28,-1
 205 0 l 1,29,-1
 49 0 l 1,30,-1
 0 0 l 1,31,-1
 18 49 l 1,32,-1
 66.8181818182 49 l 1,33,-1
 177 352 l 1,12,-1
EndSplineSet
Validated: 5
EndChar

StartChar: uniFEBF
Encoding: 277 65215 277
Width: 602
GlyphClass: 2
Flags: W
AnchorPoint: "Anchor-2" 538 765 basechar 0
AnchorPoint: "Anchor-1" 538 -120 basechar 0
LayerCount: 2
Fore
SplineSet
474 326 m 0,0,1
 453 326 453 326 438 341.5 c 128,-1,2
 423 357 423 357 423 380 c 0,3,4
 423 402 423 402 438 418 c 128,-1,5
 453 434 453 434 474 434 c 0,6,7
 496 434 496 434 511 418 c 128,-1,8
 526 402 526 402 526 380 c 0,9,10
 526 357 526 357 511 341.5 c 128,-1,11
 496 326 496 326 474 326 c 0,0,1
177 352 m 1,12,-1
 333 352 l 1,13,-1
 315.181818182 303 l 1,14,-1
 725 303 l 1,15,-1
 669 147 l 1,16,-1
 668.25 147 l 1,17,-1
 615 0 l 1,18,-1
 459 0 l 1,19,-1
 205 0 l 1,20,-1
 223 49 l 1,21,-1
 476.75 49 l 1,22,-1
 512.25 147 l 1,23,-1
 258.454545455 147 l 1,24,-1
 205 0 l 1,25,-1
 49 0 l 1,26,-1
 0 0 l 1,27,-1
 18 49 l 1,28,-1
 66.8181818182 49 l 1,29,-1
 177 352 l 1,12,-1
EndSplineSet
Validated: 5
EndChar

StartChar: uni0637
Encoding: 278 1591 278
Width: 602
GlyphClass: 2
Flags: W
AnchorPoint: "Anchor-2" 495 765 basechar 0
AnchorPoint: "Anchor-1" 512 -120 basechar 0
LayerCount: 2
Fore
SplineSet
205 430 m 1,0,-1
 361 430 l 1,1,-1
 304.517241379 274.310344828 l 1,2,-1
 315 303 l 1,3,-1
 725 303 l 1,4,-1
 669 147 l 1,5,-1
 668.25 147 l 1,6,-1
 615 0 l 1,7,-1
 459 0 l 1,8,-1
 205 0 l 1,9,-1
 49 0 l 1,10,-1
 0 0 l 1,11,-1
 18 49 l 1,12,-1
 66.776744186 49 l 1,13,-1
 205 430 l 1,0,-1
476.75 49 m 1,14,-1
 512.25 147 l 1,15,-1
 258.330232558 147 l 1,16,-1
 222.776744186 49 l 1,17,-1
 476.75 49 l 1,14,-1
EndSplineSet
Validated: 1
Substitution2: "'fina' Terminal Forms lookup 13 subtable" uniFEC2
Substitution2: "'medi' Medial Forms lookup 12 subtable" uniFEC4
Substitution2: "'init' Initial Forms lookup 11 subtable" uniFEC3
AlternateSubs2: "'aalt' Access All Alternates lookup 1 subtable" uniFEC3 uniFEC4 uniFEC2
EndChar

StartChar: uniFEC2
Encoding: 279 65218 279
Width: 602
GlyphClass: 2
Flags: W
AnchorPoint: "Anchor-2" 495 765 basechar 0
AnchorPoint: "Anchor-1" 512 -120 basechar 0
LayerCount: 2
Fore
SplineSet
205 430 m 1,0,-1
 361 430 l 1,1,-1
 304.517241379 274.310344828 l 1,2,-1
 315 303 l 1,3,-1
 725 303 l 1,4,-1
 669 147 l 1,5,-1
 668.25 147 l 1,6,-1
 629.625468165 40.3745318352 l 1,7,-1
 646 24 l 1,8,-1
 621 0 l 1,9,-1
 615 0 l 1,10,-1
 558 0 l 1,11,-1
 459 0 l 1,12,-1
 205 0 l 1,13,-1
 49 0 l 1,14,-1
 0 0 l 1,15,-1
 18 49 l 1,16,-1
 66.776744186 49 l 1,17,-1
 205 430 l 1,0,-1
476.75 49 m 1,18,-1
 512.25 147 l 1,19,-1
 258.330232558 147 l 1,20,-1
 222.776744186 49 l 1,21,-1
 476.75 49 l 1,18,-1
EndSplineSet
Validated: 1
EndChar

StartChar: uniFEC4
Encoding: 280 65220 280
Width: 602
GlyphClass: 2
Flags: W
AnchorPoint: "Anchor-2" 495 765 basechar 0
AnchorPoint: "Anchor-1" 512 -120 basechar 0
LayerCount: 2
Fore
SplineSet
205 430 m 1,0,-1
 361 430 l 1,1,-1
 304.517241379 274.310344828 l 1,2,-1
 315 303 l 1,3,-1
 725 303 l 1,4,-1
 669 147 l 1,5,-1
 668.25 147 l 1,6,-1
 629.625468165 40.3745318352 l 1,7,-1
 646 24 l 1,8,-1
 621 0 l 1,9,-1
 615 0 l 1,10,-1
 558 0 l 1,11,-1
 459 0 l 1,12,-1
 205 0 l 1,13,-1
 49 0 l 1,14,-1
 0 0 l 1,15,-1
 18 49 l 1,16,-1
 66.776744186 49 l 1,17,-1
 205 430 l 1,0,-1
476.75 49 m 1,18,-1
 512.25 147 l 1,19,-1
 258.330232558 147 l 1,20,-1
 222.776744186 49 l 1,21,-1
 476.75 49 l 1,18,-1
EndSplineSet
Validated: 1
EndChar

StartChar: uniFEC3
Encoding: 281 65219 281
Width: 602
GlyphClass: 2
Flags: W
AnchorPoint: "Anchor-2" 495 765 basechar 0
AnchorPoint: "Anchor-1" 512 -120 basechar 0
LayerCount: 2
Fore
SplineSet
205 430 m 1,0,-1
 361 430 l 1,1,-1
 304.517241379 274.310344828 l 1,2,-1
 315 303 l 1,3,-1
 725 303 l 1,4,-1
 669 147 l 1,5,-1
 668.25 147 l 1,6,-1
 615 0 l 1,7,-1
 459 0 l 1,8,-1
 205 0 l 1,9,-1
 49 0 l 1,10,-1
 0 0 l 1,11,-1
 18 49 l 1,12,-1
 66.776744186 49 l 1,13,-1
 205 430 l 1,0,-1
476.75 49 m 1,14,-1
 512.25 147 l 1,15,-1
 258.330232558 147 l 1,16,-1
 222.776744186 49 l 1,17,-1
 476.75 49 l 1,14,-1
EndSplineSet
Validated: 1
EndChar

StartChar: uni0638
Encoding: 282 1592 282
Width: 602
GlyphClass: 2
Flags: W
AnchorPoint: "Anchor-2" 495 765 basechar 0
AnchorPoint: "Anchor-1" 512 -120 basechar 0
LayerCount: 2
Fore
SplineSet
481 326 m 0,0,1
 460 326 460 326 445 341.5 c 128,-1,2
 430 357 430 357 430 380 c 0,3,4
 430 402 430 402 445 418 c 128,-1,5
 460 434 460 434 481 434 c 0,6,7
 503 434 503 434 518 418 c 128,-1,8
 533 402 533 402 533 380 c 0,9,10
 533 357 533 357 518 341.5 c 128,-1,11
 503 326 503 326 481 326 c 0,0,1
205 430 m 1,12,-1
 361 430 l 1,13,-1
 304.517241379 274.310344828 l 1,14,-1
 315 303 l 1,15,-1
 725 303 l 1,16,-1
 669 147 l 1,17,-1
 668.25 147 l 1,18,-1
 615 0 l 1,19,-1
 459 0 l 1,20,-1
 205 0 l 1,21,-1
 49 0 l 1,22,-1
 0 0 l 1,23,-1
 18 49 l 1,24,-1
 66.776744186 49 l 1,25,-1
 205 430 l 1,12,-1
476.75 49 m 1,26,-1
 512.25 147 l 1,27,-1
 258.330232558 147 l 1,28,-1
 222.776744186 49 l 1,29,-1
 476.75 49 l 1,26,-1
EndSplineSet
Validated: 1
Substitution2: "'fina' Terminal Forms lookup 13 subtable" uniFEC6
Substitution2: "'medi' Medial Forms lookup 12 subtable" uniFEC8
Substitution2: "'init' Initial Forms lookup 11 subtable" uniFEC7
AlternateSubs2: "'aalt' Access All Alternates lookup 1 subtable" uniFEC7 uniFEC8 uniFEC6
EndChar

StartChar: uniFEC6
Encoding: 283 65222 283
Width: 602
GlyphClass: 2
Flags: W
AnchorPoint: "Anchor-2" 495 765 basechar 0
AnchorPoint: "Anchor-1" 512 -120 basechar 0
LayerCount: 2
Fore
SplineSet
481 326 m 0,0,1
 460 326 460 326 445 341.5 c 128,-1,2
 430 357 430 357 430 380 c 0,3,4
 430 402 430 402 445 418 c 128,-1,5
 460 434 460 434 481 434 c 0,6,7
 503 434 503 434 518 418 c 128,-1,8
 533 402 533 402 533 380 c 0,9,10
 533 357 533 357 518 341.5 c 128,-1,11
 503 326 503 326 481 326 c 0,0,1
205 430 m 1,12,-1
 361 430 l 1,13,-1
 304.517241379 274.310344828 l 1,14,-1
 315 303 l 1,15,-1
 725 303 l 1,16,-1
 669 147 l 1,17,-1
 668.25 147 l 1,18,-1
 629.625468165 40.3745318352 l 1,19,-1
 646 24 l 1,20,-1
 621 0 l 1,21,-1
 615 0 l 1,22,-1
 558 0 l 1,23,-1
 459 0 l 1,24,-1
 205 0 l 1,25,-1
 49 0 l 1,26,-1
 0 0 l 1,27,-1
 18 49 l 1,28,-1
 66.776744186 49 l 1,29,-1
 205 430 l 1,12,-1
476.75 49 m 1,30,-1
 512.25 147 l 1,31,-1
 258.330232558 147 l 1,32,-1
 222.776744186 49 l 1,33,-1
 476.75 49 l 1,30,-1
EndSplineSet
Validated: 1
EndChar

StartChar: uniFEC8
Encoding: 284 65224 284
Width: 602
GlyphClass: 2
Flags: W
AnchorPoint: "Anchor-2" 495 765 basechar 0
AnchorPoint: "Anchor-1" 512 -120 basechar 0
AnchorPoint: "Cursive-0" 132 35 exit 0
AnchorPoint: "Cursive-0" 912 35 entry 0
LayerCount: 2
Fore
SplineSet
481 326 m 0,0,1
 460 326 460 326 445 341.5 c 128,-1,2
 430 357 430 357 430 380 c 0,3,4
 430 402 430 402 445 418 c 128,-1,5
 460 434 460 434 481 434 c 0,6,7
 503 434 503 434 518 418 c 128,-1,8
 533 402 533 402 533 380 c 0,9,10
 533 357 533 357 518 341.5 c 128,-1,11
 503 326 503 326 481 326 c 0,0,1
205 430 m 1,12,-1
 361 430 l 1,13,-1
 304.517241379 274.310344828 l 1,14,-1
 315 303 l 1,15,-1
 725 303 l 1,16,-1
 669 147 l 1,17,-1
 668.25 147 l 1,18,-1
 629.625468165 40.3745318352 l 1,19,-1
 646 24 l 1,20,-1
 621 0 l 1,21,-1
 615 0 l 1,22,-1
 558 0 l 1,23,-1
 459 0 l 1,24,-1
 205 0 l 1,25,-1
 49 0 l 1,26,-1
 0 0 l 1,27,-1
 18 49 l 1,28,-1
 66.776744186 49 l 1,29,-1
 205 430 l 1,12,-1
476.75 49 m 1,30,-1
 512.25 147 l 1,31,-1
 258.330232558 147 l 1,32,-1
 222.776744186 49 l 1,33,-1
 476.75 49 l 1,30,-1
EndSplineSet
Validated: 1
EndChar

StartChar: uniFEC7
Encoding: 285 65223 285
Width: 602
GlyphClass: 2
Flags: W
AnchorPoint: "Anchor-2" 495 765 basechar 0
AnchorPoint: "Anchor-1" 512 -120 basechar 0
LayerCount: 2
Fore
SplineSet
481 326 m 0,0,1
 460 326 460 326 445 341.5 c 128,-1,2
 430 357 430 357 430 380 c 0,3,4
 430 402 430 402 445 418 c 128,-1,5
 460 434 460 434 481 434 c 0,6,7
 503 434 503 434 518 418 c 128,-1,8
 533 402 533 402 533 380 c 0,9,10
 533 357 533 357 518 341.5 c 128,-1,11
 503 326 503 326 481 326 c 0,0,1
205 430 m 1,12,-1
 361 430 l 1,13,-1
 304.517241379 274.310344828 l 1,14,-1
 315 303 l 1,15,-1
 725 303 l 1,16,-1
 669 147 l 1,17,-1
 668.25 147 l 1,18,-1
 615 0 l 1,19,-1
 459 0 l 1,20,-1
 205 0 l 1,21,-1
 49 0 l 1,22,-1
 0 0 l 1,23,-1
 18 49 l 1,24,-1
 66.776744186 49 l 1,25,-1
 205 430 l 1,12,-1
476.75 49 m 1,26,-1
 512.25 147 l 1,27,-1
 258.330232558 147 l 1,28,-1
 222.776744186 49 l 1,29,-1
 476.75 49 l 1,26,-1
EndSplineSet
Validated: 1
EndChar

StartChar: uni0639
Encoding: 286 1593 286
Width: 581
GlyphClass: 2
Flags: W
AnchorPoint: "Anchor-2" 354 765 basechar 0
AnchorPoint: "Anchor-1" 354 -400 basechar 0
LayerCount: 2
Fore
SplineSet
161 -49 m 1,0,-1
 565 -49 l 1,1,-1
 508 -205 l 1,2,-1
 98 -205 l 1,3,-1
 -52 -205 l 1,4,-1
 40 49 l 1,5,-1
 197 49 l 1,6,-1
 245 49 l 1,7,-1
 338 303 l 1,8,-1
 699 303 l 1,9,-1
 642 147 l 1,10,-1
 437 147 l 1,11,-1
 402 49 l 1,12,-1
 600 49 l 1,13,-1
 583 0 l 1,14,-1
 179 0 l 1,15,-1
 161 -49 l 1,0,-1
EndSplineSet
Validated: 1
Substitution2: "'fina' Terminal Forms lookup 13 subtable" uniFECA
Substitution2: "'medi' Medial Forms lookup 12 subtable" uniFECC
Substitution2: "'init' Initial Forms lookup 11 subtable" uniFECB
AlternateSubs2: "'aalt' Access All Alternates lookup 1 subtable" uniFECB uniFECC uniFECA
EndChar

StartChar: uniFECA
Encoding: 287 65226 287
Width: 576
GlyphClass: 2
Flags: W
AnchorPoint: "Anchor-2" 354 765 basechar 0
AnchorPoint: "Anchor-1" 354 -400 basechar 0
LayerCount: 2
Fore
SplineSet
161 -49 m 1,0,-1
 565 -49 l 1,1,-1
 508 -205 l 1,2,-1
 98 -205 l 1,3,-1
 -52 -205 l 1,4,-1
 40 49 l 1,5,-1
 197 49 l 1,6,-1
 245 49 l 1,7,-1
 338 303 l 1,8,-1
 699 303 l 1,9,-1
 642 147 l 1,10,-1
 437 147 l 1,11,-1
 402 49 l 1,12,-1
 557 49 l 1,13,-1
 600 49 l 1,14,-1
 608 49 l 1,15,-1
 632 25 l 1,16,-1
 608 0 l 1,17,-1
 583 0 l 1,18,-1
 557 0 l 1,19,-1
 179 0 l 1,20,-1
 161 -49 l 1,0,-1
EndSplineSet
Validated: 1
EndChar

StartChar: uniFECC
Encoding: 288 65228 288
Width: 397
GlyphClass: 2
Flags: W
AnchorPoint: "Anchor-2" 177 765 basechar 0
AnchorPoint: "Anchor-1" 177 -120 basechar 0
LayerCount: 2
Fore
SplineSet
520 303 m 1,0,-1
 463 147 l 1,1,-1
 258.366336634 147 l 1,2,-1
 222.788778878 49 l 1,3,-1
 373 49 l 1,4,-1
 428 49 l 1,5,-1
 452 24 l 1,6,-1
 428 0 l 1,7,-1
 410 0 l 1,8,-1
 373 0 l 1,9,-1
 205 0 l 1,10,-1
 49 0 l 1,11,-1
 0 0 l 1,12,-1
 18 49 l 1,13,-1
 66.7887788779 49 l 1,14,-1
 102.366336634 147 l 1,15,-1
 102 147 l 1,16,-1
 159 303 l 1,17,-1
 315 303 l 1,18,-1
 520 303 l 1,0,-1
EndSplineSet
Validated: 1
EndChar

StartChar: uniFECB
Encoding: 289 65227 289
Width: 397
GlyphClass: 2
Flags: W
AnchorPoint: "Anchor-2" 177 765 basechar 0
AnchorPoint: "Anchor-1" 177 -120 basechar 0
LayerCount: 2
Fore
SplineSet
520 303 m 1,0,-1
 463 147 l 1,1,-1
 258.366336634 147 l 1,2,-1
 222.788778878 49 l 1,3,-1
 428 49 l 1,4,-1
 410 0 l 1,5,-1
 205 0 l 1,6,-1
 49 0 l 1,7,-1
 0 0 l 1,8,-1
 18 49 l 1,9,-1
 66.7887788779 49 l 1,10,-1
 102.366336634 147 l 1,11,-1
 102 147 l 1,12,-1
 159 303 l 1,13,-1
 315 303 l 1,14,-1
 520 303 l 1,0,-1
EndSplineSet
Validated: 1
EndChar

StartChar: uni063A
Encoding: 290 1594 290
Width: 576
GlyphClass: 2
Flags: W
AnchorPoint: "Anchor-2" 354 765 basechar 0
AnchorPoint: "Anchor-1" 354 -400 basechar 0
LayerCount: 2
Fore
SplineSet
508 326 m 0,0,1
 487 326 487 326 472 341.5 c 128,-1,2
 457 357 457 357 457 380 c 0,3,4
 457 402 457 402 472 418 c 128,-1,5
 487 434 487 434 508 434 c 0,6,7
 530 434 530 434 545 418 c 128,-1,8
 560 402 560 402 560 380 c 0,9,10
 560 357 560 357 545 341.5 c 128,-1,11
 530 326 530 326 508 326 c 0,0,1
161 -49 m 1,12,-1
 565 -49 l 1,13,-1
 508 -205 l 1,14,-1
 98 -205 l 1,15,-1
 -52 -205 l 1,16,-1
 40 49 l 1,17,-1
 197 49 l 1,18,-1
 245 49 l 1,19,-1
 338 303 l 1,20,-1
 699 303 l 1,21,-1
 642 147 l 1,22,-1
 437 147 l 1,23,-1
 402 49 l 1,24,-1
 600 49 l 1,25,-1
 583 0 l 1,26,-1
 179 0 l 1,27,-1
 161 -49 l 1,12,-1
EndSplineSet
Validated: 1
Substitution2: "'fina' Terminal Forms lookup 13 subtable" uniFECE
Substitution2: "'medi' Medial Forms lookup 12 subtable" uniFED0
Substitution2: "'init' Initial Forms lookup 11 subtable" uniFECF
AlternateSubs2: "'aalt' Access All Alternates lookup 1 subtable" uniFECF uniFED0 uniFECE
EndChar

StartChar: uniFECE
Encoding: 291 65230 291
Width: 576
GlyphClass: 2
Flags: W
AnchorPoint: "Anchor-2" 354 765 basechar 0
AnchorPoint: "Anchor-1" 354 -400 basechar 0
LayerCount: 2
Fore
SplineSet
508 326 m 0,0,1
 487 326 487 326 472 341.5 c 128,-1,2
 457 357 457 357 457 380 c 0,3,4
 457 402 457 402 472 418 c 128,-1,5
 487 434 487 434 508 434 c 0,6,7
 530 434 530 434 545 418 c 128,-1,8
 560 402 560 402 560 380 c 0,9,10
 560 357 560 357 545 341.5 c 128,-1,11
 530 326 530 326 508 326 c 0,0,1
161 -49 m 1,12,-1
 565 -49 l 1,13,-1
 508 -205 l 1,14,-1
 98 -205 l 1,15,-1
 -52 -205 l 1,16,-1
 40 49 l 1,17,-1
 197 49 l 1,18,-1
 245 49 l 1,19,-1
 338 303 l 1,20,-1
 699 303 l 1,21,-1
 642 147 l 1,22,-1
 437 147 l 1,23,-1
 402 49 l 1,24,-1
 568 49 l 1,25,-1
 600 49 l 1,26,-1
 608 49 l 1,27,-1
 632 25 l 1,28,-1
 608 0 l 1,29,-1
 583 0 l 1,30,-1
 568 0 l 1,31,-1
 179 0 l 1,32,-1
 161 -49 l 1,12,-1
EndSplineSet
Validated: 1
EndChar

